<?xml version="1.0" encoding="UTF-8"?>
<svg xmlns="http://www.w3.org/2000/svg" xmlns:xlink="http://www.w3.org/1999/xlink" width="738px" height="221px" viewBox="0 0 554 166" version="1.1">
<g id="surface1">
<path style=" stroke:none;fill-rule:nonzero;fill:rgb(36.862746%,66.666669%,91.764706%);fill-opacity:1;" d="M 128.628906 65.210938 C 133.449219 69.929688 137.164062 75.335938 140.699219 81.054688 C 142.125 83.296875 143.679688 85.390625 145.289062 87.492188 C 146.566406 89.1875 147.765625 90.925781 148.96875 92.671875 C 156.082031 103.367188 156.082031 103.367188 166.867188 109.621094 C 172.664062 110.59375 178.957031 110.253906 184.113281 107.25 C 188.910156 103.726562 191.257812 99.382812 192.171875 93.519531 C 192.351562 88.539062 191.332031 84.078125 188.425781 79.996094 C 184.066406 75.335938 179.664062 73.679688 173.359375 73.21875 C 168.132812 73.261719 163.480469 74.90625 159.621094 78.476562 C 157.578125 81.082031 156.363281 84.082031 155.101562 87.125 C 153.933594 89.011719 153.933594 89.011719 151.921875 89.652344 C 151.347656 89.6875 150.78125 89.726562 150.1875 89.761719 C 149.722656 89.171875 149.257812 88.585938 148.78125 87.976562 C 147.261719 86.03125 147.261719 86.03125 145.683594 84.503906 C 144.933594 83.171875 144.191406 81.839844 143.457031 80.5 C 142.710938 79.148438 142.710938 79.148438 141.328125 78.027344 C 140.886719 77.515625 140.886719 77.515625 140.4375 76.992188 C 140.953125 71.492188 145.160156 67.511719 149.128906 64.007812 C 158.308594 56.945312 168.105469 55.175781 179.425781 55.960938 C 189.335938 57.527344 197.828125 62.574219 204.03125 70.46875 C 209.640625 79.054688 211.519531 89.175781 209.667969 99.207031 C 208.175781 105.214844 205.910156 109.832031 201.921875 114.550781 C 201.511719 115.035156 201.101562 115.519531 200.679688 116.019531 C 195.226562 121.933594 188.6875 124.90625 180.925781 126.566406 C 180.199219 126.738281 179.472656 126.910156 178.722656 127.082031 C 167.574219 128.222656 157.585938 125.941406 148.476562 119.316406 C 140.773438 113.003906 135.414062 104.210938 129.8125 96.078125 C 121.089844 82.519531 121.089844 82.519531 108.113281 74.066406 C 100.960938 72.996094 95.425781 73.15625 89.296875 77.273438 C 85.761719 80.488281 83.832031 85.074219 83.277344 89.769531 C 83.085938 95.152344 84.246094 99.980469 87.828125 104.121094 C 92.984375 108.894531 97.878906 109.679688 104.789062 109.578125 C 110.6875 108.941406 114.789062 106.058594 118.695312 101.78125 C 119.1875 101.78125 119.679688 101.78125 120.191406 101.78125 C 120.6875 100.789062 121.183594 99.796875 121.691406 98.777344 C 124.058594 98.460938 124.058594 98.460938 126.941406 98.777344 C 128.714844 100.191406 129.871094 101.917969 131.117188 103.796875 C 131.460938 104.269531 131.800781 104.738281 132.160156 105.222656 C 133.128906 106.625 133.128906 106.625 134.4375 109.292969 C 133.503906 114.257812 128.835938 117.683594 124.945312 120.503906 C 114.007812 127.390625 103.132812 128.527344 90.71875 125.84375 C 82.046875 123.398438 74.957031 117.960938 70.195312 110.339844 C 65.464844 101.699219 63.925781 92.144531 66.355469 82.484375 C 69.585938 72.171875 75.246094 64.4375 84.886719 59.269531 C 100.078125 52.351562 115.519531 55.867188 128.628906 65.210938 Z M 128.628906 65.210938 "/>
<path style=" stroke:none;fill-rule:nonzero;fill:rgb(36.862746%,66.666669%,91.37255%);fill-opacity:1;" d="M 276.546875 62.746094 C 283.800781 68.539062 288.582031 76.625 290.207031 85.832031 C 291.335938 96.0625 289.167969 106.046875 282.859375 114.300781 C 279.609375 118.101562 276.25 121.460938 271.648438 123.5625 C 271.152344 123.5625 270.65625 123.5625 270.148438 123.5625 C 269.898438 124.058594 269.652344 124.554688 269.398438 125.066406 C 258.460938 128.160156 249.226562 128.03125 239.1875 122.507812 C 237.15625 121.308594 237.15625 121.308594 236.40625 120.558594 C 236.394531 121.425781 236.382812 122.292969 236.371094 123.1875 C 236.328125 126.414062 236.269531 129.640625 236.210938 132.867188 C 236.183594 134.261719 236.164062 135.65625 236.144531 137.054688 C 236.121094 139.0625 236.082031 141.070312 236.039062 143.078125 C 236.03125 144.007812 236.03125 144.007812 236.023438 144.960938 C 235.917969 149.222656 235.085938 151.730469 232.191406 154.96875 C 229.378906 156.375 226.734375 156.445312 223.660156 155.863281 C 221.363281 154.570312 219.613281 153 218.414062 150.605469 C 217.328125 144.222656 217.539062 137.679688 217.535156 131.226562 C 217.535156 130.082031 217.53125 128.941406 217.527344 127.796875 C 217.523438 125.410156 217.523438 123.023438 217.523438 120.640625 C 217.523438 117.609375 217.511719 114.582031 217.5 111.554688 C 217.492188 109.195312 217.492188 106.835938 217.492188 104.476562 C 217.488281 103.363281 217.488281 102.246094 217.480469 101.132812 C 217.390625 82.300781 217.390625 82.300781 221.652344 74.363281 C 222.289062 73.121094 222.289062 73.121094 222.949219 71.851562 C 228.261719 63.242188 235.984375 58.667969 245.675781 56.273438 C 256.601562 54.542969 267.378906 56.371094 276.546875 62.746094 Z M 239.410156 78.496094 C 234.726562 84.125 235.039062 91.058594 235.65625 98.023438 C 236.804688 102.792969 239.964844 105.808594 243.90625 108.539062 C 248.714844 111.277344 255.035156 111.289062 260.28125 109.878906 C 265.023438 108.164062 268.445312 105.714844 270.917969 101.253906 C 273.261719 95.710938 273.835938 90.160156 271.648438 84.503906 C 268.964844 79.03125 265.371094 75.507812 259.652344 73.238281 C 251.746094 71.589844 245.308594 72.835938 239.410156 78.496094 Z M 239.410156 78.496094 "/>
<path style=" stroke:none;fill-rule:nonzero;fill:rgb(36.862746%,66.666669%,91.37255%);fill-opacity:1;" d="M 350.984375 61.640625 C 359.285156 68.203125 363.34375 76.636719 364.570312 87.039062 C 364.734375 90.566406 364.824219 93.027344 362.371094 95.769531 C 356.785156 98.339844 351.144531 98.277344 345.117188 98.082031 C 344.21875 98.058594 343.3125 98.039062 342.378906 98.019531 C 339.511719 97.953125 336.652344 97.871094 333.78125 97.789062 C 331.835938 97.742188 329.882812 97.695312 327.925781 97.648438 C 323.164062 97.539062 318.402344 97.410156 313.632812 97.273438 C 314.847656 101.757812 315.703125 104.679688 319.703125 107.324219 C 326.273438 110.976562 332.699219 111.433594 340 109.957031 C 342.460938 109.1875 344.554688 108.082031 346.8125 106.851562 C 351.46875 104.382812 351.46875 104.382812 354.121094 104.972656 C 356.914062 106.601562 358.03125 107.839844 359.367188 110.792969 C 359.425781 114.023438 359.058594 115.507812 357.03125 118.023438 C 350.335938 123.5625 350.335938 123.5625 348.125 123.5625 C 347.875 124.058594 347.628906 124.554688 347.375 125.066406 C 345.519531 125.527344 343.722656 125.910156 341.84375 126.238281 C 337.820312 126.964844 337.820312 126.964844 333.878906 128.070312 C 322.617188 127.125 312.453125 124.21875 304.5625 115.597656 C 297.511719 106.6875 294.914062 97.972656 295.640625 86.757812 C 296.839844 78.050781 300.871094 69.253906 307.773438 63.640625 C 320.542969 54.183594 337.488281 52.59375 350.984375 61.640625 Z M 316.257812 76.570312 C 314.726562 78.601562 313.488281 80.5 312.882812 83 C 313.101562 84.011719 313.347656 85.015625 313.632812 86.007812 C 317.089844 86.023438 320.535156 86.039062 323.992188 86.046875 C 325.164062 86.050781 326.328125 86.054688 327.5 86.0625 C 334.667969 86.101562 341.730469 85.953125 348.875 85.253906 C 346.753906 78.679688 344.027344 74.65625 337.816406 71.40625 C 330.007812 70.050781 321.886719 70.332031 316.257812 76.570312 Z M 316.257812 76.570312 "/>
<path style=" stroke:none;fill-rule:nonzero;fill:rgb(36.862746%,66.666669%,91.37255%);fill-opacity:1;" d="M 473.246094 62.675781 C 475.0625 64.445312 475.757812 65.503906 476.332031 67.980469 C 476.121094 71.019531 475.789062 73.675781 474.085938 76.242188 C 471.835938 77.742188 471.835938 77.742188 470.039062 77.578125 C 468.027344 76.976562 466.40625 76.183594 464.574219 75.160156 C 457.886719 71.738281 449.5625 70.277344 442.1875 72.242188 C 440.804688 72.761719 439.445312 73.367188 438.097656 73.988281 C 437.847656 75.722656 437.601562 77.457031 437.34375 79.246094 C 442.496094 81.117188 447.960938 83.039062 453.5 82.980469 C 456.574219 83.015625 459.21875 84.222656 462.085938 85.253906 C 462.777344 85.472656 463.464844 85.691406 464.175781 85.914062 C 469.734375 87.746094 473.519531 89.929688 476.992188 94.691406 C 479.066406 101.039062 479.289062 107.234375 476.644531 113.417969 C 472.621094 120.5625 465.914062 123.898438 458.246094 126.050781 C 446.332031 128.28125 434.105469 126.355469 423.847656 119.808594 C 421.222656 117.652344 419.09375 115.550781 418.15625 112.210938 C 417.929688 109.210938 418.527344 107.878906 420.433594 105.582031 C 421.066406 105.070312 421.703125 104.558594 422.351562 104.035156 C 422.71875 103.660156 422.71875 103.660156 423.097656 103.28125 C 425.585938 102.925781 427.519531 102.710938 429.660156 104.183594 C 430.109375 104.566406 430.558594 104.953125 431.019531 105.347656 C 436.527344 109.859375 444.183594 111.324219 451.183594 111.042969 C 454.925781 110.554688 458.621094 109.761719 461.335938 107.039062 C 461.773438 104.441406 461.773438 104.441406 461.335938 101.78125 C 458.695312 99.765625 456.089844 99.019531 452.878906 98.320312 C 451.984375 98.125 451.09375 97.929688 450.171875 97.726562 C 449.25 97.53125 448.324219 97.335938 447.378906 97.132812 C 446.445312 96.925781 445.515625 96.722656 444.558594 96.511719 C 439.871094 95.421875 439.871094 95.421875 435.101562 95.019531 C 435.101562 94.523438 435.101562 94.027344 435.101562 93.519531 C 434.480469 93.472656 433.863281 93.425781 433.226562 93.375 C 428.757812 92.335938 425.589844 90.285156 422.769531 86.664062 C 420.0625 81.660156 419.914062 75.8125 421.457031 70.359375 C 423.957031 64.742188 427.925781 61.257812 433.488281 58.753906 C 446.632812 53.785156 461.472656 54.730469 473.246094 62.675781 Z M 473.246094 62.675781 "/>
<path style=" stroke:none;fill-rule:nonzero;fill:rgb(36.862746%,67.058825%,92.156863%);fill-opacity:1;" d="M 39.972656 27.417969 C 42.507812 30.632812 42.535156 33.6875 42.503906 37.628906 C 42.507812 38.269531 42.511719 38.914062 42.515625 39.574219 C 42.523438 40.964844 42.527344 42.355469 42.523438 43.746094 C 42.519531 45.949219 42.53125 48.152344 42.542969 50.359375 C 42.570312 55.042969 42.582031 59.726562 42.589844 64.410156 C 42.597656 69.832031 42.617188 75.25 42.652344 80.671875 C 42.660156 82.835938 42.65625 85 42.652344 87.164062 C 42.660156 88.5 42.667969 89.839844 42.675781 91.179688 C 42.671875 91.773438 42.667969 92.371094 42.664062 92.984375 C 42.71875 98.15625 43.757812 102.800781 46.855469 107.011719 C 49.558594 108.972656 51.792969 109.328125 55.054688 109.714844 C 60.53125 110.382812 60.53125 110.382812 62.410156 112.183594 C 63.894531 115.179688 64.488281 118.113281 63.492188 121.3125 C 62.316406 123.660156 61.3125 124.910156 58.910156 125.964844 C 51.796875 127.71875 45.136719 126.03125 38.882812 122.503906 C 32.691406 118.636719 28.816406 113.433594 26.191406 106.617188 C 24.710938 98.453125 24.835938 90.25 24.820312 81.980469 C 24.816406 81.289062 24.816406 80.597656 24.8125 79.882812 C 24.804688 76.230469 24.796875 72.578125 24.792969 68.925781 C 24.789062 65.160156 24.769531 61.394531 24.75 57.628906 C 24.734375 54.722656 24.730469 51.816406 24.730469 48.910156 C 24.726562 47.523438 24.722656 46.136719 24.710938 44.746094 C 24.699219 42.808594 24.699219 40.867188 24.707031 38.929688 C 24.699219 38.359375 24.691406 37.792969 24.683594 37.203125 C 24.71875 33.007812 25.589844 29.863281 28.53125 26.808594 C 32.738281 24.585938 36.070312 24.757812 39.972656 27.417969 Z M 39.972656 27.417969 "/>
<path style=" stroke:none;fill-rule:nonzero;fill:rgb(37.254903%,67.058825%,92.156863%);fill-opacity:1;" d="M 412.476562 58.910156 C 414.667969 61.007812 414.996094 62.214844 415.089844 65.164062 C 415.050781 68.628906 414.214844 70.613281 411.855469 73.238281 C 408.585938 74.480469 405.007812 73.96875 401.578125 73.867188 C 397.179688 74.082031 394.019531 75.421875 390.859375 78.496094 C 390.074219 80.769531 390.023438 82.902344 390.019531 85.296875 C 390.019531 86.050781 390.015625 86.808594 390.011719 87.585938 C 390.011719 88.394531 390.011719 89.207031 390.011719 90.039062 C 389.996094 91.757812 389.980469 93.476562 389.964844 95.199219 C 389.945312 97.90625 389.925781 100.613281 389.925781 103.320312 C 389.925781 105.9375 389.898438 108.550781 389.867188 111.167969 C 389.875 111.976562 389.878906 112.785156 389.886719 113.617188 C 389.792969 119.242188 389.792969 119.242188 387.5625 122.1875 C 384.667969 124.226562 382.347656 124.511719 378.863281 124.3125 C 375.738281 123.386719 374.714844 122.691406 373.132812 119.824219 C 371.714844 116.277344 371.804688 112.796875 371.84375 109.019531 C 371.839844 108.28125 371.839844 107.542969 371.839844 106.78125 C 371.84375 105.21875 371.851562 103.660156 371.863281 102.097656 C 371.878906 99.730469 371.878906 97.367188 371.871094 95.003906 C 371.878906 93.476562 371.882812 91.953125 371.890625 90.429688 C 371.886719 89.734375 371.886719 89.039062 371.886719 88.320312 C 371.980469 79.488281 373.25 72.789062 379.050781 66.007812 C 387.128906 59.019531 402.332031 51.996094 412.476562 58.910156 Z M 412.476562 58.910156 "/>
<path style=" stroke:none;fill-rule:nonzero;fill:rgb(37.254903%,67.058825%,92.156863%);fill-opacity:1;" d="M 533.316406 32.675781 C 535.234375 34.117188 536.140625 35.253906 537.070312 37.464844 C 537.070312 40.910156 535.109375 42.878906 532.816406 45.214844 C 526.589844 50.949219 515.960938 59.003906 507.269531 59.9375 C 504.707031 59.605469 503.558594 58.597656 501.824219 56.710938 C 501.355469 54.503906 501.355469 54.503906 501.824219 52.207031 C 504.589844 48.996094 507.699219 47.003906 511.296875 44.882812 C 515.910156 42.085938 520.015625 39.121094 524.074219 35.539062 C 526.894531 33.339844 529.722656 32.121094 533.316406 32.675781 Z M 533.316406 32.675781 "/>
<path style=" stroke:none;fill-rule:nonzero;fill:rgb(37.64706%,67.450982%,92.156863%);fill-opacity:1;" d="M 500.324219 13.898438 C 502.105469 14.789062 502.105469 14.789062 503.328125 16.152344 C 505.273438 22.90625 501.542969 29.929688 498.878906 36.054688 C 498.625 36.640625 498.375 37.222656 498.113281 37.824219 C 496.746094 40.859375 495.527344 43.371094 492.832031 45.445312 C 489.589844 45.976562 488.121094 45.785156 485.335938 44.035156 C 483.492188 41.15625 483.480469 39.847656 483.996094 36.542969 C 485.566406 30.21875 487.816406 24.023438 490.542969 18.105469 C 490.765625 17.621094 490.988281 17.136719 491.214844 16.640625 C 493.4375 13.457031 496.746094 13.578125 500.324219 13.898438 Z M 500.324219 13.898438 "/>
<path style=" stroke:none;fill-rule:nonzero;fill:rgb(37.254903%,66.666669%,91.37255%);fill-opacity:1;" d="M 538.570312 64.222656 C 540.453125 66.203125 540.792969 67.023438 541.09375 69.808594 C 540.800781 72.617188 540.261719 74.019531 538.570312 76.242188 C 533.628906 78.710938 526.917969 76.753906 521.789062 75.632812 C 520.917969 75.445312 520.917969 75.445312 520.03125 75.253906 C 516.882812 74.527344 514.167969 73.769531 511.578125 71.734375 C 510.824219 69.105469 510.824219 69.105469 510.824219 66.476562 C 512.835938 63.773438 515.199219 63.53125 518.367188 62.980469 C 524.824219 62.21875 532.378906 61.933594 538.570312 64.222656 Z M 538.570312 64.222656 "/>
<path style=" stroke:none;fill-rule:nonzero;fill:rgb(34.509805%,60.392159%,82.352942%);fill-opacity:1;" d="M 39.972656 27.417969 C 42.660156 30.777344 42.523438 33.828125 42.472656 37.945312 C 42.472656 38.957031 42.472656 38.957031 42.472656 39.988281 C 42.46875 42.210938 42.453125 44.433594 42.433594 46.65625 C 42.429688 48.199219 42.425781 49.746094 42.425781 51.289062 C 42.417969 55.347656 42.394531 59.40625 42.371094 63.464844 C 42.347656 67.609375 42.335938 71.753906 42.324219 75.898438 C 42.300781 84.023438 42.261719 92.152344 42.214844 100.277344 C 41.96875 100.277344 41.71875 100.277344 41.464844 100.277344 C 41.457031 99.035156 41.457031 99.035156 41.445312 97.765625 C 41.386719 89.953125 41.320312 82.136719 41.25 74.324219 C 41.214844 70.304688 41.179688 66.289062 41.152344 62.273438 C 41.125 58.394531 41.09375 54.519531 41.054688 50.640625 C 41.039062 49.164062 41.027344 47.683594 41.019531 46.203125 C 41.007812 44.132812 40.984375 42.0625 40.960938 39.988281 C 40.960938 39.378906 40.957031 38.765625 40.957031 38.136719 C 40.898438 34.25 40.675781 31.179688 37.90625 28.308594 C 35.652344 27.121094 34.242188 27.109375 31.722656 27.417969 C 28.933594 28.742188 28.933594 28.742188 27.226562 31.171875 C 27.144531 33.355469 27.105469 35.523438 27.105469 37.707031 C 27.101562 38.382812 27.097656 39.058594 27.09375 39.757812 C 27.082031 42.003906 27.078125 44.253906 27.074219 46.5 C 27.066406 48.0625 27.0625 49.628906 27.058594 51.191406 C 27.050781 54.472656 27.046875 57.757812 27.042969 61.039062 C 27.039062 65.234375 27.023438 69.429688 27 73.625 C 26.988281 76.855469 26.984375 80.085938 26.980469 83.320312 C 26.980469 84.867188 26.972656 86.410156 26.964844 87.957031 C 26.949219 90.128906 26.953125 92.296875 26.957031 94.46875 C 26.949219 95.101562 26.945312 95.730469 26.9375 96.382812 C 26.976562 102.101562 28.214844 107.359375 31.15625 112.296875 C 31.589844 113.039062 32.023438 113.78125 32.472656 114.550781 C 32.101562 115.292969 32.101562 115.292969 31.722656 116.050781 C 24.125 105.5 24.847656 94.480469 24.820312 81.980469 C 24.816406 81.289062 24.816406 80.597656 24.8125 79.882812 C 24.804688 76.230469 24.796875 72.578125 24.792969 68.925781 C 24.789062 65.160156 24.769531 61.394531 24.75 57.628906 C 24.734375 54.722656 24.730469 51.816406 24.730469 48.910156 C 24.726562 47.523438 24.722656 46.136719 24.710938 44.746094 C 24.699219 42.808594 24.699219 40.867188 24.707031 38.929688 C 24.699219 38.359375 24.691406 37.792969 24.683594 37.203125 C 24.71875 33.007812 25.589844 29.863281 28.53125 26.808594 C 32.738281 24.585938 36.070312 24.757812 39.972656 27.417969 Z M 39.972656 27.417969 "/>
<path style=" stroke:none;fill-rule:nonzero;fill:rgb(32.549021%,60.000002%,83.529413%);fill-opacity:1;" d="M 372.867188 79.246094 C 373.113281 79.246094 373.359375 79.246094 373.617188 79.246094 C 373.617188 79.738281 373.617188 80.230469 373.621094 80.738281 C 373.632812 85.855469 373.675781 90.972656 373.730469 96.089844 C 373.746094 98 373.757812 99.910156 373.761719 101.820312 C 373.769531 104.566406 373.800781 107.308594 373.835938 110.054688 C 373.832031 110.910156 373.832031 111.765625 373.828125 112.644531 C 373.800781 117.296875 373.800781 117.296875 376.179688 121.101562 C 379.519531 122.757812 382.269531 122.296875 385.941406 121.824219 C 386.519531 121.570312 386.519531 121.570312 387.113281 121.308594 C 387.847656 119.097656 387.976562 117.589844 388.015625 115.285156 C 388.03125 114.515625 388.046875 113.75 388.0625 112.960938 C 388.074219 112.132812 388.089844 111.308594 388.101562 110.457031 C 388.117188 109.609375 388.132812 108.761719 388.148438 107.890625 C 388.195312 105.179688 388.242188 102.472656 388.285156 99.761719 C 388.316406 97.925781 388.351562 96.089844 388.382812 94.253906 C 388.464844 89.753906 388.539062 85.25 388.613281 80.75 C 388.863281 80.75 389.109375 80.75 389.363281 80.75 C 389.460938 86.242188 389.527344 91.734375 389.570312 97.230469 C 389.589844 99.097656 389.617188 100.96875 389.648438 102.835938 C 389.695312 105.523438 389.714844 108.210938 389.730469 110.894531 C 389.75 111.730469 389.769531 112.566406 389.789062 113.425781 C 389.792969 119.238281 389.792969 119.238281 387.570312 122.203125 C 384.667969 124.21875 382.34375 124.511719 378.863281 124.3125 C 375.746094 123.386719 374.71875 122.691406 373.132812 119.835938 C 371.691406 116.230469 371.820312 112.667969 371.867188 108.835938 C 371.871094 108.085938 371.871094 107.332031 371.871094 106.558594 C 371.878906 104.972656 371.886719 103.390625 371.902344 101.808594 C 371.925781 99.386719 371.933594 96.964844 371.9375 94.539062 C 371.945312 93 371.953125 91.457031 371.960938 89.917969 C 371.964844 89.195312 371.96875 88.46875 371.972656 87.722656 C 371.980469 87.050781 371.984375 86.375 371.992188 85.679688 C 372 85.089844 372.003906 84.496094 372.007812 83.886719 C 372.113281 82.257812 372.417969 80.816406 372.867188 79.246094 Z M 372.867188 79.246094 "/>
<path style=" stroke:none;fill-rule:nonzero;fill:rgb(35.294119%,62.7451%,85.882354%);fill-opacity:1;" d="M 112.195312 73.640625 C 117.265625 76.421875 120.726562 80.570312 124.132812 85.160156 C 124.546875 85.710938 124.960938 86.257812 125.378906 86.824219 C 129.578125 92.4375 133.535156 98.210938 137.441406 104.035156 C 137.070312 104.777344 137.070312 104.777344 136.691406 105.535156 C 135.8125 104.339844 134.9375 103.144531 134.058594 101.949219 C 133.304688 100.921875 132.550781 99.890625 131.792969 98.863281 C 130.117188 96.566406 128.441406 94.269531 126.792969 91.945312 C 118.261719 79.824219 118.261719 79.824219 105.398438 73.546875 C 99.578125 72.808594 94 73.996094 89.171875 77.363281 C 87.152344 79.238281 86.125 81.269531 84.957031 83.753906 C 84.460938 83.753906 83.964844 83.753906 83.457031 83.753906 C 85.3125 78.328125 88.1875 75.875 93.109375 73.25 C 99.285156 70.285156 105.96875 71.378906 112.195312 73.640625 Z M 112.195312 73.640625 "/>
<path style=" stroke:none;fill-rule:nonzero;fill:rgb(35.294119%,61.56863%,83.529413%);fill-opacity:1;" d="M 533.316406 32.675781 C 535.234375 34.117188 536.140625 35.253906 537.070312 37.464844 C 537.070312 41.035156 534.730469 43.242188 532.375 45.726562 C 531.949219 46.128906 531.515625 46.53125 531.070312 46.949219 C 530.574219 46.699219 530.078125 46.453125 529.570312 46.195312 C 530.296875 45.5625 531.023438 44.925781 531.773438 44.273438 C 533.691406 42.355469 534.078125 41.640625 534.816406 38.871094 C 534.816406 38.066406 534.816406 37.261719 534.816406 36.433594 C 533.355469 34.621094 533.355469 34.621094 530.664062 34.898438 C 526.445312 35.554688 523.601562 38.0625 520.335938 40.65625 C 519.089844 41.617188 517.832031 42.574219 516.578125 43.53125 C 515.976562 43.992188 515.375 44.453125 514.757812 44.925781 C 506.09375 51.453125 506.09375 51.453125 503.328125 51.453125 C 503.265625 53.742188 503.34375 55.265625 504.078125 57.464844 C 506.546875 57.464844 509.023438 57.464844 511.578125 57.464844 C 509.324219 59.714844 509.324219 59.714844 507.542969 60.046875 C 504.855469 59.597656 503.667969 58.714844 501.824219 56.710938 C 501.355469 54.503906 501.355469 54.503906 501.824219 52.207031 C 504.589844 48.996094 507.699219 47.003906 511.296875 44.882812 C 515.910156 42.085938 520.015625 39.121094 524.074219 35.539062 C 526.894531 33.339844 529.722656 32.121094 533.316406 32.675781 Z M 533.316406 32.675781 "/>
<path style=" stroke:none;fill-rule:nonzero;fill:rgb(34.901962%,61.960787%,84.705883%);fill-opacity:1;" d="M 458.339844 57.464844 C 464.816406 57.761719 470.105469 59.625 474.832031 64.222656 C 476.695312 67.359375 476.347656 69.738281 475.582031 73.238281 C 474.628906 75.761719 474.175781 76.179688 471.835938 77.742188 C 469.042969 77.484375 467 76.515625 464.574219 75.160156 C 457.605469 71.59375 450.304688 71.40625 442.59375 70.984375 C 442.59375 70.734375 442.59375 70.488281 442.59375 70.234375 C 452.335938 69.769531 459.480469 70.21875 468.246094 74.867188 C 469.582031 75.617188 469.582031 75.617188 471.179688 75.398438 C 472.664062 74.835938 472.664062 74.835938 473.527344 73.519531 C 474.339844 70.914062 474.503906 69.199219 474.085938 66.476562 C 471.347656 62.761719 467.308594 61.128906 463.085938 59.609375 C 461.429688 59 459.902344 58.28125 458.339844 57.464844 Z M 458.339844 57.464844 "/>
<path style=" stroke:none;fill-rule:nonzero;fill:rgb(36.470589%,62.352943%,85.09804%);fill-opacity:1;" d="M 361.621094 95.769531 C 356.277344 98.035156 351.59375 98.28125 345.847656 98.082031 C 344.59375 98.050781 344.59375 98.050781 343.308594 98.019531 C 340.644531 97.953125 337.992188 97.871094 335.332031 97.789062 C 333.519531 97.742188 331.710938 97.695312 329.898438 97.648438 C 325.472656 97.539062 321.054688 97.410156 316.636719 97.273438 C 316.386719 96.777344 316.140625 96.28125 315.882812 95.769531 C 321.625 95.65625 327.367188 95.542969 333.105469 95.4375 C 335.777344 95.390625 338.4375 95.339844 341.105469 95.285156 C 344.175781 95.222656 347.234375 95.167969 350.300781 95.109375 C 351.261719 95.089844 352.214844 95.070312 353.203125 95.050781 C 354.089844 95.035156 354.976562 95.019531 355.890625 95.003906 C 356.675781 94.988281 357.457031 94.972656 358.257812 94.957031 C 360.121094 95.019531 360.121094 95.019531 361.621094 95.769531 Z M 361.621094 95.769531 "/>
<path style=" stroke:none;fill-rule:nonzero;fill:rgb(34.901962%,61.960787%,85.09804%);fill-opacity:1;" d="M 276.542969 62.734375 C 281.425781 66.660156 285.082031 71.148438 287.390625 76.992188 C 287.019531 78.109375 287.019531 78.109375 286.648438 79.246094 C 286.355469 78.691406 286.066406 78.140625 285.765625 77.570312 C 281.046875 68.722656 275.949219 63.183594 266.402344 59.714844 C 265.667969 59.445312 264.929688 59.171875 264.171875 58.890625 C 260.035156 57.734375 255.707031 58.058594 251.449219 58.121094 C 250.144531 58.128906 250.144531 58.128906 248.808594 58.140625 C 246.679688 58.160156 244.542969 58.183594 242.402344 58.214844 C 250.066406 50.539062 269.355469 57.769531 276.542969 62.734375 Z M 276.542969 62.734375 "/>
<path style=" stroke:none;fill-rule:nonzero;fill:rgb(36.078432%,61.56863%,83.92157%);fill-opacity:1;" d="M 307.632812 117.554688 C 309.324219 118.390625 311 119.25 312.65625 120.136719 C 322.558594 125.320312 332.792969 126.941406 343.675781 123.75 C 347.183594 122.53125 350.199219 120.964844 353.371094 119.054688 C 353.867188 119.304688 354.363281 119.550781 354.871094 119.808594 C 354.03125 120.4375 353.1875 121.0625 352.339844 121.683594 C 351.867188 122.035156 351.398438 122.382812 350.921875 122.742188 C 349.625 123.5625 349.625 123.5625 348.125 123.5625 C 347.875 124.058594 347.628906 124.554688 347.375 125.066406 C 345.519531 125.527344 343.722656 125.910156 341.84375 126.238281 C 337.820312 126.964844 337.820312 126.964844 333.878906 128.070312 C 325.164062 127.339844 317.242188 125.472656 309.886719 120.558594 C 308.476562 118.890625 308.476562 118.890625 307.632812 117.554688 Z M 307.632812 117.554688 "/>
<path style=" stroke:none;fill-rule:nonzero;fill:rgb(34.509805%,61.960787%,85.490197%);fill-opacity:1;" d="M 151.679688 98.023438 C 152.160156 98.519531 152.640625 99.015625 153.136719 99.527344 C 154.988281 101.371094 156.886719 103.160156 158.804688 104.925781 C 159.355469 105.433594 159.902344 105.9375 160.46875 106.460938 C 164.863281 109.875 170.191406 110.320312 175.589844 109.859375 C 182.164062 108.84375 185.988281 106.320312 189.917969 101.027344 C 190.167969 100.285156 190.414062 99.542969 190.667969 98.777344 C 191.164062 98.777344 191.660156 98.777344 192.171875 98.777344 C 190.632812 104.296875 188.070312 107.140625 183.179688 110.042969 C 177.859375 112.664062 170.933594 112.238281 165.214844 111.109375 C 160.175781 109.371094 156.441406 105.949219 153.183594 101.78125 C 152.246094 99.6875 152.246094 99.6875 151.679688 98.023438 Z M 151.679688 98.023438 "/>
<path style=" stroke:none;fill-rule:nonzero;fill:rgb(36.078432%,61.960787%,84.705883%);fill-opacity:1;" d="M 538.570312 64.222656 C 540.53125 66.265625 540.796875 67.042969 541.046875 69.949219 C 540.8125 72.484375 540.8125 72.484375 539.3125 73.988281 C 539.335938 72.496094 539.363281 71.003906 539.386719 69.515625 C 539.375 67.828125 539.375 67.828125 538.570312 65.726562 C 526.515625 64.539062 526.515625 64.539062 514.570312 65.726562 C 514.820312 64.980469 515.066406 64.238281 515.320312 63.472656 C 522.613281 62.113281 531.523438 61.617188 538.570312 64.222656 Z M 538.570312 64.222656 "/>
<path style=" stroke:none;fill-rule:nonzero;fill:rgb(35.294119%,61.960787%,83.92157%);fill-opacity:1;" d="M 486.835938 29.671875 C 487.578125 31.925781 487.578125 31.925781 486.882812 33.898438 C 485.882812 37.070312 485.953125 39.894531 486.085938 43.191406 C 488.523438 43.898438 488.523438 43.898438 491.332031 43.941406 C 495.507812 41.152344 496.972656 36.441406 498.832031 31.925781 C 499.582031 34.179688 499.582031 34.179688 498.75 36.289062 C 498.34375 37.082031 497.9375 37.871094 497.515625 38.683594 C 497.117188 39.476562 496.71875 40.265625 496.308594 41.078125 C 495.253906 42.890625 494.476562 44.179688 492.832031 45.445312 C 489.621094 45.921875 488.097656 45.769531 485.335938 44.035156 C 483.433594 41.0625 483.609375 39.421875 484.136719 36.019531 C 484.703125 33.6875 485.597656 31.71875 486.835938 29.671875 Z M 486.835938 29.671875 "/>
<path style=" stroke:none;fill-rule:nonzero;fill:rgb(34.901962%,60.784316%,82.352942%);fill-opacity:1;" d="M 500.324219 13.898438 C 502.476562 14.972656 503.132812 15.640625 503.984375 17.886719 C 504.097656 20.355469 503.476562 22.132812 502.578125 24.414062 C 502.054688 22.65625 501.828125 21.28125 501.871094 19.4375 C 502.027344 17.507812 502.027344 17.507812 500.324219 16.152344 C 498.023438 15.851562 496.539062 15.671875 494.328125 16.152344 C 490.992188 19.585938 489.824219 24.445312 488.328125 28.921875 C 487.382812 26.085938 487.9375 25.003906 488.890625 22.207031 C 489.28125 21.035156 489.28125 21.035156 489.679688 19.839844 C 490.53125 17.769531 491.324219 16.292969 492.832031 14.648438 C 495.5 13.757812 497.519531 13.699219 500.324219 13.898438 Z M 500.324219 13.898438 "/>
<path style=" stroke:none;fill-rule:nonzero;fill:rgb(33.725491%,60.784316%,83.529413%);fill-opacity:1;" d="M 241.652344 58.964844 C 241.015625 59.285156 240.375 59.601562 239.710938 59.929688 C 230.199219 64.816406 224.511719 70.574219 220.664062 80.75 C 219.84375 78.6875 219.851562 77.898438 220.695312 75.800781 C 224.257812 69.519531 232.792969 56.003906 241.652344 58.964844 Z M 241.652344 58.964844 "/>
<path style=" stroke:none;fill-rule:nonzero;fill:rgb(34.901962%,61.960787%,84.705883%);fill-opacity:1;" d="M 42.964844 103.28125 C 43.308594 103.589844 43.65625 103.898438 44.007812 104.214844 C 44.46875 104.621094 44.929688 105.023438 45.40625 105.441406 C 45.859375 105.84375 46.3125 106.242188 46.777344 106.65625 C 50.480469 109.570312 54.117188 109.734375 58.71875 110.222656 C 60.957031 110.792969 60.957031 110.792969 62.355469 112.148438 C 63.683594 114.707031 63.722656 116.945312 63.960938 119.808594 C 63.464844 120.054688 62.96875 120.304688 62.460938 120.558594 C 62.089844 116.839844 62.089844 116.839844 61.710938 113.046875 C 60.910156 112.9375 60.121094 112.828125 59.300781 112.710938 C 47.417969 110.890625 47.417969 110.890625 43.714844 106.285156 C 43.199219 104.640625 43.199219 104.640625 42.964844 103.28125 Z M 42.964844 103.28125 "/>
<path style=" stroke:none;fill-rule:nonzero;fill:rgb(35.294119%,62.352943%,85.490197%);fill-opacity:1;" d="M 414.105469 63.472656 C 414.351562 63.472656 414.601562 63.472656 414.855469 63.472656 C 415.109375 66.636719 415.019531 68.414062 413.542969 71.265625 C 411.726562 73.382812 411.457031 73.605469 408.859375 73.988281 C 406.425781 74.011719 404 73.9375 401.578125 73.867188 C 398.984375 73.996094 397.019531 74.574219 394.613281 75.492188 C 393.613281 75.753906 392.613281 76.007812 391.609375 76.242188 C 393.964844 73.414062 396.273438 72.226562 399.859375 71.734375 C 402.175781 71.671875 404.464844 71.6875 406.78125 71.753906 C 409.410156 71.769531 409.410156 71.769531 411.855469 70.984375 C 412.710938 69.246094 412.710938 69.246094 413.167969 67.179688 C 413.347656 66.492188 413.53125 65.800781 413.71875 65.089844 C 413.847656 64.554688 413.972656 64.023438 414.105469 63.472656 Z M 414.105469 63.472656 "/>
<path style=" stroke:none;fill-rule:nonzero;fill:rgb(34.509805%,61.960787%,85.490197%);fill-opacity:1;" d="M 82.703125 97.273438 C 84.230469 98.648438 85.210938 99.929688 86.316406 101.6875 C 89.761719 106.625 93.460938 108.660156 99.203125 110.042969 C 101.203125 110.386719 103.171875 110.609375 105.203125 110.792969 C 105.203125 111.042969 105.203125 111.289062 105.203125 111.542969 C 98.628906 112.050781 93.683594 110.710938 88.09375 107.226562 C 85.382812 104.429688 82.703125 101.277344 82.703125 97.273438 Z M 82.703125 97.273438 "/>
<path style=" stroke:none;fill-rule:nonzero;fill:rgb(35.294119%,63.137257%,86.666667%);fill-opacity:1;" d="M 157.679688 78.496094 C 157.925781 78.992188 158.175781 79.488281 158.429688 79.996094 C 157.648438 82.089844 157.648438 82.089844 156.464844 84.550781 C 156.085938 85.367188 155.703125 86.179688 155.3125 87.019531 C 153.933594 89.011719 153.933594 89.011719 151.898438 89.664062 C 151.046875 89.714844 151.046875 89.714844 150.1875 89.761719 C 149.722656 89.171875 149.257812 88.585938 148.78125 87.976562 C 147.261719 86.03125 147.261719 86.03125 145.683594 84.503906 C 145.683594 83.761719 145.683594 83.015625 145.683594 82.25 C 146.179688 82.25 146.675781 82.25 147.183594 82.25 C 147.183594 82.996094 147.183594 83.738281 147.183594 84.503906 C 147.679688 84.503906 148.175781 84.503906 148.6875 84.503906 C 148.871094 84.984375 149.058594 85.464844 149.25 85.960938 C 150.039062 87.652344 150.039062 87.652344 151.738281 87.980469 C 152.214844 88.074219 152.691406 88.164062 153.183594 88.257812 C 153.320312 87.804688 153.457031 87.351562 153.597656 86.886719 C 155.46875 80.925781 155.46875 80.925781 157.679688 78.496094 Z M 157.679688 78.496094 "/>
<path style=" stroke:none;fill-rule:nonzero;fill:rgb(34.509805%,61.56863%,84.705883%);fill-opacity:1;" d="M 196.667969 64.222656 C 201.703125 66.410156 205.117188 71.289062 207.386719 76.167969 C 208.308594 78.890625 208.539062 81.648438 208.671875 84.503906 C 207.613281 82.4375 206.667969 80.347656 205.761719 78.214844 C 203.847656 73.886719 201.046875 67.917969 196.667969 65.726562 C 196.667969 65.230469 196.667969 64.734375 196.667969 64.222656 Z M 196.667969 64.222656 "/>
<path style=" stroke:none;fill-rule:nonzero;fill:rgb(34.509805%,60.784316%,82.745099%);fill-opacity:1;" d="M 372.867188 116.800781 C 373.3125 117.390625 373.761719 117.980469 374.226562 118.585938 C 375.800781 120.667969 375.800781 120.667969 378.113281 122.0625 C 382.707031 122.367188 382.707031 122.367188 387.113281 121.308594 C 387.359375 120.566406 387.609375 119.820312 387.863281 119.054688 C 388.359375 119.304688 388.855469 119.550781 389.363281 119.808594 C 387.242188 122.476562 385.628906 123.820312 382.289062 124.3125 C 379.097656 124.503906 377.046875 123.890625 374.367188 122.0625 C 372.867188 119.808594 372.867188 119.808594 372.867188 116.800781 Z M 372.867188 116.800781 "/>
<path style=" stroke:none;fill-rule:nonzero;fill:rgb(34.117648%,61.56863%,84.705883%);fill-opacity:1;" d="M 90.203125 58.964844 C 89.570312 59.285156 88.933594 59.601562 88.28125 59.929688 C 83.128906 62.601562 78.605469 65.355469 74.457031 69.480469 C 74.457031 67.226562 74.457031 67.226562 75.53125 65.988281 C 85.601562 57.304688 85.601562 57.304688 90.203125 58.964844 Z M 90.203125 58.964844 "/>
<path style=" stroke:none;fill-rule:nonzero;fill:rgb(33.725491%,60.784316%,83.529413%);fill-opacity:1;" d="M 389.574219 59.96875 C 390 60.132812 390.417969 60.296875 390.859375 60.46875 C 390.148438 60.769531 390.148438 60.769531 389.433594 61.078125 C 382.988281 64.035156 377.800781 68.003906 375.117188 74.738281 C 374.871094 73.996094 374.621094 73.253906 374.367188 72.484375 C 376.894531 68.007812 383.644531 59.09375 389.574219 59.96875 Z M 389.574219 59.96875 "/>
<path style=" stroke:none;fill-rule:nonzero;fill:rgb(35.294119%,62.352943%,85.882354%);fill-opacity:1;" d="M 180.925781 73.238281 C 185.246094 74.371094 188.460938 76.238281 190.894531 79.996094 C 191.699219 81.5 192.425781 82.875 192.921875 84.503906 C 192.671875 85.246094 192.425781 85.992188 192.171875 86.757812 C 191.960938 86.320312 191.75 85.886719 191.535156 85.4375 C 189.625 81.695312 187.738281 79.039062 184.40625 76.457031 C 183.148438 75.46875 182.042969 74.394531 180.925781 73.238281 Z M 180.925781 73.238281 "/>
<path style=" stroke:none;fill-rule:nonzero;fill:rgb(34.509805%,62.352943%,85.490197%);fill-opacity:1;" d="M 118.695312 101.78125 C 119.1875 102.027344 119.679688 102.277344 120.191406 102.53125 C 117.285156 106.710938 113.820312 109.199219 108.945312 110.792969 C 107.214844 110.515625 107.214844 110.515625 105.945312 110.042969 C 106.550781 109.761719 107.15625 109.480469 107.78125 109.1875 C 113.851562 106.300781 113.851562 106.300781 118.695312 101.78125 Z M 118.695312 101.78125 "/>
<path style=" stroke:none;fill-rule:nonzero;fill:rgb(34.901962%,61.960787%,85.490197%);fill-opacity:1;" d="M 125.4375 99.527344 C 126.738281 99.625 126.738281 99.625 128.441406 100.277344 C 130.074219 102.242188 130.074219 102.242188 131.671875 104.691406 C 132.480469 105.894531 132.480469 105.894531 133.304688 107.125 C 133.679688 107.839844 134.054688 108.554688 134.4375 109.292969 C 134.191406 110.035156 133.945312 110.777344 133.6875 111.542969 C 133.191406 110.800781 132.699219 110.058594 132.1875 109.292969 C 130.644531 107.15625 129.085938 105.03125 127.523438 102.902344 C 126.1875 101.027344 126.1875 101.027344 125.4375 99.527344 Z M 125.4375 99.527344 "/>
<path style=" stroke:none;fill-rule:nonzero;fill:rgb(34.117648%,61.56863%,84.313726%);fill-opacity:1;" d="M 159.929688 59.714844 C 158.382812 60.671875 156.84375 61.625 155.292969 62.582031 C 154.859375 62.847656 154.425781 63.117188 153.980469 63.390625 C 151.472656 64.9375 148.964844 66.46875 146.433594 67.980469 C 147.40625 65.058594 148.734375 64.394531 151.210938 62.628906 C 151.945312 62.097656 152.679688 61.570312 153.433594 61.023438 C 156.007812 59.339844 156.964844 58.722656 159.929688 59.714844 Z M 159.929688 59.714844 "/>
<path style=" stroke:none;fill-rule:nonzero;fill:rgb(33.333334%,60.000002%,83.137256%);fill-opacity:1;" d="M 66.960938 99.527344 C 67.164062 99.945312 67.375 100.363281 67.589844 100.796875 C 68.179688 101.976562 68.773438 103.15625 69.371094 104.335938 C 69.847656 105.277344 69.847656 105.277344 70.335938 106.238281 C 70.652344 106.867188 70.96875 107.492188 71.296875 108.136719 C 72.1875 109.996094 72.96875 111.875 73.703125 113.796875 C 69.769531 110.402344 67.199219 106.261719 66.777344 100.980469 C 66.839844 100.5 66.898438 100.019531 66.960938 99.527344 Z M 66.960938 99.527344 "/>
<path style=" stroke:none;fill-rule:nonzero;fill:rgb(36.470589%,63.921571%,87.058824%);fill-opacity:1;" d="M 461.335938 100.277344 C 462.078125 100.773438 462.824219 101.269531 463.589844 101.78125 C 463.9375 104.410156 463.730469 105.96875 462.648438 108.398438 C 461.335938 110.042969 461.335938 110.042969 459.703125 110.652344 C 459.253906 110.699219 458.804688 110.746094 458.339844 110.792969 C 458.835938 110.3125 459.332031 109.832031 459.84375 109.339844 C 461.847656 106.253906 461.617188 103.859375 461.335938 100.277344 Z M 461.335938 100.277344 "/>
<path style=" stroke:none;fill-rule:nonzero;fill:rgb(41.176471%,67.058825%,89.411765%);fill-opacity:1;" d="M 149.4375 120.558594 C 149.933594 121.054688 150.429688 121.550781 150.9375 122.0625 C 150.441406 122.0625 149.949219 122.0625 149.4375 122.0625 C 149.4375 121.566406 149.4375 121.070312 149.4375 120.558594 Z M 149.4375 120.558594 "/>
<path style=" stroke:none;fill-rule:nonzero;fill:rgb(42.352942%,68.235296%,89.803922%);fill-opacity:1;" d="M 402.859375 73.988281 C 405.105469 74.738281 405.105469 74.738281 405.105469 74.738281 Z M 402.859375 73.988281 "/>
<path style=" stroke:none;fill-rule:nonzero;fill:rgb(41.960785%,66.666669%,87.450981%);fill-opacity:1;" d="M 170.425781 128.070312 C 171.925781 128.820312 171.925781 128.820312 171.925781 128.820312 Z M 170.425781 128.070312 "/>
<path style=" stroke:none;fill-rule:nonzero;fill:rgb(42.352942%,67.058825%,87.450981%);fill-opacity:1;" d="M 98.453125 128.070312 C 99.945312 128.820312 99.945312 128.820312 99.945312 128.820312 Z M 98.453125 128.070312 "/>
<path style=" stroke:none;fill-rule:nonzero;fill:rgb(42.352942%,67.058825%,87.450981%);fill-opacity:1;" d="M 324.132812 127.320312 C 325.628906 128.070312 325.628906 128.070312 325.628906 128.070312 Z M 324.132812 127.320312 "/>
<path style=" stroke:none;fill-rule:nonzero;fill:rgb(42.745098%,66.274512%,86.274511%);fill-opacity:1;" d="M 54.210938 127.320312 C 55.710938 128.070312 55.710938 128.070312 55.710938 128.070312 Z M 54.210938 127.320312 "/>
<path style=" stroke:none;fill-rule:nonzero;fill:rgb(41.568628%,67.450982%,88.627452%);fill-opacity:1;" d="M 154.683594 124.3125 C 156.183594 125.066406 156.183594 125.066406 156.183594 125.066406 Z M 154.683594 124.3125 "/>
<path style=" stroke:none;fill-rule:nonzero;fill:rgb(41.568628%,67.450982%,90.196079%);fill-opacity:1;" d="M 294.136719 95.019531 C 295.640625 95.769531 295.640625 95.769531 295.640625 95.769531 Z M 294.136719 95.019531 "/>
<path style=" stroke:none;fill-rule:nonzero;fill:rgb(41.960785%,68.627453%,91.37255%);fill-opacity:1;" d="M 258.902344 74.738281 C 260.40625 75.492188 260.40625 75.492188 260.40625 75.492188 Z M 258.902344 74.738281 "/>
<path style=" stroke:none;fill-rule:nonzero;fill:rgb(42.745098%,69.803923%,89.803922%);fill-opacity:1;" d="M 312.136719 58.964844 C 313.632812 59.714844 313.632812 59.714844 313.632812 59.714844 Z M 312.136719 58.964844 "/>
<path style=" stroke:none;fill-rule:nonzero;fill:rgb(42.352942%,68.235296%,89.019608%);fill-opacity:1;" d="M 491.332031 46.195312 C 492.832031 46.949219 492.832031 46.949219 492.832031 46.949219 Z M 491.332031 46.195312 "/>
</g>
</svg>
