<svg version="1.1" xmlns="http://www.w3.org/2000/svg" style="display: block;" viewBox="0 0 2048 2033" width="100%" height="100%">
<path transform="translate(0,0)" fill="currentColor" d="M 459.536 916.417 C 461.347 916.33 463.16 916.276 464.974 916.255 C 549.022 915.351 579.633 980.088 620.816 1040.19 C 640.871 1071.6 662.713 1100.05 703.822 1099.27 C 740.742 1098.56 771.439 1069.01 768.915 1031.03 C 767.806 1014.29 760.024 998.683 747.314 987.72 C 733.842 976.198 716.332 970.524 698.663 971.955 C 676.733 973.778 657.951 985.436 645.623 1003.44 C 639.927 1011.76 634.334 1021.91 628.023 1029.44 C 616.146 1013.1 604.488 996.607 593.055 979.957 C 594.18 978.142 595.322 976.338 596.481 974.544 C 614.553 946.257 643.22 926.405 676.057 919.439 C 709.304 912.52 745.183 917.604 773.716 936.588 C 799.538 953.427 817.398 980.048 823.188 1010.33 C 836.549 1080.7 793.526 1140.2 723.768 1153.15 C 718.8 1153.75 713.815 1154.2 708.821 1154.52 C 560.133 1162.94 562.687 964.048 460.718 971.678 C 443.177 973.069 426.946 981.497 415.719 995.045 C 404.784 1007.96 399.563 1024.77 401.251 1041.61 C 406.585 1095.55 469.458 1114.2 509.471 1084.43 C 522.421 1074.79 530.589 1064.09 540.457 1051.61 C 552.018 1065.12 564.078 1083.05 574.085 1097.72 C 534.967 1159.8 440.745 1173.82 384.8 1125.71 C 361.044 1105.6 346.381 1076.78 344.116 1045.74 C 339.195 975.776 390.455 921.163 459.536 916.417 z"></path>
<path transform="translate(0,0)" fill="currentColor" d="M 969.229 916.424 C 992.985 915.621 1016.2 920.5 1036.79 932.665 C 1063.43 948.281 1082.79 973.83 1090.6 1003.7 C 1098.52 1034.58 1094.3 1069.44 1077.73 1096.88 C 1061.58 1123.41 1035.49 1142.39 1005.27 1149.57 C 969.34 1158.27 940.153 1151.58 909.374 1132.59 C 909.412 1142.32 909.358 1152.05 909.211 1161.78 C 909.135 1181.25 913.904 1227.24 902.461 1241.94 C 898.142 1247.49 892.197 1250.68 885.22 1251.41 C 876.861 1252.29 868.701 1250.42 862.34 1244.77 C 855.648 1238.83 853.71 1231.29 853.068 1222.64 C 851.101 1196.12 853.042 1163.82 853.039 1136.74 L 852.961 1069.69 C 852.943 1049.96 852.026 1027 856.228 1008.03 C 860.188 989.439 868.836 972.174 881.351 957.872 C 904.252 931.714 935.038 918.822 969.229 916.424 z"></path>
<path transform="translate(0,0)" fill="currentColor" d="M 973.775 971.048 C 1009.06 970.74 1037.89 999.153 1038.09 1034.44 C 1038.29 1069.73 1009.79 1098.47 974.501 1098.56 C 939.364 1098.65 910.776 1070.3 910.576 1035.17 C 910.376 1000.03 938.64 971.355 973.775 971.048 z"></path>
<path transform="translate(0,0)" fill="currentColor" d="M 1220.23 918.355 C 1286.07 910.983 1337.27 956.537 1342.57 1021.33 C 1343.3 1030.23 1341.91 1039.81 1335.61 1046.55 C 1332.39 1049.93 1328.2 1052.24 1323.62 1053.13 C 1314.37 1054.87 1283.26 1054.12 1271.99 1054.1 L 1168.02 1054.1 C 1182.26 1098.82 1221.22 1113.43 1263.87 1097.5 C 1279.12 1091.81 1288.91 1080.08 1305.37 1082.25 L 1306.79 1082.45 C 1322.08 1089.57 1332.15 1106.59 1320 1121.58 C 1305.61 1139.34 1275.56 1149.75 1253.32 1153.19 C 1186.51 1163.53 1121.4 1121.81 1113.21 1052.61 C 1104.97 980.972 1150.29 927.863 1220.23 918.355 z"></path>
<path transform="translate(0,0)" fill="currentColor" d="M 1224.95 965.323 C 1258.91 961.732 1283.08 981.476 1290.88 1013.95 L 1235.5 1014.02 L 1167.89 1014.01 C 1178.43 985.437 1194.24 970.226 1224.95 965.323 z"></path>
<path transform="translate(0,0)" fill="currentColor" d="M 1609.22 917.381 C 1642.09 913.882 1694.08 921.499 1713.6 952.407 C 1715.51 955.426 1716.86 961.533 1717.73 965.156 C 1713.36 980.741 1709.4 984.53 1694.24 988.45 C 1685.14 985.852 1679.07 982.392 1670.85 977.462 C 1660.02 970.961 1648.85 967.272 1636.52 965.436 C 1620.79 963.376 1588.17 964.829 1586.19 985.536 C 1586.22 999.142 1606.73 1003.31 1616.28 1005.18 C 1647.3 1011.26 1683.58 1012.9 1707.38 1036.11 C 1718.64 1047.12 1725.02 1062.19 1725.07 1077.94 C 1724.86 1134.17 1673.45 1154.94 1624.79 1154.88 C 1594.95 1154.1 1567.9 1148.6 1542.41 1131.73 C 1533.58 1125.89 1522.74 1114.32 1521.03 1103.72 C 1520.02 1097.4 1523.99 1087.64 1528.09 1083.1 C 1547.93 1061.12 1568.33 1090.82 1587.23 1097.61 C 1604.88 1103.96 1620.09 1106.12 1638.43 1103.83 C 1646.38 1103.39 1661.08 1098.59 1665.27 1091.13 C 1680.81 1062.68 1637.37 1057.28 1619.49 1053.58 C 1585.1 1046.46 1537.64 1039.44 1532.11 996.592 C 1528.17 966.079 1546.1 940.279 1572.74 927.334 C 1585.01 921.372 1595.75 918.973 1609.22 917.381 z"></path>
<path transform="translate(0,0)" fill="currentColor" d="M 230.669 815.128 C 271.444 813.345 263.824 853.286 263.811 881.73 L 263.734 987.258 C 263.715 1003.69 262.283 1057.14 266.236 1069.83 C 268.222 1076.14 271.707 1081.88 276.394 1086.55 C 296.552 1106.51 327.832 1085.86 336.188 1116.81 C 338.032 1123.56 337.087 1130.77 333.566 1136.81 C 328.55 1145.29 322.511 1148.4 313.425 1150.89 C 267.246 1152.67 227.652 1136.55 211.966 1089.95 C 209.204 1081.7 207.532 1073.13 206.991 1064.46 C 206.189 1052.48 206.677 1035.76 206.697 1023.51 L 206.821 952.331 L 206.643 881.963 C 206.605 869.472 206.325 856.972 206.824 844.492 C 207.492 827.768 215.331 819.813 230.669 815.128 z"></path>
<path transform="translate(0,0)" fill="currentColor" d="M 1456.7 922.406 C 1469.32 921.133 1489.01 920.832 1499.41 928.231 C 1505 932.147 1508.67 938.25 1509.51 945.025 C 1513.83 977.495 1483.97 975.596 1462.63 976.857 C 1423.08 979.195 1426.38 1015.34 1426.46 1044.62 L 1426.65 1099.38 C 1426.7 1116.29 1429.02 1129.57 1417.59 1143.35 C 1396.65 1159.94 1370.03 1147.4 1369.28 1122.03 C 1368.31 1089.28 1370.14 1055.27 1369.27 1022.54 C 1367.77 966.233 1400.36 928.304 1456.7 922.406 z"></path>
<path transform="translate(0,0)" fill="currentColor" d="M 1895.26 844.207 C 1899.27 844.346 1902.19 844.628 1905.83 846.497 C 1909.96 848.631 1913.02 852.39 1914.27 856.871 C 1918.52 872.44 1895.93 887.099 1884.72 894.371 C 1866.62 906.11 1843.19 922.41 1822.24 926.873 C 1805.48 927.646 1798.23 908.956 1805 903.23 C 1823.17 887.866 1873.63 850.804 1895.26 844.207 z"></path>
<path transform="translate(0,0)" fill="currentColor" d="M 1784.25 777.136 C 1834.54 773.33 1786.96 872.063 1766.03 882.435 C 1725.89 890.079 1749.69 825.741 1757.4 809.975 C 1764.29 795.898 1768.87 783.154 1784.25 777.136 z"></path>
<path transform="translate(0,0)" fill="currentColor" d="M 1876.72 942.409 C 1884.26 941.381 1891.36 941.993 1899.57 941.549 C 1921.4 940.369 1945.3 961.42 1923.95 980.185 C 1916.14 987.049 1903.09 985.147 1892.76 983.735 C 1882.5 982.799 1849.6 977.53 1843.39 971.923 C 1815.86 947.099 1865.65 943.397 1876.72 942.409 z"></path>
</svg>
