<?xml version="1.0" encoding="UTF-8"?>
<svg xmlns="http://www.w3.org/2000/svg" xmlns:xlink="http://www.w3.org/1999/xlink" width="1066px" height="319px" viewBox="0 0 1065 319" version="1.1">
<g id="surface1">
<path style=" stroke:none;fill-rule:nonzero;fill:rgb(36.862746%,66.666669%,91.764706%);fill-opacity:1;" d="M 247.292969 125.316406 C 256.5625 134.386719 263.695312 144.769531 270.5 155.765625 C 273.234375 160.066406 276.21875 164.097656 279.332031 168.136719 C 281.777344 171.386719 284.082031 174.730469 286.390625 178.085938 C 300.054688 198.636719 300.054688 198.636719 320.796875 210.65625 C 331.941406 212.527344 344.042969 211.875 353.949219 206.101562 C 363.164062 199.328125 367.6875 190.984375 369.4375 179.714844 C 369.789062 170.148438 367.828125 161.570312 362.230469 153.730469 C 353.859375 144.769531 345.398438 141.589844 333.277344 140.703125 C 323.226562 140.789062 314.28125 143.941406 306.867188 150.808594 C 302.949219 155.816406 300.601562 161.578125 298.175781 167.425781 C 295.929688 171.046875 295.929688 171.046875 292.074219 172.285156 C 290.96875 172.355469 289.863281 172.421875 288.730469 172.496094 C 287.835938 171.359375 286.945312 170.230469 286.027344 169.066406 C 283.109375 165.320312 283.109375 165.320312 280.082031 162.390625 C 278.640625 159.828125 277.203125 157.269531 275.789062 154.695312 C 274.359375 152.105469 274.359375 152.105469 271.699219 149.941406 C 270.855469 148.957031 270.855469 148.957031 269.992188 147.957031 C 270.984375 137.382812 279.078125 129.734375 286.699219 123.011719 C 304.351562 109.433594 323.175781 106.027344 344.941406 107.542969 C 363.980469 110.554688 380.320312 120.246094 392.238281 135.414062 C 403.027344 151.921875 406.632812 171.371094 403.082031 190.648438 C 400.195312 202.195312 395.84375 211.0625 388.175781 220.128906 C 387.390625 221.0625 386.597656 221.992188 385.785156 222.953125 C 375.304688 234.320312 362.742188 240.03125 347.820312 243.21875 C 346.421875 243.546875 345.027344 243.882812 343.589844 244.214844 C 322.164062 246.402344 302.964844 242.019531 285.445312 229.292969 C 270.640625 217.152344 260.328125 200.261719 249.5625 184.632812 C 232.800781 158.578125 232.800781 158.578125 207.855469 142.332031 C 194.109375 140.277344 183.46875 140.582031 171.691406 148.496094 C 164.882812 154.667969 161.183594 163.484375 160.117188 172.503906 C 159.75 182.859375 161.972656 192.125 168.871094 200.089844 C 178.785156 209.257812 188.175781 210.777344 201.457031 210.574219 C 212.796875 209.355469 220.691406 203.816406 228.195312 195.589844 C 229.144531 195.589844 230.09375 195.589844 231.078125 195.589844 C 232.03125 193.683594 232.980469 191.777344 233.960938 189.816406 C 238.503906 189.210938 238.503906 189.210938 244.050781 189.816406 C 247.457031 192.535156 249.675781 195.847656 252.070312 199.472656 C 252.730469 200.375 253.394531 201.273438 254.085938 202.207031 C 255.949219 204.898438 255.949219 204.898438 258.464844 210.023438 C 256.664062 219.574219 247.691406 226.152344 240.203125 231.570312 C 219.191406 244.808594 198.277344 246.992188 174.417969 241.839844 C 157.753906 237.136719 144.128906 226.6875 134.96875 212.042969 C 125.867188 195.433594 122.917969 177.066406 127.578125 158.507812 C 133.804688 138.695312 144.683594 123.828125 163.203125 113.898438 C 192.421875 100.601562 222.09375 107.355469 247.292969 125.316406 Z M 247.292969 125.316406 "/>
<path style=" stroke:none;fill-rule:nonzero;fill:rgb(36.862746%,66.666669%,91.37255%);fill-opacity:1;" d="M 531.632812 120.578125 C 545.570312 131.707031 554.769531 147.25 557.890625 164.945312 C 560.054688 184.597656 555.894531 203.785156 543.765625 219.644531 C 537.507812 226.957031 531.058594 233.414062 522.214844 237.449219 C 521.261719 237.449219 520.3125 237.449219 519.328125 237.449219 C 518.855469 238.402344 518.375 239.355469 517.890625 240.335938 C 496.859375 246.28125 479.113281 246.035156 459.8125 235.421875 C 455.917969 233.121094 455.917969 233.121094 454.476562 231.675781 C 454.457031 233.34375 454.429688 235.007812 454.410156 236.726562 C 454.324219 242.929688 454.214844 249.128906 454.09375 255.332031 C 454.046875 258.011719 454.007812 260.695312 453.972656 263.371094 C 453.921875 267.230469 453.851562 271.09375 453.769531 274.953125 C 453.753906 276.742188 453.753906 276.742188 453.746094 278.570312 C 453.53125 286.761719 451.933594 291.582031 446.367188 297.800781 C 440.964844 300.503906 435.875 300.640625 429.96875 299.515625 C 425.550781 297.035156 422.183594 294.019531 419.882812 289.410156 C 417.800781 277.148438 418.203125 264.574219 418.199219 252.175781 C 418.195312 249.980469 418.1875 247.78125 418.183594 245.585938 C 418.179688 241 418.175781 236.417969 418.175781 231.832031 C 418.175781 226.007812 418.160156 220.191406 418.128906 214.367188 C 418.113281 209.839844 418.109375 205.308594 418.113281 200.773438 C 418.109375 198.632812 418.101562 196.488281 418.09375 194.351562 C 417.917969 158.15625 417.917969 158.15625 426.097656 142.902344 C 427.335938 140.515625 427.335938 140.515625 428.601562 138.078125 C 438.804688 121.53125 453.660156 112.742188 472.285156 108.144531 C 493.292969 104.8125 514.015625 108.328125 531.632812 120.578125 Z M 460.234375 150.84375 C 451.234375 161.664062 451.847656 174.984375 453.035156 188.371094 C 455.238281 197.539062 461.304688 203.332031 468.882812 208.582031 C 478.136719 213.839844 490.285156 213.863281 500.359375 211.148438 C 509.476562 207.855469 516.054688 203.144531 520.8125 194.582031 C 525.304688 183.925781 526.429688 173.261719 522.214844 162.390625 C 517.058594 151.878906 510.144531 145.101562 499.148438 140.738281 C 483.949219 137.570312 471.582031 139.972656 460.234375 150.84375 Z M 460.234375 150.84375 "/>
<path style=" stroke:none;fill-rule:nonzero;fill:rgb(36.862746%,66.666669%,91.37255%);fill-opacity:1;" d="M 674.710938 118.453125 C 690.675781 131.0625 698.46875 147.269531 700.835938 167.265625 C 701.15625 174.042969 701.320312 178.777344 696.601562 184.039062 C 685.867188 188.976562 675.019531 188.855469 663.441406 188.476562 C 661.703125 188.441406 659.96875 188.402344 658.171875 188.363281 C 652.664062 188.242188 647.160156 188.078125 641.65625 187.921875 C 637.902344 187.832031 634.148438 187.742188 630.390625 187.652344 C 621.234375 187.433594 612.078125 187.195312 602.921875 186.929688 C 605.261719 195.546875 606.894531 201.160156 614.589844 206.246094 C 627.226562 213.261719 639.574219 214.136719 653.601562 211.304688 C 658.332031 209.824219 662.351562 207.699219 666.695312 205.332031 C 675.65625 200.589844 675.65625 200.589844 680.746094 201.726562 C 686.113281 204.859375 688.269531 207.238281 690.839844 212.910156 C 690.945312 219.117188 690.242188 221.972656 686.335938 226.804688 C 673.464844 237.449219 673.464844 237.449219 669.21875 237.449219 C 668.742188 238.402344 668.265625 239.355469 667.777344 240.335938 C 664.21875 241.222656 660.75 241.960938 657.152344 242.589844 C 649.40625 243.992188 649.40625 243.992188 641.832031 246.109375 C 620.1875 244.300781 600.640625 238.710938 585.476562 222.136719 C 571.929688 205.019531 566.941406 188.269531 568.332031 166.722656 C 570.640625 149.992188 578.394531 133.089844 591.65625 122.304688 C 616.203125 104.121094 648.765625 101.070312 674.710938 118.453125 Z M 607.96875 147.144531 C 605.023438 151.050781 602.644531 154.695312 601.476562 159.503906 C 601.894531 161.441406 602.375 163.371094 602.921875 165.28125 C 609.554688 165.3125 616.191406 165.335938 622.824219 165.351562 C 625.078125 165.363281 627.328125 165.378906 629.570312 165.386719 C 643.355469 165.457031 656.925781 165.179688 670.65625 163.832031 C 666.582031 151.199219 661.339844 143.472656 649.402344 137.214844 C 634.394531 134.617188 618.785156 135.160156 607.96875 147.144531 Z M 607.96875 147.144531 "/>
<path style=" stroke:none;fill-rule:nonzero;fill:rgb(36.862746%,66.666669%,91.37255%);fill-opacity:1;" d="M 909.726562 120.441406 C 913.234375 123.847656 914.570312 125.875 915.671875 130.632812 C 915.265625 136.46875 914.628906 141.582031 911.351562 146.515625 C 907.023438 149.398438 907.023438 149.398438 903.574219 149.082031 C 899.707031 147.925781 896.582031 146.402344 893.0625 144.4375 C 880.207031 137.863281 864.214844 135.050781 850.039062 138.824219 C 847.367188 139.824219 844.753906 140.984375 842.167969 142.179688 C 841.691406 145.515625 841.214844 148.851562 840.730469 152.289062 C 850.632812 155.878906 861.121094 159.582031 871.773438 159.464844 C 877.6875 159.53125 882.769531 161.851562 888.292969 163.832031 C 889.613281 164.253906 890.933594 164.671875 892.296875 165.105469 C 902.984375 168.617188 910.253906 172.820312 916.933594 181.964844 C 920.921875 194.164062 921.351562 206.066406 916.269531 217.957031 C 908.53125 231.683594 895.640625 238.09375 880.902344 242.230469 C 858 246.515625 834.496094 242.8125 814.785156 230.230469 C 809.734375 226.09375 805.636719 222.046875 803.84375 215.632812 C 803.410156 209.867188 804.558594 207.304688 808.210938 202.894531 C 809.429688 201.914062 810.644531 200.933594 811.902344 199.917969 C 812.613281 199.203125 812.613281 199.203125 813.34375 198.476562 C 818.117188 197.796875 821.835938 197.378906 825.953125 200.207031 C 826.816406 200.945312 827.679688 201.6875 828.566406 202.449219 C 839.152344 211.121094 853.871094 213.929688 867.320312 213.390625 C 874.53125 212.453125 881.621094 210.929688 886.847656 205.695312 C 887.6875 200.703125 887.6875 200.703125 886.847656 195.589844 C 881.761719 191.71875 876.757812 190.285156 870.578125 188.941406 C 868.863281 188.5625 867.152344 188.183594 865.386719 187.800781 C 863.613281 187.421875 861.839844 187.046875 860.003906 186.660156 C 858.21875 186.269531 856.433594 185.871094 854.585938 185.464844 C 845.574219 183.367188 845.574219 183.367188 836.402344 182.59375 C 836.402344 181.640625 836.402344 180.695312 836.402344 179.714844 C 835.21875 179.625 834.023438 179.535156 832.796875 179.441406 C 824.214844 177.445312 818.128906 173.5 812.714844 166.542969 C 807.5 156.925781 807.210938 145.6875 810.175781 135.207031 C 814.992188 124.414062 822.613281 117.722656 833.308594 112.90625 C 858.570312 103.359375 887.113281 105.175781 909.726562 120.441406 Z M 909.726562 120.441406 "/>
<path style=" stroke:none;fill-rule:nonzero;fill:rgb(36.862746%,67.058825%,92.156863%);fill-opacity:1;" d="M 76.863281 52.6875 C 81.75 58.867188 81.796875 64.730469 81.742188 72.308594 C 81.75 73.542969 81.757812 74.777344 81.765625 76.046875 C 81.78125 78.722656 81.78125 81.394531 81.78125 84.0625 C 81.769531 88.296875 81.792969 92.535156 81.820312 96.773438 C 81.871094 105.777344 81.890625 114.777344 81.914062 123.777344 C 81.925781 134.195312 81.957031 144.613281 82.027344 155.023438 C 82.042969 159.183594 82.039062 163.339844 82.035156 167.496094 C 82.042969 170.074219 82.058594 172.648438 82.074219 175.214844 C 82.0625 176.359375 82.058594 177.503906 82.046875 178.6875 C 82.152344 188.625 84.152344 197.542969 90.089844 205.640625 C 95.304688 209.410156 99.597656 210.09375 105.871094 210.832031 C 116.394531 212.117188 116.394531 212.117188 120.007812 215.585938 C 122.859375 221.339844 123.996094 226.976562 122.085938 233.125 C 119.828125 237.628906 117.90625 240.035156 113.273438 242.058594 C 99.605469 245.441406 86.804688 242.191406 74.777344 235.414062 C 62.875 227.980469 55.433594 217.984375 50.378906 204.878906 C 47.53125 189.195312 47.777344 173.429688 47.75 157.542969 C 47.742188 156.210938 47.738281 154.882812 47.734375 153.511719 C 47.714844 146.496094 47.703125 139.472656 47.699219 132.453125 C 47.683594 125.21875 47.648438 117.980469 47.613281 110.75 C 47.585938 105.167969 47.570312 99.578125 47.570312 93.992188 C 47.566406 91.324219 47.558594 88.660156 47.535156 85.992188 C 47.515625 82.261719 47.515625 78.535156 47.527344 74.804688 C 47.511719 73.714844 47.5 72.621094 47.484375 71.492188 C 47.546875 63.429688 49.222656 57.390625 54.890625 51.511719 C 62.960938 47.246094 69.382812 47.578125 76.863281 52.6875 Z M 76.863281 52.6875 "/>
<path style=" stroke:none;fill-rule:nonzero;fill:rgb(37.254903%,67.058825%,92.156863%);fill-opacity:1;" d="M 792.925781 113.203125 C 797.125 117.234375 797.757812 119.554688 797.9375 125.21875 C 797.863281 131.882812 796.257812 135.691406 791.71875 140.738281 C 785.4375 143.125 778.570312 142.144531 771.964844 141.949219 C 763.515625 142.363281 757.4375 144.941406 751.371094 150.84375 C 749.855469 155.21875 749.75 159.3125 749.746094 163.917969 C 749.742188 165.363281 749.734375 166.816406 749.730469 168.308594 C 749.730469 169.867188 749.730469 171.425781 749.726562 173.03125 C 749.695312 176.335938 749.671875 179.640625 749.644531 182.9375 C 749.601562 188.144531 749.570312 193.347656 749.570312 198.550781 C 749.5625 203.578125 749.515625 208.601562 749.453125 213.625 C 749.464844 215.179688 749.472656 216.734375 749.484375 218.339844 C 749.3125 229.144531 749.3125 229.144531 745.027344 234.804688 C 739.472656 238.726562 735 239.269531 728.308594 238.898438 C 722.292969 237.105469 720.332031 235.777344 717.296875 230.261719 C 714.574219 223.449219 714.746094 216.753906 714.816406 209.503906 C 714.816406 208.082031 714.816406 206.660156 714.816406 205.195312 C 714.816406 202.195312 714.832031 199.199219 714.851562 196.195312 C 714.890625 191.65625 714.886719 187.109375 714.875 182.566406 C 714.886719 179.640625 714.894531 176.707031 714.90625 173.78125 C 714.90625 172.445312 714.902344 171.101562 714.902344 169.722656 C 715.082031 152.75 717.519531 139.875 728.667969 126.847656 C 744.195312 113.414062 773.410156 99.914062 792.925781 113.203125 Z M 792.925781 113.203125 "/>
<path style=" stroke:none;fill-rule:nonzero;fill:rgb(37.254903%,67.058825%,92.156863%);fill-opacity:1;" d="M 1025.203125 62.792969 C 1028.894531 65.558594 1030.628906 67.75 1032.414062 71.992188 C 1032.414062 78.613281 1028.65625 82.402344 1024.25 86.886719 C 1012.28125 97.910156 991.847656 113.390625 975.140625 115.179688 C 970.207031 114.539062 968.003906 112.601562 964.671875 108.984375 C 963.773438 104.742188 963.773438 104.742188 964.671875 100.324219 C 969.976562 94.152344 975.96875 90.324219 982.871094 86.253906 C 991.75 80.878906 999.648438 75.175781 1007.4375 68.296875 C 1012.871094 64.070312 1018.296875 61.722656 1025.203125 62.792969 Z M 1025.203125 62.792969 "/>
<path style=" stroke:none;fill-rule:nonzero;fill:rgb(37.64706%,67.450982%,92.156863%);fill-opacity:1;" d="M 961.792969 26.707031 C 965.214844 28.421875 965.214844 28.421875 967.554688 31.035156 C 971.296875 44.023438 964.128906 57.515625 959 69.285156 C 958.515625 70.410156 958.035156 71.53125 957.535156 72.6875 C 954.90625 78.515625 952.566406 83.351562 947.382812 87.332031 C 941.152344 88.351562 938.335938 87.984375 932.964844 84.625 C 929.433594 79.09375 929.410156 76.570312 930.402344 70.226562 C 933.414062 58.066406 937.746094 46.164062 942.984375 34.792969 C 943.414062 33.863281 943.835938 32.933594 944.273438 31.976562 C 948.539062 25.859375 954.90625 26.09375 961.792969 26.707031 Z M 961.792969 26.707031 "/>
<path style=" stroke:none;fill-rule:nonzero;fill:rgb(37.254903%,66.666669%,91.37255%);fill-opacity:1;" d="M 1035.292969 123.417969 C 1038.929688 127.222656 1039.582031 128.796875 1040.160156 134.15625 C 1039.59375 139.550781 1038.5625 142.242188 1035.292969 146.515625 C 1025.8125 151.261719 1012.914062 147.492188 1003.046875 145.34375 C 1001.378906 144.980469 1001.378906 144.980469 999.671875 144.617188 C 993.617188 143.214844 988.398438 141.757812 983.414062 137.851562 C 981.972656 132.800781 981.972656 132.800781 981.972656 127.746094 C 985.839844 122.550781 990.375 122.09375 996.464844 121.03125 C 1008.871094 119.558594 1023.410156 119.019531 1035.292969 123.417969 Z M 1035.292969 123.417969 "/>
<path style=" stroke:none;fill-rule:nonzero;fill:rgb(34.509805%,60.392159%,82.352942%);fill-opacity:1;" d="M 76.863281 52.6875 C 82.046875 59.148438 81.78125 65.007812 81.675781 72.914062 C 81.679688 74.863281 81.679688 74.863281 81.679688 76.84375 C 81.675781 81.117188 81.644531 85.386719 81.613281 89.660156 C 81.605469 92.625 81.597656 95.597656 81.59375 98.5625 C 81.574219 106.363281 81.535156 114.160156 81.484375 121.964844 C 81.441406 129.921875 81.421875 137.886719 81.402344 145.851562 C 81.351562 161.46875 81.28125 177.082031 81.191406 192.707031 C 80.710938 192.707031 80.234375 192.707031 79.75 192.707031 C 79.734375 190.3125 79.734375 190.3125 79.707031 187.871094 C 79.597656 172.859375 79.472656 157.839844 79.335938 142.828125 C 79.261719 135.109375 79.195312 127.390625 79.140625 119.664062 C 79.082031 112.21875 79.023438 104.769531 78.941406 97.316406 C 78.917969 94.476562 78.898438 91.628906 78.875 88.789062 C 78.851562 84.808594 78.8125 80.828125 78.765625 76.847656 C 78.761719 75.671875 78.753906 74.5 78.753906 73.289062 C 78.644531 65.820312 78.214844 59.917969 72.902344 54.40625 C 68.574219 52.117188 65.847656 52.097656 61.011719 52.6875 C 55.660156 55.238281 55.660156 55.238281 52.363281 59.910156 C 52.207031 64.101562 52.136719 68.261719 52.128906 72.460938 C 52.125 73.757812 52.117188 75.0625 52.109375 76.398438 C 52.089844 80.71875 52.082031 85.042969 52.070312 89.367188 C 52.066406 92.363281 52.050781 95.363281 52.042969 98.371094 C 52.03125 104.683594 52.019531 110.992188 52.015625 117.304688 C 52.007812 125.359375 51.972656 133.421875 51.933594 141.480469 C 51.910156 147.691406 51.898438 153.90625 51.898438 160.117188 C 51.894531 163.085938 51.882812 166.054688 51.863281 169.023438 C 51.832031 173.195312 51.839844 177.367188 51.851562 181.542969 C 51.832031 182.753906 51.824219 183.96875 51.808594 185.21875 C 51.886719 196.210938 54.273438 206.3125 59.925781 215.796875 C 60.761719 217.230469 61.59375 218.65625 62.449219 220.128906 C 61.742188 221.558594 61.742188 221.558594 61.011719 223.015625 C 46.414062 202.738281 47.800781 181.5625 47.75 157.542969 C 47.742188 156.210938 47.738281 154.882812 47.734375 153.511719 C 47.714844 146.496094 47.703125 139.472656 47.699219 132.453125 C 47.683594 125.21875 47.648438 117.980469 47.613281 110.75 C 47.585938 105.167969 47.570312 99.578125 47.570312 93.992188 C 47.566406 91.324219 47.558594 88.660156 47.535156 85.992188 C 47.515625 82.261719 47.515625 78.535156 47.527344 74.804688 C 47.511719 73.714844 47.5 72.621094 47.484375 71.492188 C 47.546875 63.429688 49.222656 57.390625 54.890625 51.511719 C 62.960938 47.246094 69.382812 47.578125 76.863281 52.6875 Z M 76.863281 52.6875 "/>
<path style=" stroke:none;fill-rule:nonzero;fill:rgb(32.549021%,60.000002%,83.529413%);fill-opacity:1;" d="M 716.78125 152.289062 C 717.25 152.289062 717.730469 152.289062 718.222656 152.289062 C 718.222656 153.234375 718.222656 154.175781 718.230469 155.152344 C 718.253906 164.988281 718.335938 174.820312 718.441406 184.652344 C 718.472656 188.328125 718.492188 191.996094 718.5 195.667969 C 718.515625 200.945312 718.578125 206.214844 718.644531 211.492188 C 718.636719 213.136719 718.632812 214.777344 718.628906 216.472656 C 718.578125 225.410156 718.578125 225.410156 723.140625 232.71875 C 729.574219 235.898438 734.855469 235.015625 741.914062 234.113281 C 743.023438 233.621094 743.023438 233.621094 744.164062 233.121094 C 745.582031 228.871094 745.824219 225.972656 745.902344 221.539062 C 745.929688 220.0625 745.957031 218.589844 745.988281 217.074219 C 746.015625 215.484375 746.035156 213.898438 746.058594 212.257812 C 746.09375 210.628906 746.121094 209.003906 746.152344 207.332031 C 746.246094 202.121094 746.332031 196.914062 746.417969 191.707031 C 746.476562 188.179688 746.539062 184.652344 746.605469 181.128906 C 746.761719 172.476562 746.90625 163.828125 747.046875 155.171875 C 747.523438 155.171875 747.996094 155.171875 748.492188 155.171875 C 748.667969 165.730469 748.796875 176.289062 748.882812 186.84375 C 748.917969 190.433594 748.96875 194.03125 749.03125 197.621094 C 749.121094 202.785156 749.160156 207.945312 749.195312 213.105469 C 749.230469 214.714844 749.265625 216.316406 749.308594 217.96875 C 749.3125 229.136719 749.3125 229.136719 745.046875 234.839844 C 739.46875 238.710938 734.992188 239.269531 728.308594 238.898438 C 722.308594 237.109375 720.335938 235.777344 717.296875 230.289062 C 714.523438 223.363281 714.773438 216.511719 714.867188 209.148438 C 714.867188 207.703125 714.875 206.257812 714.875 204.769531 C 714.886719 201.730469 714.90625 198.683594 714.933594 195.648438 C 714.980469 190.984375 714.992188 186.328125 715.003906 181.675781 C 715.015625 178.714844 715.027344 175.753906 715.046875 172.792969 C 715.050781 171.40625 715.058594 170.007812 715.0625 168.574219 C 715.082031 167.285156 715.09375 165.984375 715.109375 164.652344 C 715.117188 163.515625 715.128906 162.378906 715.136719 161.207031 C 715.339844 158.066406 715.921875 155.300781 716.78125 152.289062 Z M 716.78125 152.289062 "/>
<path style=" stroke:none;fill-rule:nonzero;fill:rgb(35.294119%,62.7451%,85.882354%);fill-opacity:1;" d="M 215.703125 141.519531 C 225.449219 146.863281 232.105469 154.832031 238.648438 163.652344 C 239.4375 164.707031 240.234375 165.761719 241.050781 166.851562 C 249.109375 177.640625 256.722656 188.734375 264.226562 199.917969 C 263.515625 201.347656 263.515625 201.347656 262.785156 202.804688 C 261.105469 200.511719 259.417969 198.214844 257.734375 195.914062 C 256.285156 193.9375 254.832031 191.964844 253.382812 189.988281 C 250.148438 185.570312 246.933594 181.15625 243.769531 176.691406 C 227.363281 153.394531 227.363281 153.394531 202.628906 141.339844 C 191.453125 139.914062 180.730469 142.195312 171.445312 148.667969 C 167.570312 152.265625 165.585938 156.175781 163.335938 160.949219 C 162.386719 160.949219 161.433594 160.949219 160.457031 160.949219 C 164.027344 150.523438 169.558594 145.808594 179.019531 140.761719 C 190.882812 135.074219 203.742188 137.171875 215.703125 141.519531 Z M 215.703125 141.519531 "/>
<path style=" stroke:none;fill-rule:nonzero;fill:rgb(35.294119%,61.56863%,83.529413%);fill-opacity:1;" d="M 1025.203125 62.792969 C 1028.894531 65.558594 1030.628906 67.75 1032.414062 71.992188 C 1032.414062 78.851562 1027.925781 83.09375 1023.402344 87.871094 C 1022.570312 88.648438 1021.738281 89.421875 1020.886719 90.21875 C 1019.933594 89.738281 1018.984375 89.269531 1018.003906 88.773438 C 1019.398438 87.554688 1020.796875 86.332031 1022.238281 85.074219 C 1025.929688 81.394531 1026.671875 80.023438 1028.089844 74.699219 C 1028.089844 73.152344 1028.089844 71.609375 1028.089844 70.007812 C 1025.285156 66.527344 1025.285156 66.527344 1020.101562 67.066406 C 1012.003906 68.324219 1006.527344 73.144531 1000.253906 78.125 C 997.847656 79.972656 995.4375 81.820312 993.027344 83.65625 C 991.878906 84.539062 990.722656 85.425781 989.53125 86.332031 C 972.867188 98.878906 972.867188 98.878906 967.554688 98.878906 C 967.441406 103.273438 967.59375 106.199219 969 110.421875 C 973.757812 110.421875 978.507812 110.421875 983.414062 110.421875 C 979.089844 114.757812 979.089844 114.757812 975.664062 115.386719 C 970.496094 114.523438 968.210938 112.828125 964.671875 108.984375 C 963.773438 104.742188 963.773438 104.742188 964.671875 100.324219 C 969.976562 94.152344 975.96875 90.324219 982.871094 86.253906 C 991.75 80.878906 999.648438 75.175781 1007.4375 68.296875 C 1012.871094 64.070312 1018.296875 61.722656 1025.203125 62.792969 Z M 1025.203125 62.792969 "/>
<path style=" stroke:none;fill-rule:nonzero;fill:rgb(34.901962%,61.960787%,84.705883%);fill-opacity:1;" d="M 881.085938 110.421875 C 893.527344 111.003906 903.695312 114.574219 912.792969 123.417969 C 916.367188 129.449219 915.691406 134.019531 914.230469 140.738281 C 912.402344 145.589844 911.527344 146.394531 907.023438 149.398438 C 901.664062 148.902344 897.726562 147.039062 893.0625 144.4375 C 879.667969 137.585938 865.636719 137.214844 850.820312 136.410156 C 850.820312 135.929688 850.820312 135.457031 850.820312 134.964844 C 869.542969 134.074219 883.273438 134.9375 900.132812 143.875 C 902.695312 145.308594 902.695312 145.308594 905.765625 144.886719 C 908.609375 143.808594 908.609375 143.808594 910.265625 141.28125 C 911.847656 136.273438 912.160156 132.984375 911.351562 127.746094 C 906.085938 120.609375 898.3125 117.464844 890.207031 114.554688 C 887.027344 113.378906 884.082031 112.003906 881.085938 110.421875 Z M 881.085938 110.421875 "/>
<path style=" stroke:none;fill-rule:nonzero;fill:rgb(36.470589%,62.352943%,85.09804%);fill-opacity:1;" d="M 695.160156 184.039062 C 684.886719 188.390625 675.898438 188.867188 664.847656 188.476562 C 662.421875 188.421875 662.421875 188.421875 659.953125 188.363281 C 654.84375 188.242188 649.734375 188.078125 644.628906 187.921875 C 641.148438 187.832031 637.664062 187.742188 634.183594 187.652344 C 625.683594 187.433594 617.179688 187.195312 608.6875 186.929688 C 608.210938 185.976562 607.730469 185.023438 607.246094 184.039062 C 618.285156 183.816406 629.316406 183.605469 640.355469 183.402344 C 645.480469 183.308594 650.609375 183.207031 655.730469 183.105469 C 661.617188 182.984375 667.507812 182.878906 673.394531 182.773438 C 675.242188 182.738281 677.085938 182.691406 678.984375 182.65625 C 680.691406 182.625 682.390625 182.59375 684.148438 182.566406 C 685.652344 182.539062 687.152344 182.511719 688.703125 182.480469 C 692.273438 182.59375 692.273438 182.59375 695.160156 184.039062 Z M 695.160156 184.039062 "/>
<path style=" stroke:none;fill-rule:nonzero;fill:rgb(34.901962%,61.960787%,85.09804%);fill-opacity:1;" d="M 531.621094 120.554688 C 541.011719 128.105469 548.03125 136.726562 552.480469 147.957031 C 551.761719 150.097656 551.761719 150.097656 551.035156 152.289062 C 550.480469 151.222656 549.917969 150.160156 549.347656 149.066406 C 540.285156 132.066406 530.484375 121.421875 512.121094 114.757812 C 510.707031 114.230469 509.300781 113.707031 507.847656 113.167969 C 499.882812 110.949219 491.570312 111.566406 483.390625 111.6875 C 480.878906 111.710938 480.878906 111.710938 478.316406 111.730469 C 474.210938 111.761719 470.109375 111.808594 466.003906 111.867188 C 480.726562 97.121094 517.804688 111.019531 531.621094 120.554688 Z M 531.621094 120.554688 "/>
<path style=" stroke:none;fill-rule:nonzero;fill:rgb(36.078432%,61.56863%,83.92157%);fill-opacity:1;" d="M 591.386719 225.902344 C 594.636719 227.511719 597.847656 229.160156 601.042969 230.859375 C 620.074219 240.824219 639.757812 243.941406 660.65625 237.808594 C 667.410156 235.472656 673.210938 232.460938 679.3125 228.785156 C 680.257812 229.265625 681.210938 229.742188 682.191406 230.230469 C 680.578125 231.445312 678.953125 232.640625 677.328125 233.84375 C 676.425781 234.507812 675.519531 235.179688 674.589844 235.871094 C 672.101562 237.449219 672.101562 237.449219 669.21875 237.449219 C 668.742188 238.402344 668.265625 239.355469 667.777344 240.335938 C 664.21875 241.222656 660.75 241.960938 657.152344 242.589844 C 649.40625 243.992188 649.40625 243.992188 641.832031 246.109375 C 625.078125 244.707031 609.855469 241.121094 595.714844 231.675781 C 593.007812 228.464844 593.007812 228.464844 591.386719 225.902344 Z M 591.386719 225.902344 "/>
<path style=" stroke:none;fill-rule:nonzero;fill:rgb(34.509805%,61.960787%,85.490197%);fill-opacity:1;" d="M 291.613281 188.371094 C 292.53125 189.324219 293.453125 190.273438 294.402344 191.257812 C 297.964844 194.800781 301.605469 198.238281 305.300781 201.636719 C 306.359375 202.609375 307.414062 203.578125 308.503906 204.582031 C 316.945312 211.144531 327.183594 212.003906 337.5625 211.109375 C 350.195312 209.164062 357.550781 204.320312 365.117188 194.148438 C 365.589844 192.714844 366.070312 191.289062 366.550781 189.816406 C 367.511719 189.816406 368.457031 189.816406 369.4375 189.816406 C 366.480469 200.425781 361.550781 205.894531 352.144531 211.460938 C 341.933594 216.507812 328.621094 215.683594 317.617188 213.511719 C 307.9375 210.175781 300.75 203.597656 294.492188 195.589844 C 292.6875 191.570312 292.6875 191.570312 291.613281 188.371094 Z M 291.613281 188.371094 "/>
<path style=" stroke:none;fill-rule:nonzero;fill:rgb(36.078432%,61.960787%,84.705883%);fill-opacity:1;" d="M 1035.292969 123.417969 C 1039.074219 127.339844 1039.589844 128.84375 1040.070312 134.425781 C 1039.621094 139.296875 1039.621094 139.296875 1036.734375 142.179688 C 1036.785156 139.320312 1036.832031 136.449219 1036.882812 133.578125 C 1036.855469 130.339844 1036.855469 130.339844 1035.292969 126.304688 C 1012.136719 124.019531 1012.136719 124.019531 989.179688 126.304688 C 989.652344 124.875 990.128906 123.449219 990.617188 121.976562 C 1004.636719 119.363281 1021.75 118.402344 1035.292969 123.417969 Z M 1035.292969 123.417969 "/>
<path style=" stroke:none;fill-rule:nonzero;fill:rgb(35.294119%,61.960787%,83.92157%);fill-opacity:1;" d="M 935.847656 57.019531 C 937.289062 61.351562 937.289062 61.351562 935.9375 65.136719 C 934.023438 71.238281 934.152344 76.667969 934.40625 83 C 939.105469 84.359375 939.105469 84.359375 944.496094 84.441406 C 952.53125 79.085938 955.34375 70.027344 958.910156 61.351562 C 960.351562 65.683594 960.351562 65.683594 958.753906 69.742188 C 957.96875 71.253906 957.1875 72.777344 956.390625 74.34375 C 955.621094 75.859375 954.859375 77.378906 954.066406 78.941406 C 952.039062 82.421875 950.554688 84.902344 947.382812 87.332031 C 941.214844 88.246094 938.289062 87.953125 932.964844 84.625 C 929.3125 78.914062 929.660156 75.757812 930.664062 69.214844 C 931.757812 64.738281 933.46875 60.957031 935.847656 57.019531 Z M 935.847656 57.019531 "/>
<path style=" stroke:none;fill-rule:nonzero;fill:rgb(34.901962%,60.784316%,82.352942%);fill-opacity:1;" d="M 961.792969 26.707031 C 965.921875 28.777344 967.1875 30.050781 968.816406 34.375 C 969.039062 39.117188 967.847656 42.535156 966.113281 46.917969 C 965.121094 43.539062 964.675781 40.898438 964.761719 37.351562 C 965.058594 33.648438 965.058594 33.648438 961.792969 31.035156 C 957.359375 30.460938 954.511719 30.113281 950.265625 31.035156 C 943.851562 37.636719 941.605469 46.972656 938.734375 55.574219 C 936.921875 50.125 937.988281 48.046875 939.8125 42.675781 C 940.5625 40.417969 940.5625 40.417969 941.324219 38.125 C 942.964844 34.148438 944.480469 31.304688 947.382812 28.152344 C 952.515625 26.433594 956.398438 26.328125 961.792969 26.707031 Z M 961.792969 26.707031 "/>
<path style=" stroke:none;fill-rule:nonzero;fill:rgb(33.725491%,60.784316%,83.529413%);fill-opacity:1;" d="M 464.5625 113.3125 C 463.324219 113.925781 462.089844 114.539062 460.820312 115.171875 C 442.539062 124.554688 431.605469 135.621094 424.210938 155.171875 C 422.632812 151.207031 422.648438 149.703125 424.261719 145.667969 C 431.113281 133.597656 447.523438 107.625 464.5625 113.3125 Z M 464.5625 113.3125 "/>
<path style=" stroke:none;fill-rule:nonzero;fill:rgb(34.901962%,61.960787%,84.705883%);fill-opacity:1;" d="M 82.628906 198.476562 C 83.292969 199.066406 83.949219 199.664062 84.636719 200.273438 C 85.519531 201.042969 86.40625 201.828125 87.316406 202.625 C 88.183594 203.394531 89.050781 204.167969 89.949219 204.960938 C 97.074219 210.566406 104.070312 210.871094 112.902344 211.816406 C 117.21875 212.910156 117.21875 212.910156 119.898438 215.515625 C 122.449219 220.433594 122.527344 224.734375 122.988281 230.230469 C 122.03125 230.707031 121.082031 231.183594 120.105469 231.675781 C 119.390625 224.527344 119.390625 224.527344 118.664062 217.238281 C 117.128906 217.027344 115.597656 216.816406 114.019531 216.597656 C 91.179688 213.097656 91.179688 213.097656 84.070312 204.25 C 83.078125 201.085938 83.078125 201.085938 82.628906 198.476562 Z M 82.628906 198.476562 "/>
<path style=" stroke:none;fill-rule:nonzero;fill:rgb(35.294119%,62.352943%,85.490197%);fill-opacity:1;" d="M 796.046875 121.976562 C 796.527344 121.976562 797 121.976562 797.488281 121.976562 C 797.976562 128.054688 797.808594 131.46875 794.96875 136.949219 C 791.484375 141.019531 790.964844 141.445312 785.960938 142.179688 C 781.289062 142.226562 776.632812 142.085938 771.964844 141.949219 C 766.992188 142.191406 763.214844 143.3125 758.574219 145.066406 C 756.660156 145.574219 754.742188 146.070312 752.8125 146.515625 C 757.335938 141.082031 761.761719 138.800781 768.664062 137.851562 C 773.109375 137.726562 777.527344 137.761719 781.96875 137.894531 C 787.019531 137.921875 787.019531 137.921875 791.71875 136.410156 C 793.371094 133.066406 793.371094 133.066406 794.246094 129.097656 C 794.59375 127.773438 794.941406 126.449219 795.304688 125.082031 C 795.546875 124.058594 795.800781 123.03125 796.046875 121.976562 Z M 796.046875 121.976562 "/>
<path style=" stroke:none;fill-rule:nonzero;fill:rgb(34.509805%,61.960787%,85.490197%);fill-opacity:1;" d="M 159.019531 186.929688 C 161.949219 189.574219 163.824219 192.03125 165.953125 195.410156 C 172.582031 204.894531 179.699219 208.8125 190.726562 211.460938 C 194.578125 212.128906 198.351562 212.558594 202.253906 212.910156 C 202.253906 213.390625 202.253906 213.863281 202.253906 214.351562 C 189.617188 215.328125 180.128906 212.753906 169.375 206.054688 C 164.15625 200.6875 159.019531 194.621094 159.019531 186.929688 Z M 159.019531 186.929688 "/>
<path style=" stroke:none;fill-rule:nonzero;fill:rgb(35.294119%,63.137257%,86.666667%);fill-opacity:1;" d="M 303.140625 150.84375 C 303.617188 151.796875 304.09375 152.75 304.582031 153.730469 C 303.085938 157.75 303.085938 157.75 300.796875 162.480469 C 300.066406 164.046875 299.335938 165.609375 298.582031 167.21875 C 295.929688 171.046875 295.929688 171.046875 292.027344 172.308594 C 290.394531 172.398438 290.394531 172.398438 288.730469 172.496094 C 287.835938 171.359375 286.945312 170.230469 286.027344 169.066406 C 283.109375 165.320312 283.109375 165.320312 280.082031 162.390625 C 280.082031 160.964844 280.082031 159.53125 280.082031 158.058594 C 281.03125 158.058594 281.984375 158.058594 282.964844 158.058594 C 282.964844 159.488281 282.964844 160.917969 282.964844 162.390625 C 283.914062 162.390625 284.867188 162.390625 285.84375 162.390625 C 286.203125 163.3125 286.554688 164.238281 286.929688 165.191406 C 288.441406 168.441406 288.441406 168.441406 291.726562 169.070312 C 292.636719 169.246094 293.554688 169.429688 294.492188 169.605469 C 294.757812 168.738281 295.019531 167.871094 295.285156 166.972656 C 298.886719 155.515625 298.886719 155.515625 303.140625 150.84375 Z M 303.140625 150.84375 "/>
<path style=" stroke:none;fill-rule:nonzero;fill:rgb(34.509805%,61.56863%,84.705883%);fill-opacity:1;" d="M 378.085938 123.417969 C 387.75 127.621094 394.324219 136.996094 398.679688 146.375 C 400.449219 151.601562 400.894531 156.902344 401.144531 162.390625 C 399.121094 158.421875 397.300781 154.40625 395.558594 150.296875 C 391.886719 141.984375 386.496094 130.515625 378.085938 126.304688 C 378.085938 125.351562 378.085938 124.398438 378.085938 123.417969 Z M 378.085938 123.417969 "/>
<path style=" stroke:none;fill-rule:nonzero;fill:rgb(34.509805%,60.784316%,82.745099%);fill-opacity:1;" d="M 716.78125 224.457031 C 717.640625 225.589844 718.5 226.71875 719.394531 227.890625 C 722.414062 231.882812 722.414062 231.882812 726.867188 234.5625 C 735.691406 235.144531 735.691406 235.144531 744.164062 233.121094 C 744.644531 231.6875 745.113281 230.261719 745.605469 228.785156 C 746.554688 229.265625 747.507812 229.742188 748.492188 230.230469 C 744.414062 235.367188 741.316406 237.945312 734.886719 238.898438 C 728.757812 239.261719 724.808594 238.085938 719.667969 234.5625 C 716.78125 230.230469 716.78125 230.230469 716.78125 224.457031 Z M 716.78125 224.457031 "/>
<path style=" stroke:none;fill-rule:nonzero;fill:rgb(34.117648%,61.56863%,84.705883%);fill-opacity:1;" d="M 173.429688 113.3125 C 172.210938 113.925781 170.988281 114.539062 169.734375 115.171875 C 159.832031 120.296875 151.132812 125.589844 143.164062 133.523438 C 143.164062 129.191406 143.164062 129.191406 145.226562 126.808594 C 164.570312 110.117188 164.570312 110.117188 173.429688 113.3125 Z M 173.429688 113.3125 "/>
<path style=" stroke:none;fill-rule:nonzero;fill:rgb(33.725491%,60.784316%,83.529413%);fill-opacity:1;" d="M 748.886719 115.242188 C 749.707031 115.558594 750.523438 115.875 751.371094 116.199219 C 750.007812 116.785156 750.007812 116.785156 748.621094 117.371094 C 736.226562 123.054688 726.273438 130.679688 721.105469 143.625 C 720.628906 142.195312 720.152344 140.769531 719.667969 139.296875 C 724.519531 130.695312 737.507812 113.5625 748.886719 115.242188 Z M 748.886719 115.242188 "/>
<path style=" stroke:none;fill-rule:nonzero;fill:rgb(35.294119%,62.352943%,85.882354%);fill-opacity:1;" d="M 347.820312 140.738281 C 356.128906 142.917969 362.300781 146.503906 366.992188 153.730469 C 368.53125 156.613281 369.929688 159.257812 370.878906 162.390625 C 370.398438 163.824219 369.929688 165.246094 369.4375 166.722656 C 369.035156 165.882812 368.628906 165.042969 368.214844 164.183594 C 364.535156 156.996094 360.914062 151.886719 354.519531 146.929688 C 352.085938 145.027344 349.960938 142.960938 347.820312 140.738281 Z M 347.820312 140.738281 "/>
<path style=" stroke:none;fill-rule:nonzero;fill:rgb(34.509805%,62.352943%,85.490197%);fill-opacity:1;" d="M 228.195312 195.589844 C 229.144531 196.066406 230.09375 196.542969 231.078125 197.027344 C 225.484375 205.066406 218.828125 209.84375 209.460938 212.910156 C 206.132812 212.375 206.132812 212.375 203.695312 211.460938 C 204.859375 210.921875 206.027344 210.382812 207.222656 209.828125 C 218.894531 204.277344 218.894531 204.277344 228.195312 195.589844 Z M 228.195312 195.589844 "/>
<path style=" stroke:none;fill-rule:nonzero;fill:rgb(34.901962%,61.960787%,85.490197%);fill-opacity:1;" d="M 241.167969 191.257812 C 243.664062 191.453125 243.664062 191.453125 246.933594 192.707031 C 250.066406 196.480469 250.066406 196.480469 253.148438 201.179688 C 254.703125 203.5 254.703125 203.5 256.28125 205.859375 C 257 207.234375 257.722656 208.605469 258.464844 210.023438 C 257.988281 211.453125 257.511719 212.878906 257.023438 214.351562 C 256.070312 212.921875 255.121094 211.496094 254.144531 210.023438 C 251.164062 205.921875 248.167969 201.835938 245.167969 197.746094 C 242.609375 194.148438 242.609375 194.148438 241.167969 191.257812 Z M 241.167969 191.257812 "/>
<path style=" stroke:none;fill-rule:nonzero;fill:rgb(34.117648%,61.56863%,84.313726%);fill-opacity:1;" d="M 307.464844 114.757812 C 304.492188 116.59375 301.519531 118.425781 298.546875 120.261719 C 297.714844 120.773438 296.882812 121.289062 296.023438 121.820312 C 291.207031 124.789062 286.378906 127.730469 281.523438 130.632812 C 283.390625 125.023438 285.9375 123.75 290.710938 120.351562 C 292.117188 119.332031 293.527344 118.320312 294.976562 117.269531 C 299.917969 114.035156 301.75 112.851562 307.464844 114.757812 Z M 307.464844 114.757812 "/>
<path style=" stroke:none;fill-rule:nonzero;fill:rgb(33.333334%,60.000002%,83.137256%);fill-opacity:1;" d="M 128.746094 191.257812 C 129.152344 192.066406 129.554688 192.867188 129.96875 193.699219 C 131.101562 195.96875 132.238281 198.234375 133.390625 200.5 C 134.300781 202.3125 134.300781 202.3125 135.234375 204.15625 C 135.84375 205.363281 136.453125 206.5625 137.082031 207.804688 C 138.796875 211.382812 140.296875 214.984375 141.722656 218.6875 C 134.152344 212.152344 129.21875 204.207031 128.386719 194.058594 C 128.511719 193.132812 128.628906 192.210938 128.746094 191.257812 Z M 128.746094 191.257812 "/>
<path style=" stroke:none;fill-rule:nonzero;fill:rgb(36.470589%,63.921571%,87.058824%);fill-opacity:1;" d="M 886.847656 192.707031 C 888.277344 193.652344 889.699219 194.609375 891.171875 195.589844 C 891.839844 200.640625 891.441406 203.636719 889.371094 208.308594 C 886.847656 211.460938 886.847656 211.460938 883.699219 212.644531 C 882.832031 212.730469 881.96875 212.816406 881.085938 212.910156 C 882.035156 211.988281 882.988281 211.070312 883.964844 210.109375 C 887.832031 204.183594 887.382812 199.582031 886.847656 192.707031 Z M 886.847656 192.707031 "/>
<path style=" stroke:none;fill-rule:nonzero;fill:rgb(41.176471%,67.058825%,89.411765%);fill-opacity:1;" d="M 287.289062 231.675781 C 288.234375 232.625 289.195312 233.578125 290.171875 234.5625 C 289.21875 234.5625 288.269531 234.5625 287.289062 234.5625 C 287.289062 233.609375 287.289062 232.660156 287.289062 231.675781 Z M 287.289062 231.675781 "/>
<path style=" stroke:none;fill-rule:nonzero;fill:rgb(42.352942%,68.235296%,89.803922%);fill-opacity:1;" d="M 774.429688 142.179688 C 778.757812 143.625 778.757812 143.625 778.757812 143.625 Z M 774.429688 142.179688 "/>
<path style=" stroke:none;fill-rule:nonzero;fill:rgb(41.960785%,66.666669%,87.450981%);fill-opacity:1;" d="M 327.640625 246.109375 C 330.523438 247.554688 330.523438 247.554688 330.523438 247.554688 Z M 327.640625 246.109375 "/>
<path style=" stroke:none;fill-rule:nonzero;fill:rgb(42.352942%,67.058825%,87.450981%);fill-opacity:1;" d="M 189.285156 246.109375 C 192.167969 247.554688 192.167969 247.554688 192.167969 247.554688 Z M 189.285156 246.109375 "/>
<path style=" stroke:none;fill-rule:nonzero;fill:rgb(42.352942%,67.058825%,87.450981%);fill-opacity:1;" d="M 623.101562 244.664062 C 625.980469 246.109375 625.980469 246.109375 625.980469 246.109375 Z M 623.101562 244.664062 "/>
<path style=" stroke:none;fill-rule:nonzero;fill:rgb(42.745098%,66.274512%,86.274511%);fill-opacity:1;" d="M 104.246094 244.664062 C 107.128906 246.109375 107.128906 246.109375 107.128906 246.109375 Z M 104.246094 244.664062 "/>
<path style=" stroke:none;fill-rule:nonzero;fill:rgb(41.568628%,67.450982%,88.627452%);fill-opacity:1;" d="M 297.371094 238.898438 C 300.257812 240.335938 300.257812 240.335938 300.257812 240.335938 Z M 297.371094 238.898438 "/>
<path style=" stroke:none;fill-rule:nonzero;fill:rgb(41.568628%,67.450982%,90.196079%);fill-opacity:1;" d="M 565.449219 182.59375 C 568.332031 184.039062 568.332031 184.039062 568.332031 184.039062 Z M 565.449219 182.59375 "/>
<path style=" stroke:none;fill-rule:nonzero;fill:rgb(41.960785%,68.627453%,91.37255%);fill-opacity:1;" d="M 497.707031 143.625 C 500.589844 145.066406 500.589844 145.066406 500.589844 145.066406 Z M 497.707031 143.625 "/>
<path style=" stroke:none;fill-rule:nonzero;fill:rgb(42.745098%,69.803923%,89.803922%);fill-opacity:1;" d="M 600.035156 113.3125 C 602.921875 114.757812 602.921875 114.757812 602.921875 114.757812 Z M 600.035156 113.3125 "/>
<path style=" stroke:none;fill-rule:nonzero;fill:rgb(42.352942%,68.235296%,89.019608%);fill-opacity:1;" d="M 944.496094 88.773438 C 947.382812 90.21875 947.382812 90.21875 947.382812 90.21875 Z M 944.496094 88.773438 "/>
</g>
</svg>
