<?xml version="1.0" encoding="UTF-8"?>
<svg xmlns="http://www.w3.org/2000/svg" xmlns:xlink="http://www.w3.org/1999/xlink" width="738px" height="221px" viewBox="0 0 554 166" version="1.1">
<g id="surface1">
<path style=" stroke:none;fill-rule:nonzero;fill:rgb(36.862746%,66.666669%,91.764706%);fill-opacity:1;" d="M 128.449219 65.210938 C 133.277344 69.929688 136.992188 75.335938 140.535156 81.054688 C 141.960938 83.296875 143.515625 85.390625 145.132812 87.492188 C 146.410156 89.1875 147.609375 90.925781 148.8125 92.671875 C 155.933594 103.367188 155.933594 103.367188 166.734375 109.621094 C 172.539062 110.59375 178.839844 110.253906 184.003906 107.25 C 188.800781 103.726562 191.15625 99.382812 192.070312 93.519531 C 192.25 88.539062 191.230469 84.078125 188.316406 79.996094 C 183.957031 75.335938 179.546875 73.679688 173.234375 73.21875 C 168 73.261719 163.339844 74.90625 159.480469 78.476562 C 157.4375 81.082031 156.214844 84.082031 154.953125 87.125 C 153.785156 89.011719 153.785156 89.011719 151.773438 89.652344 C 151.199219 89.6875 150.625 89.726562 150.03125 89.761719 C 149.566406 89.171875 149.101562 88.585938 148.625 87.976562 C 147.105469 86.03125 147.105469 86.03125 145.527344 84.503906 C 144.777344 83.171875 144.027344 81.839844 143.292969 80.5 C 142.546875 79.148438 142.546875 79.148438 141.164062 78.027344 C 140.722656 77.515625 140.722656 77.515625 140.273438 76.992188 C 140.789062 71.492188 145.003906 67.511719 148.972656 64.007812 C 158.167969 56.945312 167.972656 55.175781 179.308594 55.960938 C 189.226562 57.527344 197.734375 62.574219 203.945312 70.46875 C 209.5625 79.054688 211.441406 89.175781 209.589844 99.207031 C 208.089844 105.214844 205.824219 109.832031 201.828125 114.550781 C 201.417969 115.035156 201.007812 115.519531 200.585938 116.019531 C 195.125 121.933594 188.578125 124.90625 180.808594 126.566406 C 180.082031 126.738281 179.355469 126.910156 178.605469 127.082031 C 167.441406 128.222656 157.445312 125.941406 148.320312 119.316406 C 140.609375 113.003906 135.242188 104.210938 129.632812 96.078125 C 120.902344 82.519531 120.902344 82.519531 107.910156 74.066406 C 100.75 72.996094 95.207031 73.15625 89.070312 77.273438 C 85.527344 80.488281 83.597656 85.074219 83.042969 89.769531 C 82.851562 95.152344 84.011719 99.980469 87.601562 104.121094 C 92.765625 108.894531 97.660156 109.679688 104.578125 109.578125 C 110.484375 108.941406 114.59375 106.058594 118.503906 101.78125 C 119 101.78125 119.492188 101.78125 120.003906 101.78125 C 120.5 100.789062 120.996094 99.796875 121.503906 98.777344 C 123.871094 98.460938 123.871094 98.460938 126.761719 98.777344 C 128.535156 100.191406 129.691406 101.917969 130.9375 103.796875 C 131.28125 104.269531 131.628906 104.738281 131.988281 105.222656 C 132.957031 106.625 132.957031 106.625 134.265625 109.292969 C 133.332031 114.257812 128.65625 117.683594 124.757812 120.503906 C 113.8125 127.390625 102.921875 128.527344 90.492188 125.84375 C 81.8125 123.398438 74.714844 117.960938 69.945312 110.339844 C 65.207031 101.699219 63.667969 92.144531 66.097656 82.484375 C 69.335938 72.171875 75.003906 64.4375 84.652344 59.269531 C 99.867188 52.351562 115.324219 55.867188 128.449219 65.210938 Z M 128.449219 65.210938 "/>
<path style=" stroke:none;fill-rule:nonzero;fill:rgb(36.862746%,66.666669%,91.37255%);fill-opacity:1;" d="M 276.546875 62.746094 C 283.808594 68.539062 288.597656 76.625 290.222656 85.832031 C 291.351562 96.0625 289.183594 106.046875 282.867188 114.300781 C 279.609375 118.101562 276.25 121.460938 271.640625 123.5625 C 271.144531 123.5625 270.648438 123.5625 270.140625 123.5625 C 269.890625 124.058594 269.644531 124.554688 269.390625 125.066406 C 258.4375 128.160156 249.195312 128.03125 239.140625 122.507812 C 237.109375 121.308594 237.109375 121.308594 236.359375 120.558594 C 236.347656 121.425781 236.335938 122.292969 236.324219 123.1875 C 236.28125 126.414062 236.222656 129.640625 236.164062 132.867188 C 236.136719 134.261719 236.117188 135.65625 236.097656 137.054688 C 236.074219 139.0625 236.035156 141.070312 235.992188 143.078125 C 235.984375 144.007812 235.984375 144.007812 235.976562 144.960938 C 235.871094 149.222656 235.039062 151.730469 232.136719 154.96875 C 229.324219 156.375 226.671875 156.445312 223.597656 155.863281 C 221.292969 154.570312 219.542969 153 218.34375 150.605469 C 217.257812 144.222656 217.46875 137.679688 217.464844 131.226562 C 217.464844 130.082031 217.460938 128.941406 217.457031 127.796875 C 217.453125 125.410156 217.453125 123.023438 217.453125 120.640625 C 217.453125 117.609375 217.441406 114.582031 217.429688 111.554688 C 217.421875 109.195312 217.421875 106.835938 217.421875 104.476562 C 217.417969 103.363281 217.417969 102.246094 217.410156 101.132812 C 217.320312 82.300781 217.320312 82.300781 221.582031 74.363281 C 222.226562 73.121094 222.226562 73.121094 222.886719 71.851562 C 228.199219 63.242188 235.9375 58.667969 245.636719 56.273438 C 256.578125 54.542969 267.371094 56.371094 276.546875 62.746094 Z M 239.363281 78.496094 C 234.671875 84.125 234.992188 91.058594 235.609375 98.023438 C 236.757812 102.792969 239.917969 105.808594 243.867188 108.539062 C 248.683594 111.277344 255.011719 111.289062 260.257812 109.878906 C 265.007812 108.164062 268.4375 105.714844 270.910156 101.253906 C 273.253906 95.710938 273.835938 90.160156 271.640625 84.503906 C 268.957031 79.03125 265.355469 75.507812 259.628906 73.238281 C 251.714844 71.589844 245.269531 72.835938 239.363281 78.496094 Z M 239.363281 78.496094 "/>
<path style=" stroke:none;fill-rule:nonzero;fill:rgb(36.862746%,66.666669%,91.37255%);fill-opacity:1;" d="M 351.070312 61.640625 C 359.386719 68.203125 363.445312 76.636719 364.679688 87.039062 C 364.84375 90.566406 364.933594 93.027344 362.472656 95.769531 C 356.878906 98.339844 351.230469 98.277344 345.203125 98.082031 C 344.296875 98.058594 343.390625 98.039062 342.457031 98.019531 C 339.589844 97.953125 336.722656 97.871094 333.851562 97.789062 C 331.898438 97.742188 329.945312 97.695312 327.988281 97.648438 C 323.21875 97.539062 318.449219 97.410156 313.679688 97.273438 C 314.894531 101.757812 315.75 104.679688 319.757812 107.324219 C 326.335938 110.976562 332.769531 111.433594 340.078125 109.957031 C 342.539062 109.1875 344.632812 108.082031 346.898438 106.851562 C 351.5625 104.382812 351.5625 104.382812 354.214844 104.972656 C 357.007812 106.601562 358.132812 107.839844 359.46875 110.792969 C 359.527344 114.023438 359.160156 115.507812 357.125 118.023438 C 350.421875 123.5625 350.421875 123.5625 348.210938 123.5625 C 347.960938 124.058594 347.714844 124.554688 347.460938 125.066406 C 345.605469 125.527344 343.800781 125.910156 341.921875 126.238281 C 337.890625 126.964844 337.890625 126.964844 333.949219 128.070312 C 322.671875 127.125 312.492188 124.21875 304.59375 115.597656 C 297.535156 106.6875 294.9375 97.972656 295.664062 86.757812 C 296.863281 78.050781 300.902344 69.253906 307.8125 63.640625 C 320.597656 54.183594 337.558594 52.59375 351.070312 61.640625 Z M 316.304688 76.570312 C 314.773438 78.601562 313.535156 80.5 312.929688 83 C 313.148438 84.011719 313.394531 85.015625 313.679688 86.007812 C 317.136719 86.023438 320.589844 86.039062 324.046875 86.046875 C 325.21875 86.050781 326.390625 86.054688 327.5625 86.0625 C 334.738281 86.101562 341.808594 85.953125 348.960938 85.253906 C 346.839844 78.679688 344.105469 74.65625 337.886719 71.40625 C 330.070312 70.050781 321.941406 70.332031 316.304688 76.570312 Z M 316.304688 76.570312 "/>
<path style=" stroke:none;fill-rule:nonzero;fill:rgb(36.862746%,66.666669%,91.37255%);fill-opacity:1;" d="M 473.480469 62.675781 C 475.304688 64.445312 476 65.503906 476.574219 67.980469 C 476.363281 71.019531 476.03125 73.675781 474.324219 76.242188 C 472.070312 77.742188 472.070312 77.742188 470.273438 77.578125 C 468.261719 76.976562 466.632812 76.183594 464.800781 75.160156 C 458.105469 71.738281 449.773438 70.277344 442.390625 72.242188 C 441 72.761719 439.640625 73.367188 438.292969 73.988281 C 438.042969 75.722656 437.796875 77.457031 437.539062 79.246094 C 442.699219 81.117188 448.164062 83.039062 453.710938 82.980469 C 456.792969 83.015625 459.4375 84.222656 462.3125 85.253906 C 463.003906 85.472656 463.691406 85.691406 464.402344 85.914062 C 469.96875 87.746094 473.753906 89.929688 477.234375 94.691406 C 479.308594 101.039062 479.53125 107.234375 476.886719 113.417969 C 472.855469 120.5625 466.140625 123.898438 458.464844 126.050781 C 446.535156 128.28125 434.292969 126.355469 424.027344 119.808594 C 421.394531 117.652344 419.265625 115.550781 418.328125 112.210938 C 418.101562 109.210938 418.699219 107.878906 420.605469 105.582031 C 421.238281 105.070312 421.875 104.558594 422.527344 104.035156 C 422.898438 103.660156 422.898438 103.660156 423.277344 103.28125 C 425.765625 102.925781 427.699219 102.710938 429.847656 104.183594 C 430.296875 104.566406 430.746094 104.953125 431.207031 105.347656 C 436.722656 109.859375 444.386719 111.324219 451.394531 111.042969 C 455.144531 110.554688 458.839844 109.761719 461.5625 107.039062 C 462 104.441406 462 104.441406 461.5625 101.78125 C 458.914062 99.765625 456.308594 99.019531 453.089844 98.320312 C 452.195312 98.125 451.304688 97.929688 450.382812 97.726562 C 449.460938 97.53125 448.535156 97.335938 447.582031 97.132812 C 446.648438 96.925781 445.71875 96.722656 444.761719 96.511719 C 440.066406 95.421875 440.066406 95.421875 435.289062 95.019531 C 435.289062 94.523438 435.289062 94.027344 435.289062 93.519531 C 434.667969 93.472656 434.050781 93.425781 433.414062 93.375 C 428.9375 92.335938 425.769531 90.285156 422.949219 86.664062 C 420.234375 81.660156 420.085938 75.8125 421.628906 70.359375 C 424.136719 64.742188 428.105469 61.257812 433.675781 58.753906 C 446.835938 53.785156 461.699219 54.730469 473.480469 62.675781 Z M 473.480469 62.675781 "/>
<path style=" stroke:none;fill-rule:nonzero;fill:rgb(36.862746%,67.058825%,92.156863%);fill-opacity:1;" d="M 39.683594 27.417969 C 42.226562 30.632812 42.253906 33.6875 42.222656 37.628906 C 42.226562 38.269531 42.230469 38.914062 42.234375 39.574219 C 42.242188 40.964844 42.246094 42.355469 42.242188 43.746094 C 42.238281 45.949219 42.25 48.152344 42.261719 50.359375 C 42.289062 55.042969 42.300781 59.726562 42.308594 64.410156 C 42.316406 69.832031 42.335938 75.25 42.371094 80.671875 C 42.378906 82.835938 42.375 85 42.371094 87.164062 C 42.378906 88.5 42.386719 89.839844 42.394531 91.179688 C 42.390625 91.773438 42.386719 92.371094 42.382812 92.984375 C 42.4375 98.15625 43.476562 102.800781 46.574219 107.011719 C 49.285156 108.972656 51.519531 109.328125 54.789062 109.714844 C 60.269531 110.382812 60.269531 110.382812 62.152344 112.183594 C 63.636719 115.179688 64.230469 118.113281 63.234375 121.3125 C 62.058594 123.660156 61.054688 124.910156 58.644531 125.964844 C 51.523438 127.71875 44.855469 126.03125 38.59375 122.503906 C 32.394531 118.636719 28.519531 113.433594 25.886719 106.617188 C 24.40625 98.453125 24.53125 90.25 24.515625 81.980469 C 24.511719 81.289062 24.511719 80.597656 24.507812 79.882812 C 24.5 76.230469 24.492188 72.578125 24.488281 68.925781 C 24.484375 65.160156 24.464844 61.394531 24.445312 57.628906 C 24.429688 54.722656 24.425781 51.816406 24.425781 48.910156 C 24.421875 47.523438 24.417969 46.136719 24.40625 44.746094 C 24.394531 42.808594 24.394531 40.867188 24.402344 38.929688 C 24.394531 38.359375 24.386719 37.792969 24.378906 37.203125 C 24.414062 33.007812 25.285156 29.863281 28.234375 26.808594 C 32.441406 24.585938 35.78125 24.757812 39.683594 27.417969 Z M 39.683594 27.417969 "/>
<path style=" stroke:none;fill-rule:nonzero;fill:rgb(37.254903%,67.058825%,92.156863%);fill-opacity:1;" d="M 412.640625 58.910156 C 414.832031 61.007812 415.160156 62.214844 415.253906 65.164062 C 415.214844 68.628906 414.378906 70.613281 412.019531 73.238281 C 408.742188 74.480469 405.164062 73.96875 401.726562 73.867188 C 397.328125 74.082031 394.160156 75.421875 391 78.496094 C 390.210938 80.769531 390.15625 82.902344 390.152344 85.296875 C 390.152344 86.050781 390.148438 86.808594 390.144531 87.585938 C 390.144531 88.394531 390.144531 89.207031 390.144531 90.039062 C 390.128906 91.757812 390.113281 93.476562 390.097656 95.199219 C 390.078125 97.90625 390.058594 100.613281 390.058594 103.320312 C 390.058594 105.9375 390.03125 108.550781 390 111.167969 C 390.007812 111.976562 390.011719 112.785156 390.019531 113.617188 C 389.925781 119.242188 389.925781 119.242188 387.695312 122.1875 C 384.800781 124.226562 382.472656 124.511719 378.988281 124.3125 C 375.855469 123.386719 374.832031 122.691406 373.25 119.824219 C 371.832031 116.277344 371.921875 112.796875 371.960938 109.019531 C 371.957031 108.28125 371.957031 107.542969 371.957031 106.78125 C 371.960938 105.21875 371.96875 103.660156 371.980469 102.097656 C 371.996094 99.730469 371.996094 97.367188 371.988281 95.003906 C 371.996094 93.476562 372 91.953125 372.007812 90.429688 C 372.003906 89.734375 372.003906 89.039062 372.003906 88.320312 C 372.097656 79.488281 373.367188 72.789062 379.175781 66.007812 C 387.261719 59.019531 402.480469 51.996094 412.640625 58.910156 Z M 412.640625 58.910156 "/>
<path style=" stroke:none;fill-rule:nonzero;fill:rgb(37.254903%,67.058825%,92.156863%);fill-opacity:1;" d="M 533.628906 32.675781 C 535.546875 34.117188 536.453125 35.253906 537.382812 37.464844 C 537.382812 40.910156 535.421875 42.878906 533.128906 45.214844 C 526.894531 50.949219 516.25 59.003906 507.550781 59.9375 C 504.980469 59.605469 503.832031 58.597656 502.097656 56.710938 C 501.628906 54.503906 501.628906 54.503906 502.097656 52.207031 C 504.863281 48.996094 507.980469 47.003906 511.578125 44.882812 C 516.199219 42.085938 520.3125 39.121094 524.371094 35.539062 C 527.199219 33.339844 530.027344 32.121094 533.628906 32.675781 Z M 533.628906 32.675781 "/>
<path style=" stroke:none;fill-rule:nonzero;fill:rgb(37.64706%,67.450982%,92.156863%);fill-opacity:1;" d="M 500.597656 13.898438 C 502.378906 14.789062 502.378906 14.789062 503.601562 16.152344 C 505.546875 22.90625 501.816406 29.929688 499.144531 36.054688 C 498.890625 36.640625 498.640625 37.222656 498.378906 37.824219 C 497.011719 40.859375 495.792969 43.371094 493.089844 45.445312 C 489.847656 45.976562 488.378906 45.785156 485.585938 44.035156 C 483.742188 41.15625 483.730469 39.847656 484.246094 36.542969 C 485.816406 30.21875 488.074219 24.023438 490.800781 18.105469 C 491.023438 17.621094 491.246094 17.136719 491.472656 16.640625 C 493.699219 13.457031 497.011719 13.578125 500.597656 13.898438 Z M 500.597656 13.898438 "/>
<path style=" stroke:none;fill-rule:nonzero;fill:rgb(37.254903%,66.666669%,91.37255%);fill-opacity:1;" d="M 538.882812 64.222656 C 540.773438 66.203125 541.113281 67.023438 541.414062 69.808594 C 541.121094 72.617188 540.582031 74.019531 538.882812 76.242188 C 533.941406 78.710938 527.222656 76.753906 522.085938 75.632812 C 521.214844 75.445312 521.214844 75.445312 520.328125 75.253906 C 517.171875 74.527344 514.457031 73.769531 511.859375 71.734375 C 511.105469 69.105469 511.105469 69.105469 511.105469 66.476562 C 513.121094 63.773438 515.488281 63.53125 518.65625 62.980469 C 525.121094 62.21875 532.691406 61.933594 538.882812 64.222656 Z M 538.882812 64.222656 "/>
<path style=" stroke:none;fill-rule:nonzero;fill:rgb(34.509805%,60.392159%,82.352942%);fill-opacity:1;" d="M 39.683594 27.417969 C 42.378906 30.777344 42.242188 33.828125 42.191406 37.945312 C 42.191406 38.957031 42.191406 38.957031 42.191406 39.988281 C 42.1875 42.210938 42.171875 44.433594 42.152344 46.65625 C 42.148438 48.199219 42.144531 49.746094 42.144531 51.289062 C 42.136719 55.347656 42.113281 59.40625 42.089844 63.464844 C 42.066406 67.609375 42.054688 71.753906 42.042969 75.898438 C 42.019531 84.023438 41.980469 92.152344 41.933594 100.277344 C 41.6875 100.277344 41.4375 100.277344 41.183594 100.277344 C 41.175781 99.035156 41.175781 99.035156 41.164062 97.765625 C 41.105469 89.953125 41.039062 82.136719 40.96875 74.324219 C 40.929688 70.304688 40.894531 66.289062 40.867188 62.273438 C 40.839844 58.394531 40.804688 54.519531 40.765625 50.640625 C 40.75 49.164062 40.738281 47.683594 40.730469 46.203125 C 40.71875 44.132812 40.695312 42.0625 40.671875 39.988281 C 40.671875 39.378906 40.667969 38.765625 40.667969 38.136719 C 40.609375 34.25 40.386719 31.179688 37.617188 28.308594 C 35.363281 27.121094 33.945312 27.109375 31.425781 27.417969 C 28.636719 28.742188 28.636719 28.742188 26.921875 31.171875 C 26.839844 33.355469 26.800781 35.523438 26.800781 37.707031 C 26.796875 38.382812 26.792969 39.058594 26.789062 39.757812 C 26.777344 42.003906 26.773438 44.253906 26.769531 46.5 C 26.761719 48.0625 26.757812 49.628906 26.753906 51.191406 C 26.746094 54.472656 26.742188 57.757812 26.738281 61.039062 C 26.734375 65.234375 26.71875 69.429688 26.695312 73.625 C 26.683594 76.855469 26.679688 80.085938 26.675781 83.320312 C 26.675781 84.867188 26.667969 86.410156 26.660156 87.957031 C 26.644531 90.128906 26.648438 92.296875 26.652344 94.46875 C 26.644531 95.101562 26.640625 95.730469 26.632812 96.382812 C 26.671875 102.101562 27.914062 107.359375 30.859375 112.296875 C 31.292969 113.039062 31.726562 113.78125 32.175781 114.550781 C 31.804688 115.292969 31.804688 115.292969 31.425781 116.050781 C 23.820312 105.5 24.542969 94.480469 24.515625 81.980469 C 24.511719 81.289062 24.511719 80.597656 24.507812 79.882812 C 24.5 76.230469 24.492188 72.578125 24.488281 68.925781 C 24.484375 65.160156 24.464844 61.394531 24.445312 57.628906 C 24.429688 54.722656 24.425781 51.816406 24.425781 48.910156 C 24.421875 47.523438 24.417969 46.136719 24.40625 44.746094 C 24.394531 42.808594 24.394531 40.867188 24.402344 38.929688 C 24.394531 38.359375 24.386719 37.792969 24.378906 37.203125 C 24.414062 33.007812 25.285156 29.863281 28.234375 26.808594 C 32.441406 24.585938 35.78125 24.757812 39.683594 27.417969 Z M 39.683594 27.417969 "/>
<path style=" stroke:none;fill-rule:nonzero;fill:rgb(32.549021%,60.000002%,83.529413%);fill-opacity:1;" d="M 372.984375 79.246094 C 373.230469 79.246094 373.476562 79.246094 373.734375 79.246094 C 373.734375 79.738281 373.734375 80.230469 373.738281 80.738281 C 373.75 85.855469 373.792969 90.972656 373.847656 96.089844 C 373.863281 98 373.875 99.910156 373.878906 101.820312 C 373.886719 104.566406 373.917969 107.308594 373.953125 110.054688 C 373.949219 110.910156 373.949219 111.765625 373.945312 112.644531 C 373.917969 117.296875 373.917969 117.296875 376.296875 121.101562 C 379.644531 122.757812 382.394531 122.296875 386.074219 121.824219 C 386.652344 121.570312 386.652344 121.570312 387.246094 121.308594 C 387.980469 119.097656 388.109375 117.589844 388.148438 115.285156 C 388.164062 114.515625 388.179688 113.75 388.195312 112.960938 C 388.207031 112.132812 388.222656 111.308594 388.234375 110.457031 C 388.25 109.609375 388.265625 108.761719 388.28125 107.890625 C 388.328125 105.179688 388.375 102.472656 388.417969 99.761719 C 388.449219 97.925781 388.484375 96.089844 388.515625 94.253906 C 388.597656 89.753906 388.671875 85.25 388.746094 80.75 C 388.996094 80.75 389.242188 80.75 389.496094 80.75 C 389.59375 86.242188 389.660156 91.734375 389.703125 97.230469 C 389.722656 99.097656 389.75 100.96875 389.78125 102.835938 C 389.828125 105.523438 389.847656 108.210938 389.863281 110.894531 C 389.882812 111.730469 389.902344 112.566406 389.921875 113.425781 C 389.925781 119.238281 389.925781 119.238281 387.703125 122.203125 C 384.800781 124.21875 382.46875 124.511719 378.988281 124.3125 C 375.863281 123.386719 374.835938 122.691406 373.25 119.835938 C 371.808594 116.230469 371.9375 112.667969 371.984375 108.835938 C 371.988281 108.085938 371.988281 107.332031 371.988281 106.558594 C 371.996094 104.972656 372.003906 103.390625 372.019531 101.808594 C 372.042969 99.386719 372.050781 96.964844 372.054688 94.539062 C 372.0625 93 372.070312 91.457031 372.078125 89.917969 C 372.082031 89.195312 372.085938 88.46875 372.089844 87.722656 C 372.097656 87.050781 372.101562 86.375 372.109375 85.679688 C 372.117188 85.089844 372.121094 84.496094 372.125 83.886719 C 372.230469 82.257812 372.535156 80.816406 372.984375 79.246094 Z M 372.984375 79.246094 "/>
<path style=" stroke:none;fill-rule:nonzero;fill:rgb(35.294119%,62.7451%,85.882354%);fill-opacity:1;" d="M 111.996094 73.640625 C 117.070312 76.421875 120.539062 80.570312 123.945312 85.160156 C 124.359375 85.710938 124.773438 86.257812 125.199219 86.824219 C 129.398438 92.4375 133.363281 98.210938 137.269531 104.035156 C 136.898438 104.777344 136.898438 104.777344 136.519531 105.535156 C 135.640625 104.339844 134.765625 103.144531 133.886719 101.949219 C 133.132812 100.921875 132.378906 99.890625 131.621094 98.863281 C 129.9375 96.566406 128.261719 94.269531 126.613281 91.945312 C 118.066406 79.824219 118.066406 79.824219 105.1875 73.546875 C 99.367188 72.808594 93.78125 73.996094 88.945312 77.363281 C 86.925781 79.238281 85.890625 81.269531 84.722656 83.753906 C 84.226562 83.753906 83.730469 83.753906 83.222656 83.753906 C 85.078125 78.328125 87.960938 75.875 92.890625 73.25 C 99.070312 70.285156 105.765625 71.378906 111.996094 73.640625 Z M 111.996094 73.640625 "/>
<path style=" stroke:none;fill-rule:nonzero;fill:rgb(35.294119%,61.56863%,83.529413%);fill-opacity:1;" d="M 533.628906 32.675781 C 535.546875 34.117188 536.453125 35.253906 537.382812 37.464844 C 537.382812 41.035156 535.042969 43.242188 532.6875 45.726562 C 532.253906 46.128906 531.820312 46.53125 531.375 46.949219 C 530.878906 46.699219 530.382812 46.453125 529.875 46.195312 C 530.601562 45.5625 531.328125 44.925781 532.078125 44.273438 C 534.003906 42.355469 534.390625 41.640625 535.128906 38.871094 C 535.128906 38.066406 535.128906 37.261719 535.128906 36.433594 C 533.667969 34.621094 533.667969 34.621094 530.96875 34.898438 C 526.75 35.554688 523.898438 38.0625 520.632812 40.65625 C 519.378906 41.617188 518.121094 42.574219 516.867188 43.53125 C 516.265625 43.992188 515.664062 44.453125 515.046875 44.925781 C 506.367188 51.453125 506.367188 51.453125 503.601562 51.453125 C 503.539062 53.742188 503.617188 55.265625 504.351562 57.464844 C 506.828125 57.464844 509.304688 57.464844 511.859375 57.464844 C 509.605469 59.714844 509.605469 59.714844 507.824219 60.046875 C 505.128906 59.597656 503.941406 58.714844 502.097656 56.710938 C 501.628906 54.503906 501.628906 54.503906 502.097656 52.207031 C 504.863281 48.996094 507.980469 47.003906 511.578125 44.882812 C 516.199219 42.085938 520.3125 39.121094 524.371094 35.539062 C 527.199219 33.339844 530.027344 32.121094 533.628906 32.675781 Z M 533.628906 32.675781 "/>
<path style=" stroke:none;fill-rule:nonzero;fill:rgb(34.901962%,61.960787%,84.705883%);fill-opacity:1;" d="M 458.558594 57.464844 C 465.042969 57.761719 470.339844 59.625 475.074219 64.222656 C 476.9375 67.359375 476.589844 69.738281 475.824219 73.238281 C 474.871094 75.761719 474.417969 76.179688 472.070312 77.742188 C 469.277344 77.484375 467.226562 76.515625 464.800781 75.160156 C 457.824219 71.59375 450.515625 71.40625 442.796875 70.984375 C 442.796875 70.734375 442.796875 70.488281 442.796875 70.234375 C 452.546875 69.769531 459.699219 70.21875 468.480469 74.867188 C 469.816406 75.617188 469.816406 75.617188 471.414062 75.398438 C 472.898438 74.835938 472.898438 74.835938 473.761719 73.519531 C 474.582031 70.914062 474.746094 69.199219 474.324219 66.476562 C 471.582031 62.761719 467.535156 61.128906 463.3125 59.609375 C 461.65625 59 460.121094 58.28125 458.558594 57.464844 Z M 458.558594 57.464844 "/>
<path style=" stroke:none;fill-rule:nonzero;fill:rgb(36.470589%,62.352943%,85.09804%);fill-opacity:1;" d="M 361.722656 95.769531 C 356.371094 98.035156 351.6875 98.28125 345.933594 98.082031 C 344.671875 98.050781 344.671875 98.050781 343.386719 98.019531 C 340.722656 97.953125 338.0625 97.871094 335.402344 97.789062 C 333.589844 97.742188 331.773438 97.695312 329.960938 97.648438 C 325.535156 97.539062 321.109375 97.410156 316.683594 97.273438 C 316.433594 96.777344 316.1875 96.28125 315.929688 95.769531 C 321.679688 95.65625 327.429688 95.542969 333.175781 95.4375 C 335.847656 95.390625 338.515625 95.339844 341.183594 95.285156 C 344.253906 95.222656 347.320312 95.167969 350.386719 95.109375 C 351.347656 95.089844 352.308594 95.070312 353.296875 95.050781 C 354.183594 95.035156 355.070312 95.019531 355.984375 95.003906 C 356.769531 94.988281 357.550781 94.972656 358.359375 94.957031 C 360.222656 95.019531 360.222656 95.019531 361.722656 95.769531 Z M 361.722656 95.769531 "/>
<path style=" stroke:none;fill-rule:nonzero;fill:rgb(34.901962%,61.960787%,85.09804%);fill-opacity:1;" d="M 276.542969 62.734375 C 281.433594 66.660156 285.089844 71.148438 287.40625 76.992188 C 287.035156 78.109375 287.035156 78.109375 286.65625 79.246094 C 286.363281 78.691406 286.074219 78.140625 285.773438 77.570312 C 281.054688 68.722656 275.949219 63.183594 266.386719 59.714844 C 265.652344 59.445312 264.914062 59.171875 264.15625 58.890625 C 260.011719 57.734375 255.683594 58.058594 251.417969 58.121094 C 250.113281 58.128906 250.113281 58.128906 248.777344 58.140625 C 246.640625 58.160156 244.503906 58.183594 242.363281 58.214844 C 250.035156 50.539062 269.347656 57.769531 276.542969 62.734375 Z M 276.542969 62.734375 "/>
<path style=" stroke:none;fill-rule:nonzero;fill:rgb(36.078432%,61.56863%,83.92157%);fill-opacity:1;" d="M 307.671875 117.554688 C 309.363281 118.390625 311.039062 119.25 312.703125 120.136719 C 322.613281 125.320312 332.863281 126.941406 343.753906 123.75 C 347.269531 122.53125 350.285156 120.964844 353.464844 119.054688 C 353.960938 119.304688 354.457031 119.550781 354.964844 119.808594 C 354.125 120.4375 353.28125 121.0625 352.433594 121.683594 C 351.960938 122.035156 351.492188 122.382812 351.007812 122.742188 C 349.710938 123.5625 349.710938 123.5625 348.210938 123.5625 C 347.960938 124.058594 347.714844 124.554688 347.460938 125.066406 C 345.605469 125.527344 343.800781 125.910156 341.921875 126.238281 C 337.890625 126.964844 337.890625 126.964844 333.949219 128.070312 C 325.21875 127.339844 317.289062 125.472656 309.925781 120.558594 C 308.515625 118.890625 308.515625 118.890625 307.671875 117.554688 Z M 307.671875 117.554688 "/>
<path style=" stroke:none;fill-rule:nonzero;fill:rgb(34.509805%,61.960787%,85.490197%);fill-opacity:1;" d="M 151.53125 98.023438 C 152.011719 98.519531 152.492188 99.015625 152.988281 99.527344 C 154.839844 101.371094 156.738281 103.160156 158.664062 104.925781 C 159.214844 105.433594 159.761719 105.9375 160.328125 106.460938 C 164.730469 109.875 170.058594 110.320312 175.464844 109.859375 C 182.046875 108.84375 185.878906 106.320312 189.816406 101.027344 C 190.066406 100.285156 190.3125 99.542969 190.566406 98.777344 C 191.0625 98.777344 191.558594 98.777344 192.070312 98.777344 C 190.53125 104.296875 187.960938 107.140625 183.0625 110.042969 C 177.742188 112.664062 170.808594 112.238281 165.082031 111.109375 C 160.035156 109.371094 156.292969 105.949219 153.035156 101.78125 C 152.097656 99.6875 152.097656 99.6875 151.53125 98.023438 Z M 151.53125 98.023438 "/>
<path style=" stroke:none;fill-rule:nonzero;fill:rgb(36.078432%,61.960787%,84.705883%);fill-opacity:1;" d="M 538.882812 64.222656 C 540.851562 66.265625 541.117188 67.042969 541.367188 69.949219 C 541.132812 72.484375 541.132812 72.484375 539.632812 73.988281 C 539.65625 72.496094 539.683594 71.003906 539.707031 69.515625 C 539.695312 67.828125 539.695312 67.828125 538.882812 65.726562 C 526.820312 64.539062 526.820312 64.539062 514.859375 65.726562 C 515.109375 64.980469 515.355469 64.238281 515.609375 63.472656 C 522.910156 62.113281 531.828125 61.617188 538.882812 64.222656 Z M 538.882812 64.222656 "/>
<path style=" stroke:none;fill-rule:nonzero;fill:rgb(35.294119%,61.960787%,83.92157%);fill-opacity:1;" d="M 487.085938 29.671875 C 487.835938 31.925781 487.835938 31.925781 487.132812 33.898438 C 486.132812 37.070312 486.203125 39.894531 486.335938 43.191406 C 488.78125 43.898438 488.78125 43.898438 491.589844 43.941406 C 495.773438 41.152344 497.238281 36.441406 499.097656 31.925781 C 499.847656 34.179688 499.847656 34.179688 499.015625 36.289062 C 498.609375 37.082031 498.203125 37.871094 497.78125 38.683594 C 497.382812 39.476562 496.984375 40.265625 496.574219 41.078125 C 495.519531 42.890625 494.742188 44.179688 493.089844 45.445312 C 489.878906 45.921875 488.355469 45.769531 485.585938 44.035156 C 483.683594 41.0625 483.859375 39.421875 484.386719 36.019531 C 484.953125 33.6875 485.847656 31.71875 487.085938 29.671875 Z M 487.085938 29.671875 "/>
<path style=" stroke:none;fill-rule:nonzero;fill:rgb(34.901962%,60.784316%,82.352942%);fill-opacity:1;" d="M 500.597656 13.898438 C 502.75 14.972656 503.40625 15.640625 504.257812 17.886719 C 504.371094 20.355469 503.75 22.132812 502.851562 24.414062 C 502.328125 22.65625 502.101562 21.28125 502.144531 19.4375 C 502.300781 17.507812 502.300781 17.507812 500.597656 16.152344 C 498.289062 15.851562 496.804688 15.671875 494.59375 16.152344 C 491.25 19.585938 490.082031 24.445312 488.585938 28.921875 C 487.640625 26.085938 488.195312 25.003906 489.148438 22.207031 C 489.539062 21.035156 489.539062 21.035156 489.9375 19.839844 C 490.789062 17.769531 491.582031 16.292969 493.089844 14.648438 C 495.765625 13.757812 497.785156 13.699219 500.597656 13.898438 Z M 500.597656 13.898438 "/>
<path style=" stroke:none;fill-rule:nonzero;fill:rgb(33.725491%,60.784316%,83.529413%);fill-opacity:1;" d="M 241.613281 58.964844 C 240.96875 59.285156 240.328125 59.601562 239.664062 59.929688 C 230.144531 64.816406 224.449219 70.574219 220.59375 80.75 C 219.773438 78.6875 219.78125 77.898438 220.625 75.800781 C 224.195312 69.519531 232.738281 56.003906 241.613281 58.964844 Z M 241.613281 58.964844 "/>
<path style=" stroke:none;fill-rule:nonzero;fill:rgb(34.901962%,61.960787%,84.705883%);fill-opacity:1;" d="M 42.683594 103.28125 C 43.027344 103.589844 43.375 103.898438 43.726562 104.214844 C 44.1875 104.621094 44.648438 105.023438 45.125 105.441406 C 45.578125 105.84375 46.03125 106.242188 46.496094 106.65625 C 50.207031 109.570312 53.847656 109.734375 58.453125 110.222656 C 60.699219 110.792969 60.699219 110.792969 62.097656 112.148438 C 63.425781 114.707031 63.464844 116.945312 63.703125 119.808594 C 63.207031 120.054688 62.710938 120.304688 62.203125 120.558594 C 61.832031 116.839844 61.832031 116.839844 61.453125 113.046875 C 60.652344 112.9375 59.855469 112.828125 59.035156 112.710938 C 47.136719 110.890625 47.136719 110.890625 43.433594 106.285156 C 42.917969 104.640625 42.917969 104.640625 42.683594 103.28125 Z M 42.683594 103.28125 "/>
<path style=" stroke:none;fill-rule:nonzero;fill:rgb(35.294119%,62.352943%,85.490197%);fill-opacity:1;" d="M 414.269531 63.472656 C 414.515625 63.472656 414.765625 63.472656 415.019531 63.472656 C 415.273438 66.636719 415.183594 68.414062 413.707031 71.265625 C 411.890625 73.382812 411.621094 73.605469 409.015625 73.988281 C 406.582031 74.011719 404.15625 73.9375 401.726562 73.867188 C 399.132812 73.996094 397.167969 74.574219 394.753906 75.492188 C 393.753906 75.753906 392.753906 76.007812 391.75 76.242188 C 394.105469 73.414062 396.414062 72.226562 400.007812 71.734375 C 402.324219 71.671875 404.621094 71.6875 406.9375 71.753906 C 409.570312 71.769531 409.570312 71.769531 412.019531 70.984375 C 412.875 69.246094 412.875 69.246094 413.332031 67.179688 C 413.511719 66.492188 413.695312 65.800781 413.882812 65.089844 C 414.011719 64.554688 414.136719 64.023438 414.269531 63.472656 Z M 414.269531 63.472656 "/>
<path style=" stroke:none;fill-rule:nonzero;fill:rgb(34.509805%,61.960787%,85.490197%);fill-opacity:1;" d="M 82.46875 97.273438 C 83.996094 98.648438 84.976562 99.929688 86.082031 101.6875 C 89.535156 106.625 93.242188 108.660156 98.984375 110.042969 C 100.992188 110.386719 102.960938 110.609375 104.992188 110.792969 C 104.992188 111.042969 104.992188 111.289062 104.992188 111.542969 C 98.410156 112.050781 93.464844 110.710938 87.867188 107.226562 C 85.148438 104.429688 82.46875 101.277344 82.46875 97.273438 Z M 82.46875 97.273438 "/>
<path style=" stroke:none;fill-rule:nonzero;fill:rgb(35.294119%,63.137257%,86.666667%);fill-opacity:1;" d="M 157.539062 78.496094 C 157.785156 78.992188 158.035156 79.488281 158.289062 79.996094 C 157.507812 82.089844 157.507812 82.089844 156.316406 84.550781 C 155.9375 85.367188 155.554688 86.179688 155.164062 87.019531 C 153.785156 89.011719 153.785156 89.011719 151.75 89.664062 C 150.898438 89.714844 150.898438 89.714844 150.03125 89.761719 C 149.566406 89.171875 149.101562 88.585938 148.625 87.976562 C 147.105469 86.03125 147.105469 86.03125 145.527344 84.503906 C 145.527344 83.761719 145.527344 83.015625 145.527344 82.25 C 146.023438 82.25 146.519531 82.25 147.027344 82.25 C 147.027344 82.996094 147.027344 83.738281 147.027344 84.503906 C 147.523438 84.503906 148.019531 84.503906 148.53125 84.503906 C 148.714844 84.984375 148.902344 85.464844 149.09375 85.960938 C 149.882812 87.652344 149.882812 87.652344 151.589844 87.980469 C 152.066406 88.074219 152.542969 88.164062 153.035156 88.257812 C 153.171875 87.804688 153.308594 87.351562 153.449219 86.886719 C 155.320312 80.925781 155.320312 80.925781 157.539062 78.496094 Z M 157.539062 78.496094 "/>
<path style=" stroke:none;fill-rule:nonzero;fill:rgb(34.509805%,61.56863%,84.705883%);fill-opacity:1;" d="M 196.574219 64.222656 C 201.609375 66.410156 205.03125 71.289062 207.300781 76.167969 C 208.222656 78.890625 208.453125 81.648438 208.585938 84.503906 C 207.527344 82.4375 206.582031 80.347656 205.675781 78.214844 C 203.761719 73.886719 200.953125 67.917969 196.574219 65.726562 C 196.574219 65.230469 196.574219 64.734375 196.574219 64.222656 Z M 196.574219 64.222656 "/>
<path style=" stroke:none;fill-rule:nonzero;fill:rgb(34.509805%,60.784316%,82.745099%);fill-opacity:1;" d="M 372.984375 116.800781 C 373.429688 117.390625 373.878906 117.980469 374.34375 118.585938 C 375.917969 120.667969 375.917969 120.667969 378.238281 122.0625 C 382.832031 122.367188 382.832031 122.367188 387.246094 121.308594 C 387.492188 120.566406 387.742188 119.820312 387.996094 119.054688 C 388.492188 119.304688 388.988281 119.550781 389.496094 119.808594 C 387.375 122.476562 385.761719 123.820312 382.414062 124.3125 C 379.222656 124.503906 377.164062 123.890625 374.484375 122.0625 C 372.984375 119.808594 372.984375 119.808594 372.984375 116.800781 Z M 372.984375 116.800781 "/>
<path style=" stroke:none;fill-rule:nonzero;fill:rgb(34.117648%,61.56863%,84.705883%);fill-opacity:1;" d="M 89.976562 58.964844 C 89.34375 59.285156 88.707031 59.601562 88.054688 59.929688 C 82.894531 62.601562 78.363281 65.355469 74.214844 69.480469 C 74.214844 67.226562 74.214844 67.226562 75.289062 65.988281 C 85.367188 57.304688 85.367188 57.304688 89.976562 58.964844 Z M 89.976562 58.964844 "/>
<path style=" stroke:none;fill-rule:nonzero;fill:rgb(33.725491%,60.784316%,83.529413%);fill-opacity:1;" d="M 389.707031 59.96875 C 390.132812 60.132812 390.558594 60.296875 391 60.46875 C 390.289062 60.769531 390.289062 60.769531 389.566406 61.078125 C 383.113281 64.035156 377.925781 68.003906 375.234375 74.738281 C 374.988281 73.996094 374.738281 73.253906 374.484375 72.484375 C 377.011719 68.007812 383.777344 59.09375 389.707031 59.96875 Z M 389.707031 59.96875 "/>
<path style=" stroke:none;fill-rule:nonzero;fill:rgb(35.294119%,62.352943%,85.882354%);fill-opacity:1;" d="M 180.808594 73.238281 C 185.136719 74.371094 188.351562 76.238281 190.792969 79.996094 C 191.597656 81.5 192.324219 82.875 192.820312 84.503906 C 192.570312 85.246094 192.324219 85.992188 192.070312 86.757812 C 191.859375 86.320312 191.648438 85.886719 191.433594 85.4375 C 189.515625 81.695312 187.628906 79.039062 184.296875 76.457031 C 183.03125 75.46875 181.925781 74.394531 180.808594 73.238281 Z M 180.808594 73.238281 "/>
<path style=" stroke:none;fill-rule:nonzero;fill:rgb(34.509805%,62.352943%,85.490197%);fill-opacity:1;" d="M 118.503906 101.78125 C 119 102.027344 119.492188 102.277344 120.003906 102.53125 C 117.089844 106.710938 113.625 109.199219 108.742188 110.792969 C 107.011719 110.515625 107.011719 110.515625 105.742188 110.042969 C 106.347656 109.761719 106.953125 109.480469 107.578125 109.1875 C 113.65625 106.300781 113.65625 106.300781 118.503906 101.78125 Z M 118.503906 101.78125 "/>
<path style=" stroke:none;fill-rule:nonzero;fill:rgb(34.901962%,61.960787%,85.490197%);fill-opacity:1;" d="M 125.257812 99.527344 C 126.558594 99.625 126.558594 99.625 128.261719 100.277344 C 129.894531 102.242188 129.894531 102.242188 131.5 104.691406 C 132.308594 105.894531 132.308594 105.894531 133.132812 107.125 C 133.507812 107.839844 133.882812 108.554688 134.265625 109.292969 C 134.019531 110.035156 133.773438 110.777344 133.515625 111.542969 C 133.019531 110.800781 132.527344 110.058594 132.015625 109.292969 C 130.464844 107.15625 128.90625 105.03125 127.34375 102.902344 C 126.007812 101.027344 126.007812 101.027344 125.257812 99.527344 Z M 125.257812 99.527344 "/>
<path style=" stroke:none;fill-rule:nonzero;fill:rgb(34.117648%,61.56863%,84.313726%);fill-opacity:1;" d="M 159.789062 59.714844 C 158.242188 60.671875 156.695312 61.625 155.144531 62.582031 C 154.710938 62.847656 154.277344 63.117188 153.832031 63.390625 C 151.324219 64.9375 148.808594 66.46875 146.277344 67.980469 C 147.25 65.058594 148.578125 64.394531 151.0625 62.628906 C 151.796875 62.097656 152.53125 61.570312 153.285156 61.023438 C 155.859375 59.339844 156.816406 58.722656 159.789062 59.714844 Z M 159.789062 59.714844 "/>
<path style=" stroke:none;fill-rule:nonzero;fill:rgb(33.333334%,60.000002%,83.137256%);fill-opacity:1;" d="M 66.707031 99.527344 C 66.914062 99.945312 67.125 100.363281 67.339844 100.796875 C 67.929688 101.976562 68.523438 103.15625 69.121094 104.335938 C 69.597656 105.277344 69.597656 105.277344 70.085938 106.238281 C 70.402344 106.867188 70.71875 107.492188 71.046875 108.136719 C 71.9375 109.996094 72.71875 111.875 73.460938 113.796875 C 69.519531 110.402344 66.949219 106.261719 66.519531 100.980469 C 66.582031 100.5 66.640625 100.019531 66.707031 99.527344 Z M 66.707031 99.527344 "/>
<path style=" stroke:none;fill-rule:nonzero;fill:rgb(36.470589%,63.921571%,87.058824%);fill-opacity:1;" d="M 461.5625 100.277344 C 462.304688 100.773438 463.050781 101.269531 463.816406 101.78125 C 464.164062 104.410156 463.957031 105.96875 462.875 108.398438 C 461.5625 110.042969 461.5625 110.042969 459.921875 110.652344 C 459.472656 110.699219 459.023438 110.746094 458.558594 110.792969 C 459.054688 110.3125 459.550781 109.832031 460.0625 109.339844 C 462.074219 106.253906 461.84375 103.859375 461.5625 100.277344 Z M 461.5625 100.277344 "/>
<path style=" stroke:none;fill-rule:nonzero;fill:rgb(41.176471%,67.058825%,89.411765%);fill-opacity:1;" d="M 149.28125 120.558594 C 149.777344 121.054688 150.273438 121.550781 150.78125 122.0625 C 150.285156 122.0625 149.792969 122.0625 149.28125 122.0625 C 149.28125 121.566406 149.28125 121.070312 149.28125 120.558594 Z M 149.28125 120.558594 "/>
<path style=" stroke:none;fill-rule:nonzero;fill:rgb(42.352942%,68.235296%,89.803922%);fill-opacity:1;" d="M 403.007812 73.988281 C 405.261719 74.738281 405.261719 74.738281 405.261719 74.738281 Z M 403.007812 73.988281 "/>
<path style=" stroke:none;fill-rule:nonzero;fill:rgb(41.960785%,66.666669%,87.450981%);fill-opacity:1;" d="M 170.300781 128.070312 C 171.800781 128.820312 171.800781 128.820312 171.800781 128.820312 Z M 170.300781 128.070312 "/>
<path style=" stroke:none;fill-rule:nonzero;fill:rgb(42.352942%,67.058825%,87.450981%);fill-opacity:1;" d="M 98.234375 128.070312 C 99.734375 128.820312 99.734375 128.820312 99.734375 128.820312 Z M 98.234375 128.070312 "/>
<path style=" stroke:none;fill-rule:nonzero;fill:rgb(42.352942%,67.058825%,87.450981%);fill-opacity:1;" d="M 324.1875 127.320312 C 325.691406 128.070312 325.691406 128.070312 325.691406 128.070312 Z M 324.1875 127.320312 "/>
<path style=" stroke:none;fill-rule:nonzero;fill:rgb(42.745098%,66.274512%,86.274511%);fill-opacity:1;" d="M 53.945312 127.320312 C 55.445312 128.070312 55.445312 128.070312 55.445312 128.070312 Z M 53.945312 127.320312 "/>
<path style=" stroke:none;fill-rule:nonzero;fill:rgb(41.568628%,67.450982%,88.627452%);fill-opacity:1;" d="M 154.535156 124.3125 C 156.035156 125.066406 156.035156 125.066406 156.035156 125.066406 Z M 154.535156 124.3125 "/>
<path style=" stroke:none;fill-rule:nonzero;fill:rgb(41.568628%,67.450982%,90.196079%);fill-opacity:1;" d="M 294.160156 95.019531 C 295.664062 95.769531 295.664062 95.769531 295.664062 95.769531 Z M 294.160156 95.019531 "/>
<path style=" stroke:none;fill-rule:nonzero;fill:rgb(41.960785%,68.627453%,91.37255%);fill-opacity:1;" d="M 258.878906 74.738281 C 260.382812 75.492188 260.382812 75.492188 260.382812 75.492188 Z M 258.878906 74.738281 "/>
<path style=" stroke:none;fill-rule:nonzero;fill:rgb(42.745098%,69.803923%,89.803922%);fill-opacity:1;" d="M 312.175781 58.964844 C 313.679688 59.714844 313.679688 59.714844 313.679688 59.714844 Z M 312.175781 58.964844 "/>
<path style=" stroke:none;fill-rule:nonzero;fill:rgb(42.352942%,68.235296%,89.019608%);fill-opacity:1;" d="M 491.589844 46.195312 C 493.089844 46.949219 493.089844 46.949219 493.089844 46.949219 Z M 491.589844 46.195312 "/>
</g>
</svg>
