<?xml version="1.0" encoding="UTF-8"?>
<svg xmlns="http://www.w3.org/2000/svg" xmlns:xlink="http://www.w3.org/1999/xlink" width="1024px" height="1536px" viewBox="0 0 256 384" version="1.1">
<g id="surface1">
<path style=" stroke:none;fill-rule:nonzero;fill:rgb(36.862746%,66.666669%,91.764706%);fill-opacity:1;" d="M 81.0625 172.078125 C 82.671875 173.648438 83.90625 175.449219 85.085938 177.351562 C 85.5625 178.097656 86.082031 178.796875 86.617188 179.496094 C 87.042969 180.058594 87.445312 180.636719 87.84375 181.21875 C 90.214844 184.777344 90.214844 184.777344 93.8125 186.859375 C 95.746094 187.183594 97.84375 187.070312 99.5625 186.070312 C 101.160156 184.898438 101.945312 183.453125 102.25 181.5 C 102.308594 179.84375 101.96875 178.359375 101 177 C 99.546875 175.449219 98.078125 174.898438 95.976562 174.742188 C 94.234375 174.757812 92.683594 175.304688 91.398438 176.492188 C 90.714844 177.363281 90.308594 178.359375 89.890625 179.371094 C 89.5 180 89.5 180 88.828125 180.214844 C 88.636719 180.226562 88.445312 180.238281 88.25 180.25 C 88.09375 180.054688 87.941406 179.859375 87.78125 179.65625 C 87.273438 179.007812 87.273438 179.007812 86.75 178.5 C 86.5 178.058594 86.25 177.613281 86.007812 177.167969 C 85.757812 176.71875 85.757812 176.71875 85.296875 176.34375 C 85.148438 176.171875 85.148438 176.171875 85 176 C 85.171875 174.167969 86.574219 172.84375 87.898438 171.679688 C 90.960938 169.328125 94.226562 168.738281 98 169 C 101.304688 169.523438 104.136719 171.199219 106.203125 173.828125 C 108.078125 176.6875 108.703125 180.054688 108.085938 183.394531 C 107.585938 185.394531 106.832031 186.929688 105.5 188.5 C 105.363281 188.660156 105.226562 188.824219 105.085938 188.988281 C 103.265625 190.957031 101.085938 191.945312 98.5 192.5 C 98.257812 192.558594 98.015625 192.613281 97.765625 192.671875 C 94.046875 193.050781 90.71875 192.292969 87.679688 190.085938 C 85.113281 187.984375 83.324219 185.058594 81.457031 182.351562 C 78.550781 177.839844 78.550781 177.839844 74.222656 175.023438 C 71.839844 174.671875 69.992188 174.722656 67.949219 176.09375 C 66.769531 177.164062 66.125 178.691406 65.941406 180.25 C 65.878906 182.042969 66.261719 183.652344 67.460938 185.03125 C 69.179688 186.617188 70.808594 186.878906 73.113281 186.84375 C 75.078125 186.632812 76.449219 185.675781 77.75 184.25 C 77.914062 184.25 78.078125 184.25 78.25 184.25 C 78.414062 183.921875 78.578125 183.589844 78.75 183.25 C 79.539062 183.144531 79.539062 183.144531 80.5 183.25 C 81.089844 183.722656 81.476562 184.296875 81.890625 184.921875 C 82.007812 185.078125 82.121094 185.234375 82.242188 185.394531 C 82.5625 185.863281 82.5625 185.863281 83 186.75 C 82.6875 188.402344 81.132812 189.542969 79.832031 190.484375 C 76.1875 192.773438 72.5625 193.152344 68.421875 192.257812 C 65.53125 191.445312 63.167969 189.636719 61.578125 187.101562 C 60 184.222656 59.488281 181.042969 60.296875 177.828125 C 61.375 174.394531 63.265625 171.820312 66.476562 170.101562 C 71.542969 167.796875 76.691406 168.96875 81.0625 172.078125 Z M 81.0625 172.078125 "/>
<path style=" stroke:none;fill-rule:nonzero;fill:rgb(36.862746%,66.666669%,91.37255%);fill-opacity:1;" d="M 130.382812 171.257812 C 132.800781 173.1875 134.398438 175.878906 134.9375 178.941406 C 135.3125 182.347656 134.59375 185.671875 132.488281 188.417969 C 131.402344 189.683594 130.285156 190.800781 128.75 191.5 C 128.585938 191.5 128.421875 191.5 128.25 191.5 C 128.167969 191.664062 128.085938 191.828125 128 192 C 124.351562 193.03125 121.273438 192.988281 117.925781 191.148438 C 117.25 190.75 117.25 190.75 117 190.5 C 116.996094 190.789062 116.992188 191.078125 116.988281 191.375 C 116.972656 192.449219 116.957031 193.523438 116.933594 194.597656 C 116.925781 195.0625 116.917969 195.527344 116.914062 195.988281 C 116.90625 196.660156 116.890625 197.328125 116.878906 197.996094 C 116.875 198.304688 116.875 198.304688 116.875 198.621094 C 116.835938 200.039062 116.558594 200.875 115.59375 201.953125 C 114.65625 202.421875 113.773438 202.445312 112.75 202.25 C 111.984375 201.820312 111.398438 201.296875 111 200.5 C 110.640625 198.375 110.710938 196.199219 110.707031 194.050781 C 110.707031 193.671875 110.707031 193.289062 110.707031 192.910156 C 110.703125 192.117188 110.703125 191.320312 110.703125 190.527344 C 110.703125 189.519531 110.699219 188.511719 110.695312 187.503906 C 110.691406 186.71875 110.691406 185.933594 110.691406 185.148438 C 110.691406 184.777344 110.691406 184.40625 110.691406 184.035156 C 110.660156 177.765625 110.660156 177.765625 112.078125 175.125 C 112.292969 174.710938 112.292969 174.710938 112.511719 174.289062 C 114.28125 171.421875 116.859375 169.902344 120.089844 169.105469 C 123.734375 168.527344 127.328125 169.136719 130.382812 171.257812 Z M 118 176.5 C 116.4375 178.375 116.542969 180.679688 116.75 183 C 117.132812 184.585938 118.183594 185.589844 119.5 186.5 C 121.105469 187.410156 123.210938 187.414062 124.960938 186.945312 C 126.539062 186.375 127.683594 185.558594 128.507812 184.074219 C 129.285156 182.230469 129.480469 180.382812 128.75 178.5 C 127.855469 176.679688 126.65625 175.503906 124.75 174.75 C 122.113281 174.199219 119.96875 174.617188 118 176.5 Z M 118 176.5 "/>
<path style=" stroke:none;fill-rule:nonzero;fill:rgb(36.862746%,66.666669%,91.37255%);fill-opacity:1;" d="M 155.203125 170.890625 C 157.972656 173.074219 159.324219 175.882812 159.734375 179.34375 C 159.789062 180.519531 159.820312 181.335938 159 182.25 C 157.136719 183.105469 155.257812 183.082031 153.25 183.019531 C 152.945312 183.011719 152.644531 183.003906 152.332031 183 C 151.378906 182.976562 150.421875 182.949219 149.46875 182.921875 C 148.816406 182.90625 148.167969 182.890625 147.515625 182.875 C 145.925781 182.835938 144.339844 182.796875 142.75 182.75 C 143.15625 184.242188 143.4375 185.214844 144.773438 186.09375 C 146.964844 187.3125 149.109375 187.460938 151.542969 186.972656 C 152.363281 186.714844 153.058594 186.347656 153.8125 185.9375 C 155.367188 185.117188 155.367188 185.117188 156.25 185.3125 C 157.179688 185.855469 157.554688 186.265625 158 187.25 C 158.019531 188.324219 157.898438 188.820312 157.21875 189.65625 C 154.988281 191.5 154.988281 191.5 154.25 191.5 C 154.167969 191.664062 154.085938 191.828125 154 192 C 153.382812 192.152344 152.78125 192.28125 152.15625 192.390625 C 150.8125 192.632812 150.8125 192.632812 149.5 193 C 145.746094 192.6875 142.355469 191.71875 139.726562 188.847656 C 137.375 185.882812 136.507812 182.980469 136.75 179.25 C 137.148438 176.351562 138.496094 173.425781 140.796875 171.554688 C 145.054688 168.40625 150.703125 167.878906 155.203125 170.890625 Z M 143.625 175.859375 C 143.113281 176.535156 142.703125 177.167969 142.5 178 C 142.574219 178.335938 142.65625 178.667969 142.75 179 C 143.902344 179.007812 145.050781 179.011719 146.203125 179.015625 C 146.59375 179.015625 146.984375 179.015625 147.375 179.019531 C 149.765625 179.03125 152.117188 178.984375 154.5 178.75 C 153.792969 176.5625 152.882812 175.222656 150.8125 174.140625 C 148.210938 173.691406 145.5 173.785156 143.625 175.859375 Z M 143.625 175.859375 "/>
<path style=" stroke:none;fill-rule:nonzero;fill:rgb(36.862746%,66.666669%,91.37255%);fill-opacity:1;" d="M 195.96875 171.234375 C 196.574219 171.824219 196.808594 172.175781 197 173 C 196.929688 174.011719 196.820312 174.894531 196.25 175.75 C 195.5 176.25 195.5 176.25 194.902344 176.195312 C 194.230469 175.996094 193.6875 175.730469 193.078125 175.390625 C 190.847656 174.25 188.074219 173.765625 185.617188 174.417969 C 185.152344 174.589844 184.699219 174.792969 184.25 175 C 184.167969 175.578125 184.085938 176.15625 184 176.75 C 185.71875 177.371094 187.539062 178.011719 189.382812 177.992188 C 190.410156 178.003906 191.292969 178.40625 192.25 178.75 C 192.480469 178.824219 192.707031 178.894531 192.945312 178.96875 C 194.800781 179.578125 196.058594 180.304688 197.21875 181.890625 C 197.910156 184.003906 197.984375 186.066406 197.101562 188.125 C 195.761719 190.5 193.523438 191.609375 190.96875 192.328125 C 186.996094 193.070312 182.917969 192.429688 179.5 190.25 C 178.621094 189.53125 177.914062 188.832031 177.601562 187.722656 C 177.527344 186.722656 177.726562 186.28125 178.359375 185.515625 C 178.570312 185.34375 178.78125 185.175781 179 185 C 179.125 184.875 179.125 184.875 179.25 184.75 C 180.078125 184.632812 180.722656 184.558594 181.4375 185.050781 C 181.585938 185.179688 181.738281 185.304688 181.890625 185.4375 C 183.726562 186.941406 186.28125 187.425781 188.613281 187.332031 C 189.863281 187.171875 191.09375 186.90625 192 186 C 192.144531 185.136719 192.144531 185.136719 192 184.25 C 191.117188 183.578125 190.25 183.332031 189.179688 183.097656 C 188.878906 183.035156 188.582031 182.96875 188.277344 182.902344 C 187.96875 182.835938 187.660156 182.769531 187.34375 182.703125 C 187.035156 182.636719 186.722656 182.566406 186.40625 182.496094 C 184.839844 182.132812 184.839844 182.132812 183.25 182 C 183.25 181.835938 183.25 181.671875 183.25 181.5 C 183.042969 181.484375 182.835938 181.46875 182.625 181.453125 C 181.136719 181.105469 180.082031 180.421875 179.140625 179.21875 C 178.234375 177.554688 178.1875 175.605469 178.699219 173.792969 C 179.535156 171.921875 180.859375 170.761719 182.710938 169.929688 C 187.09375 168.277344 192.046875 168.589844 195.96875 171.234375 Z M 195.96875 171.234375 "/>
<path style=" stroke:none;fill-rule:nonzero;fill:rgb(36.862746%,67.058825%,92.156863%);fill-opacity:1;" d="M 51.5 159.5 C 52.347656 160.570312 52.355469 161.585938 52.347656 162.898438 C 52.347656 163.113281 52.347656 163.324219 52.351562 163.546875 C 52.351562 164.007812 52.351562 164.472656 52.351562 164.933594 C 52.351562 165.667969 52.355469 166.402344 52.359375 167.136719 C 52.367188 168.695312 52.371094 170.253906 52.375 171.8125 C 52.378906 173.617188 52.382812 175.421875 52.394531 177.222656 C 52.398438 177.945312 52.398438 178.664062 52.394531 179.386719 C 52.398438 179.832031 52.402344 180.277344 52.402344 180.722656 C 52.402344 180.921875 52.402344 181.117188 52.398438 181.320312 C 52.417969 183.042969 52.765625 184.589844 53.796875 185.992188 C 54.699219 186.644531 55.441406 186.761719 56.53125 186.890625 C 58.355469 187.113281 58.355469 187.113281 58.984375 187.710938 C 59.476562 188.710938 59.675781 189.6875 59.34375 190.75 C 58.953125 191.53125 58.617188 191.949219 57.816406 192.296875 C 55.445312 192.882812 53.222656 192.320312 51.136719 191.148438 C 49.074219 189.859375 47.78125 188.128906 46.90625 185.859375 C 46.414062 183.140625 46.453125 180.410156 46.449219 177.660156 C 46.449219 177.429688 46.449219 177.199219 46.445312 176.960938 C 46.441406 175.746094 46.441406 174.53125 46.441406 173.316406 C 46.4375 172.0625 46.433594 170.808594 46.425781 169.554688 C 46.421875 168.589844 46.417969 167.621094 46.417969 166.652344 C 46.417969 166.191406 46.417969 165.730469 46.414062 165.269531 C 46.410156 164.621094 46.410156 163.976562 46.410156 163.332031 C 46.410156 163.140625 46.40625 162.953125 46.402344 162.757812 C 46.414062 161.359375 46.707031 160.3125 47.6875 159.296875 C 49.089844 158.558594 50.203125 158.613281 51.5 159.5 Z M 51.5 159.5 "/>
<path style=" stroke:none;fill-rule:nonzero;fill:rgb(37.254903%,67.058825%,92.156863%);fill-opacity:1;" d="M 175.707031 169.980469 C 176.4375 170.679688 176.546875 171.082031 176.578125 172.0625 C 176.566406 173.214844 176.285156 173.875 175.5 174.75 C 174.410156 175.164062 173.21875 174.992188 172.070312 174.960938 C 170.605469 175.03125 169.550781 175.476562 168.5 176.5 C 168.238281 177.257812 168.21875 177.96875 168.21875 178.765625 C 168.21875 179.015625 168.214844 179.265625 168.214844 179.523438 C 168.214844 179.796875 168.214844 180.066406 168.214844 180.34375 C 168.210938 180.914062 168.207031 181.488281 168.199219 182.058594 C 168.191406 182.960938 168.1875 183.863281 168.1875 184.761719 C 168.1875 185.632812 168.179688 186.503906 168.167969 187.375 C 168.167969 187.644531 168.171875 187.914062 168.171875 188.191406 C 168.144531 190.0625 168.144531 190.0625 167.398438 191.042969 C 166.4375 191.722656 165.660156 191.816406 164.5 191.75 C 163.457031 191.441406 163.117188 191.210938 162.589844 190.253906 C 162.117188 189.074219 162.148438 187.917969 162.160156 186.660156 C 162.160156 186.414062 162.160156 186.167969 162.160156 185.914062 C 162.160156 185.394531 162.160156 184.875 162.164062 184.355469 C 162.171875 183.570312 162.171875 182.78125 162.167969 181.992188 C 162.171875 181.488281 162.171875 180.980469 162.175781 180.472656 C 162.175781 180.242188 162.175781 180.007812 162.175781 179.769531 C 162.207031 176.832031 162.628906 174.601562 164.5625 172.34375 C 167.253906 170.019531 172.324219 167.679688 175.707031 169.980469 Z M 175.707031 169.980469 "/>
<path style=" stroke:none;fill-rule:nonzero;fill:rgb(37.254903%,67.058825%,92.156863%);fill-opacity:1;" d="M 216 161.25 C 216.640625 161.730469 216.941406 162.109375 217.25 162.84375 C 217.25 163.988281 216.597656 164.644531 215.835938 165.421875 C 213.757812 167.332031 210.214844 170.011719 207.316406 170.324219 C 206.460938 170.210938 206.078125 169.878906 205.5 169.25 C 205.34375 168.515625 205.34375 168.515625 205.5 167.75 C 206.421875 166.679688 207.457031 166.019531 208.65625 165.3125 C 210.195312 164.382812 211.566406 163.394531 212.917969 162.203125 C 213.859375 161.472656 214.800781 161.066406 216 161.25 Z M 216 161.25 "/>
<path style=" stroke:none;fill-rule:nonzero;fill:rgb(37.64706%,67.450982%,92.156863%);fill-opacity:1;" d="M 205 155 C 205.59375 155.296875 205.59375 155.296875 206 155.75 C 206.648438 158 205.40625 160.335938 204.515625 162.375 C 204.433594 162.570312 204.347656 162.765625 204.261719 162.964844 C 203.804688 163.972656 203.398438 164.808594 202.5 165.5 C 201.421875 165.675781 200.929688 165.613281 200 165.03125 C 199.386719 164.074219 199.382812 163.636719 199.554688 162.539062 C 200.078125 160.433594 200.828125 158.371094 201.738281 156.398438 C 201.8125 156.238281 201.886719 156.078125 201.960938 155.914062 C 202.703125 154.851562 203.804688 154.894531 205 155 Z M 205 155 "/>
<path style=" stroke:none;fill-rule:nonzero;fill:rgb(37.254903%,66.666669%,91.37255%);fill-opacity:1;" d="M 217.75 171.75 C 218.378906 172.410156 218.492188 172.683594 218.59375 173.609375 C 218.496094 174.542969 218.316406 175.011719 217.75 175.75 C 216.105469 176.574219 213.867188 175.921875 212.15625 175.546875 C 211.867188 175.484375 211.867188 175.484375 211.570312 175.421875 C 210.519531 175.179688 209.617188 174.925781 208.75 174.25 C 208.5 173.375 208.5 173.375 208.5 172.5 C 209.171875 171.601562 209.957031 171.519531 211.015625 171.335938 C 213.167969 171.082031 215.6875 170.988281 217.75 171.75 Z M 217.75 171.75 "/>
<path style=" stroke:none;fill-rule:nonzero;fill:rgb(34.509805%,60.392159%,82.352942%);fill-opacity:1;" d="M 51.5 159.5 C 52.398438 160.617188 52.351562 161.632812 52.335938 163.003906 C 52.335938 163.339844 52.335938 163.339844 52.335938 163.683594 C 52.335938 164.421875 52.328125 165.164062 52.324219 165.902344 C 52.320312 166.417969 52.320312 166.929688 52.320312 167.445312 C 52.316406 168.796875 52.308594 170.148438 52.300781 171.496094 C 52.292969 172.875 52.289062 174.257812 52.285156 175.636719 C 52.277344 178.339844 52.265625 181.046875 52.25 183.75 C 52.167969 183.75 52.085938 183.75 52 183.75 C 51.996094 183.335938 51.996094 183.335938 51.992188 182.914062 C 51.972656 180.3125 51.953125 177.710938 51.929688 175.113281 C 51.914062 173.773438 51.902344 172.4375 51.894531 171.101562 C 51.886719 169.808594 51.875 168.519531 51.859375 167.230469 C 51.855469 166.738281 51.851562 166.246094 51.847656 165.753906 C 51.84375 165.0625 51.835938 164.375 51.828125 163.683594 C 51.828125 163.480469 51.828125 163.277344 51.828125 163.066406 C 51.808594 161.773438 51.734375 160.75 50.8125 159.796875 C 50.0625 159.402344 49.589844 159.398438 48.75 159.5 C 47.820312 159.941406 47.820312 159.941406 47.25 160.75 C 47.222656 161.476562 47.210938 162.199219 47.210938 162.925781 C 47.207031 163.148438 47.207031 163.375 47.207031 163.605469 C 47.203125 164.355469 47.199219 165.101562 47.199219 165.851562 C 47.199219 166.371094 47.195312 166.890625 47.195312 167.410156 C 47.191406 168.503906 47.191406 169.597656 47.191406 170.691406 C 47.1875 172.085938 47.183594 173.484375 47.175781 174.878906 C 47.171875 175.953125 47.167969 177.03125 47.167969 178.105469 C 47.167969 178.621094 47.167969 179.132812 47.164062 179.648438 C 47.160156 180.371094 47.160156 181.09375 47.160156 181.816406 C 47.160156 182.027344 47.15625 182.238281 47.152344 182.453125 C 47.167969 184.359375 47.582031 186.105469 48.5625 187.75 C 48.707031 187.996094 48.851562 188.246094 49 188.5 C 48.875 188.746094 48.875 188.746094 48.75 189 C 46.21875 185.488281 46.457031 181.820312 46.449219 177.660156 C 46.449219 177.429688 46.449219 177.199219 46.445312 176.960938 C 46.441406 175.746094 46.441406 174.53125 46.441406 173.316406 C 46.4375 172.0625 46.433594 170.808594 46.425781 169.554688 C 46.421875 168.589844 46.417969 167.621094 46.417969 166.652344 C 46.417969 166.191406 46.417969 165.730469 46.414062 165.269531 C 46.410156 164.621094 46.410156 163.976562 46.410156 163.332031 C 46.410156 163.140625 46.40625 162.953125 46.402344 162.757812 C 46.414062 161.359375 46.707031 160.3125 47.6875 159.296875 C 49.089844 158.558594 50.203125 158.613281 51.5 159.5 Z M 51.5 159.5 "/>
<path style=" stroke:none;fill-rule:nonzero;fill:rgb(32.549021%,60.000002%,83.529413%);fill-opacity:1;" d="M 162.5 176.75 C 162.582031 176.75 162.664062 176.75 162.75 176.75 C 162.75 176.914062 162.75 177.078125 162.75 177.246094 C 162.757812 178.949219 162.769531 180.652344 162.789062 182.355469 C 162.792969 182.992188 162.796875 183.628906 162.800781 184.261719 C 162.800781 185.175781 162.8125 186.089844 162.824219 187.003906 C 162.820312 187.289062 162.820312 187.574219 162.820312 187.867188 C 162.8125 189.414062 162.8125 189.414062 163.601562 190.679688 C 164.71875 191.230469 165.632812 191.078125 166.859375 190.921875 C 167.054688 190.835938 167.054688 190.835938 167.25 190.75 C 167.496094 190.015625 167.539062 189.511719 167.550781 188.746094 C 167.554688 188.488281 167.5625 188.234375 167.566406 187.972656 C 167.570312 187.695312 167.574219 187.421875 167.578125 187.136719 C 167.585938 186.855469 167.589844 186.574219 167.59375 186.285156 C 167.609375 185.382812 167.625 184.480469 167.640625 183.578125 C 167.652344 182.96875 167.664062 182.355469 167.671875 181.746094 C 167.699219 180.246094 167.726562 178.75 167.75 177.25 C 167.832031 177.25 167.914062 177.25 168 177.25 C 168.03125 179.078125 168.054688 180.90625 168.070312 182.734375 C 168.074219 183.359375 168.082031 183.980469 168.09375 184.601562 C 168.109375 185.496094 168.117188 186.390625 168.121094 187.285156 C 168.128906 187.5625 168.136719 187.839844 168.140625 188.125 C 168.140625 190.058594 168.140625 190.058594 167.402344 191.046875 C 166.4375 191.71875 165.660156 191.816406 164.5 191.75 C 163.460938 191.441406 163.117188 191.210938 162.589844 190.257812 C 162.109375 189.058594 162.152344 187.875 162.167969 186.597656 C 162.167969 186.347656 162.167969 186.097656 162.167969 185.839844 C 162.171875 185.3125 162.175781 184.785156 162.179688 184.257812 C 162.1875 183.453125 162.191406 182.648438 162.191406 181.839844 C 162.195312 181.328125 162.195312 180.816406 162.199219 180.300781 C 162.199219 180.0625 162.203125 179.820312 162.203125 179.570312 C 162.203125 179.347656 162.207031 179.121094 162.210938 178.890625 C 162.210938 178.695312 162.214844 178.496094 162.214844 178.296875 C 162.25 177.75 162.351562 177.273438 162.5 176.75 Z M 162.5 176.75 "/>
<path style=" stroke:none;fill-rule:nonzero;fill:rgb(35.294119%,62.7451%,85.882354%);fill-opacity:1;" d="M 75.582031 174.882812 C 77.273438 175.808594 78.429688 177.191406 79.5625 178.71875 C 79.699219 178.902344 79.835938 179.082031 79.980469 179.273438 C 81.378906 181.140625 82.699219 183.0625 84 185 C 83.875 185.246094 83.875 185.246094 83.75 185.5 C 83.457031 185.101562 83.164062 184.703125 82.875 184.304688 C 82.621094 183.964844 82.371094 183.621094 82.121094 183.277344 C 81.558594 182.515625 81 181.75 80.453125 180.976562 C 77.605469 176.941406 77.605469 176.941406 73.316406 174.851562 C 71.375 174.605469 69.515625 175.003906 67.90625 176.125 C 67.234375 176.746094 66.890625 177.421875 66.5 178.25 C 66.335938 178.25 66.171875 178.25 66 178.25 C 66.617188 176.445312 67.578125 175.628906 69.21875 174.753906 C 71.277344 173.769531 73.507812 174.132812 75.582031 174.882812 Z M 75.582031 174.882812 "/>
<path style=" stroke:none;fill-rule:nonzero;fill:rgb(35.294119%,61.56863%,83.529413%);fill-opacity:1;" d="M 216 161.25 C 216.640625 161.730469 216.941406 162.109375 217.25 162.84375 C 217.25 164.03125 216.472656 164.765625 215.6875 165.59375 C 215.542969 165.726562 215.398438 165.863281 215.25 166 C 215.085938 165.917969 214.921875 165.835938 214.75 165.75 C 214.992188 165.539062 215.234375 165.328125 215.484375 165.109375 C 216.125 164.472656 216.253906 164.234375 216.5 163.3125 C 216.5 163.042969 216.5 162.777344 216.5 162.5 C 216.011719 161.898438 216.011719 161.898438 215.113281 161.992188 C 213.710938 162.207031 212.757812 163.042969 211.671875 163.90625 C 211.253906 164.226562 210.835938 164.542969 210.417969 164.863281 C 210.21875 165.015625 210.019531 165.167969 209.8125 165.328125 C 206.921875 167.5 206.921875 167.5 206 167.5 C 205.980469 168.261719 206.007812 168.769531 206.25 169.5 C 207.074219 169.5 207.898438 169.5 208.75 169.5 C 208 170.25 208 170.25 207.40625 170.359375 C 206.507812 170.210938 206.113281 169.917969 205.5 169.25 C 205.34375 168.515625 205.34375 168.515625 205.5 167.75 C 206.421875 166.679688 207.457031 166.019531 208.65625 165.3125 C 210.195312 164.382812 211.566406 163.394531 212.917969 162.203125 C 213.859375 161.472656 214.800781 161.066406 216 161.25 Z M 216 161.25 "/>
<path style=" stroke:none;fill-rule:nonzero;fill:rgb(34.901962%,61.960787%,84.705883%);fill-opacity:1;" d="M 191 169.5 C 193.160156 169.601562 194.921875 170.21875 196.5 171.75 C 197.121094 172.792969 197.003906 173.585938 196.75 174.75 C 196.433594 175.589844 196.28125 175.730469 195.5 176.25 C 194.570312 176.164062 193.886719 175.839844 193.078125 175.390625 C 190.753906 174.203125 188.320312 174.140625 185.75 174 C 185.75 173.917969 185.75 173.835938 185.75 173.75 C 188.996094 173.59375 191.378906 173.746094 194.304688 175.292969 C 194.75 175.542969 194.75 175.542969 195.28125 175.46875 C 195.773438 175.28125 195.773438 175.28125 196.0625 174.84375 C 196.335938 173.976562 196.390625 173.40625 196.25 172.5 C 195.335938 171.265625 193.988281 170.71875 192.582031 170.214844 C 192.03125 170.011719 191.519531 169.773438 191 169.5 Z M 191 169.5 "/>
<path style=" stroke:none;fill-rule:nonzero;fill:rgb(36.470589%,62.352943%,85.09804%);fill-opacity:1;" d="M 158.75 182.25 C 156.96875 183.003906 155.40625 183.085938 153.492188 183.019531 C 153.070312 183.007812 153.070312 183.007812 152.644531 183 C 151.757812 182.976562 150.871094 182.949219 149.984375 182.921875 C 149.378906 182.90625 148.777344 182.890625 148.171875 182.875 C 146.699219 182.835938 145.222656 182.796875 143.75 182.75 C 143.667969 182.585938 143.585938 182.421875 143.5 182.25 C 145.414062 182.210938 147.328125 182.175781 149.242188 182.140625 C 150.132812 182.121094 151.019531 182.105469 151.910156 182.089844 C 152.933594 182.066406 153.953125 182.046875 154.976562 182.03125 C 155.292969 182.023438 155.613281 182.015625 155.945312 182.011719 C 156.238281 182.003906 156.535156 182 156.839844 181.996094 C 157.101562 181.988281 157.359375 181.984375 157.628906 181.980469 C 158.25 182 158.25 182 158.75 182.25 Z M 158.75 182.25 "/>
<path style=" stroke:none;fill-rule:nonzero;fill:rgb(34.901962%,61.960787%,85.09804%);fill-opacity:1;" d="M 130.382812 171.253906 C 132.011719 172.5625 133.230469 174.054688 134 176 C 133.875 176.371094 133.875 176.371094 133.75 176.75 C 133.652344 176.566406 133.554688 176.382812 133.457031 176.191406 C 131.886719 173.246094 130.183594 171.402344 127 170.25 C 126.753906 170.160156 126.511719 170.066406 126.257812 169.976562 C 124.878906 169.589844 123.433594 169.699219 122.015625 169.71875 C 121.582031 169.722656 121.582031 169.722656 121.136719 169.726562 C 120.425781 169.730469 119.710938 169.738281 119 169.75 C 121.554688 167.195312 127.984375 169.601562 130.382812 171.253906 Z M 130.382812 171.253906 "/>
<path style=" stroke:none;fill-rule:nonzero;fill:rgb(36.078432%,61.56863%,83.92157%);fill-opacity:1;" d="M 140.75 189.5 C 141.3125 189.777344 141.871094 190.0625 142.425781 190.359375 C 145.726562 192.085938 149.140625 192.625 152.765625 191.5625 C 153.9375 191.15625 154.941406 190.636719 156 190 C 156.164062 190.082031 156.328125 190.164062 156.5 190.25 C 156.21875 190.460938 155.9375 190.667969 155.65625 190.875 C 155.5 190.992188 155.34375 191.105469 155.179688 191.226562 C 154.75 191.5 154.75 191.5 154.25 191.5 C 154.167969 191.664062 154.085938 191.828125 154 192 C 153.382812 192.152344 152.78125 192.28125 152.15625 192.390625 C 150.8125 192.632812 150.8125 192.632812 149.5 193 C 146.59375 192.757812 143.953125 192.136719 141.5 190.5 C 141.03125 189.945312 141.03125 189.945312 140.75 189.5 Z M 140.75 189.5 "/>
<path style=" stroke:none;fill-rule:nonzero;fill:rgb(34.509805%,61.960787%,85.490197%);fill-opacity:1;" d="M 88.75 183 C 88.910156 183.164062 89.070312 183.328125 89.234375 183.5 C 89.851562 184.113281 90.484375 184.707031 91.125 185.296875 C 91.308594 185.464844 91.492188 185.632812 91.679688 185.808594 C 93.144531 186.945312 94.921875 187.09375 96.71875 186.9375 C 98.910156 186.601562 100.1875 185.761719 101.5 184 C 101.582031 183.753906 101.664062 183.503906 101.75 183.25 C 101.914062 183.25 102.078125 183.25 102.25 183.25 C 101.738281 185.085938 100.882812 186.035156 99.25 187 C 97.480469 187.875 95.171875 187.730469 93.261719 187.355469 C 91.582031 186.777344 90.335938 185.636719 89.25 184.25 C 88.9375 183.554688 88.9375 183.554688 88.75 183 Z M 88.75 183 "/>
<path style=" stroke:none;fill-rule:nonzero;fill:rgb(36.078432%,61.960787%,84.705883%);fill-opacity:1;" d="M 217.75 171.75 C 218.40625 172.429688 218.496094 172.6875 218.578125 173.65625 C 218.5 174.5 218.5 174.5 218 175 C 218.007812 174.503906 218.015625 174.007812 218.023438 173.511719 C 218.019531 172.949219 218.019531 172.949219 217.75 172.25 C 213.730469 171.855469 213.730469 171.855469 209.75 172.25 C 209.832031 172.003906 209.914062 171.753906 210 171.5 C 212.429688 171.046875 215.398438 170.882812 217.75 171.75 Z M 217.75 171.75 "/>
<path style=" stroke:none;fill-rule:nonzero;fill:rgb(35.294119%,61.960787%,83.92157%);fill-opacity:1;" d="M 200.5 160.25 C 200.75 161 200.75 161 200.515625 161.65625 C 200.183594 162.710938 200.207031 163.652344 200.25 164.75 C 201.0625 164.984375 201.0625 164.984375 202 165 C 203.394531 164.070312 203.882812 162.503906 204.5 161 C 204.75 161.75 204.75 161.75 204.472656 162.453125 C 204.335938 162.714844 204.203125 162.980469 204.0625 163.25 C 203.929688 163.511719 203.796875 163.777344 203.660156 164.046875 C 203.308594 164.648438 203.050781 165.078125 202.5 165.5 C 201.429688 165.660156 200.921875 165.609375 200 165.03125 C 199.367188 164.042969 199.425781 163.496094 199.601562 162.363281 C 199.789062 161.585938 200.085938 160.933594 200.5 160.25 Z M 200.5 160.25 "/>
<path style=" stroke:none;fill-rule:nonzero;fill:rgb(34.901962%,60.784316%,82.352942%);fill-opacity:1;" d="M 205 155 C 205.714844 155.359375 205.9375 155.578125 206.21875 156.328125 C 206.257812 157.148438 206.050781 157.742188 205.75 158.5 C 205.578125 157.914062 205.5 157.457031 205.515625 156.84375 C 205.566406 156.203125 205.566406 156.203125 205 155.75 C 204.230469 155.652344 203.738281 155.589844 203 155.75 C 201.886719 156.894531 201.5 158.511719 201 160 C 200.683594 159.054688 200.871094 158.695312 201.1875 157.765625 C 201.316406 157.375 201.316406 157.375 201.449219 156.976562 C 201.734375 156.289062 201.996094 155.796875 202.5 155.25 C 203.390625 154.953125 204.0625 154.933594 205 155 Z M 205 155 "/>
<path style=" stroke:none;fill-rule:nonzero;fill:rgb(33.725491%,60.784316%,83.529413%);fill-opacity:1;" d="M 118.75 170 C 118.535156 170.105469 118.320312 170.210938 118.101562 170.320312 C 114.929688 171.949219 113.035156 173.863281 111.75 177.25 C 111.476562 176.5625 111.480469 176.300781 111.757812 175.601562 C 112.949219 173.511719 115.792969 169.015625 118.75 170 Z M 118.75 170 "/>
<path style=" stroke:none;fill-rule:nonzero;fill:rgb(34.901962%,61.960787%,84.705883%);fill-opacity:1;" d="M 52.5 184.75 C 52.613281 184.851562 52.730469 184.953125 52.847656 185.0625 C 53 185.195312 53.15625 185.328125 53.3125 185.46875 C 53.464844 185.601562 53.613281 185.734375 53.769531 185.875 C 55.007812 186.84375 56.21875 186.898438 57.75 187.0625 C 58.5 187.25 58.5 187.25 58.964844 187.703125 C 59.40625 188.554688 59.421875 189.296875 59.5 190.25 C 59.335938 190.332031 59.171875 190.414062 59 190.5 C 58.875 189.261719 58.875 189.261719 58.75 188 C 58.484375 187.964844 58.21875 187.925781 57.945312 187.890625 C 53.984375 187.28125 53.984375 187.28125 52.75 185.75 C 52.578125 185.203125 52.578125 185.203125 52.5 184.75 Z M 52.5 184.75 "/>
<path style=" stroke:none;fill-rule:nonzero;fill:rgb(35.294119%,62.352943%,85.490197%);fill-opacity:1;" d="M 176.25 171.5 C 176.332031 171.5 176.414062 171.5 176.5 171.5 C 176.585938 172.554688 176.554688 173.144531 176.0625 174.09375 C 175.457031 174.796875 175.367188 174.871094 174.5 175 C 173.691406 175.007812 172.882812 174.984375 172.070312 174.960938 C 171.207031 175.003906 170.554688 175.195312 169.75 175.5 C 169.417969 175.585938 169.085938 175.671875 168.75 175.75 C 169.535156 174.808594 170.304688 174.414062 171.5 174.25 C 172.269531 174.230469 173.035156 174.234375 173.808594 174.257812 C 174.683594 174.261719 174.683594 174.261719 175.5 174 C 175.785156 173.421875 175.785156 173.421875 175.9375 172.734375 C 176 172.503906 176.058594 172.273438 176.121094 172.039062 C 176.164062 171.859375 176.207031 171.683594 176.25 171.5 Z M 176.25 171.5 "/>
<path style=" stroke:none;fill-rule:nonzero;fill:rgb(34.509805%,61.960787%,85.490197%);fill-opacity:1;" d="M 65.75 182.75 C 66.257812 183.207031 66.585938 183.632812 66.953125 184.21875 C 68.101562 185.863281 69.335938 186.539062 71.25 187 C 71.917969 187.113281 72.574219 187.1875 73.25 187.25 C 73.25 187.332031 73.25 187.414062 73.25 187.5 C 71.058594 187.667969 69.410156 187.222656 67.546875 186.0625 C 66.640625 185.132812 65.75 184.082031 65.75 182.75 Z M 65.75 182.75 "/>
<path style=" stroke:none;fill-rule:nonzero;fill:rgb(35.294119%,63.137257%,86.666667%);fill-opacity:1;" d="M 90.75 176.5 C 90.832031 176.664062 90.914062 176.828125 91 177 C 90.742188 177.695312 90.742188 177.695312 90.34375 178.515625 C 90.214844 178.785156 90.089844 179.058594 89.960938 179.335938 C 89.5 180 89.5 180 88.820312 180.21875 C 88.539062 180.234375 88.539062 180.234375 88.25 180.25 C 88.09375 180.054688 87.941406 179.859375 87.78125 179.65625 C 87.273438 179.007812 87.273438 179.007812 86.75 178.5 C 86.75 178.253906 86.75 178.003906 86.75 177.75 C 86.914062 177.75 87.078125 177.75 87.25 177.75 C 87.25 177.996094 87.25 178.246094 87.25 178.5 C 87.414062 178.5 87.578125 178.5 87.75 178.5 C 87.8125 178.660156 87.875 178.820312 87.9375 178.984375 C 88.199219 179.546875 88.199219 179.546875 88.769531 179.65625 C 88.929688 179.6875 89.085938 179.71875 89.25 179.75 C 89.296875 179.597656 89.339844 179.449219 89.386719 179.292969 C 90.011719 177.308594 90.011719 177.308594 90.75 176.5 Z M 90.75 176.5 "/>
<path style=" stroke:none;fill-rule:nonzero;fill:rgb(34.509805%,61.56863%,84.705883%);fill-opacity:1;" d="M 103.75 171.75 C 105.425781 172.476562 106.566406 174.101562 107.320312 175.726562 C 107.628906 176.632812 107.707031 177.550781 107.75 178.5 C 107.398438 177.8125 107.082031 177.117188 106.78125 176.40625 C 106.144531 174.964844 105.207031 172.980469 103.75 172.25 C 103.75 172.085938 103.75 171.921875 103.75 171.75 Z M 103.75 171.75 "/>
<path style=" stroke:none;fill-rule:nonzero;fill:rgb(34.509805%,60.784316%,82.745099%);fill-opacity:1;" d="M 162.5 189.25 C 162.648438 189.445312 162.800781 189.640625 162.953125 189.84375 C 163.476562 190.535156 163.476562 190.535156 164.25 191 C 165.78125 191.101562 165.78125 191.101562 167.25 190.75 C 167.332031 190.503906 167.414062 190.253906 167.5 190 C 167.664062 190.082031 167.828125 190.164062 168 190.25 C 167.292969 191.140625 166.753906 191.585938 165.640625 191.75 C 164.578125 191.8125 163.894531 191.609375 163 191 C 162.5 190.25 162.5 190.25 162.5 189.25 Z M 162.5 189.25 "/>
<path style=" stroke:none;fill-rule:nonzero;fill:rgb(34.117648%,61.56863%,84.705883%);fill-opacity:1;" d="M 68.25 170 C 68.039062 170.105469 67.828125 170.210938 67.609375 170.320312 C 65.890625 171.210938 64.382812 172.125 63 173.5 C 63 172.75 63 172.75 63.359375 172.335938 C 66.714844 169.445312 66.714844 169.445312 68.25 170 Z M 68.25 170 "/>
<path style=" stroke:none;fill-rule:nonzero;fill:rgb(33.725491%,60.784316%,83.529413%);fill-opacity:1;" d="M 168.070312 170.335938 C 168.210938 170.390625 168.355469 170.445312 168.5 170.5 C 168.265625 170.601562 168.265625 170.601562 168.023438 170.703125 C 165.875 171.6875 164.148438 173.007812 163.25 175.25 C 163.167969 175.003906 163.085938 174.753906 163 174.5 C 163.84375 173.007812 166.09375 170.042969 168.070312 170.335938 Z M 168.070312 170.335938 "/>
<path style=" stroke:none;fill-rule:nonzero;fill:rgb(35.294119%,62.352943%,85.882354%);fill-opacity:1;" d="M 98.5 174.75 C 99.941406 175.128906 101.011719 175.75 101.824219 177 C 102.09375 177.5 102.335938 177.957031 102.5 178.5 C 102.417969 178.746094 102.335938 178.996094 102.25 179.25 C 102.179688 179.105469 102.109375 178.960938 102.039062 178.8125 C 101.398438 177.566406 100.769531 176.679688 99.664062 175.820312 C 99.238281 175.492188 98.871094 175.136719 98.5 174.75 Z M 98.5 174.75 "/>
<path style=" stroke:none;fill-rule:nonzero;fill:rgb(34.509805%,62.352943%,85.490197%);fill-opacity:1;" d="M 77.75 184.25 C 77.914062 184.332031 78.078125 184.414062 78.25 184.5 C 77.28125 185.890625 76.125 186.71875 74.5 187.25 C 73.921875 187.15625 73.921875 187.15625 73.5 187 C 73.703125 186.90625 73.902344 186.8125 74.113281 186.714844 C 76.136719 185.753906 76.136719 185.753906 77.75 184.25 Z M 77.75 184.25 "/>
<path style=" stroke:none;fill-rule:nonzero;fill:rgb(34.901962%,61.960787%,85.490197%);fill-opacity:1;" d="M 80 183.5 C 80.433594 183.53125 80.433594 183.53125 81 183.75 C 81.542969 184.40625 81.542969 184.40625 82.078125 185.21875 C 82.347656 185.621094 82.347656 185.621094 82.621094 186.03125 C 82.746094 186.265625 82.871094 186.503906 83 186.75 C 82.917969 186.996094 82.835938 187.246094 82.75 187.5 C 82.585938 187.253906 82.421875 187.003906 82.25 186.75 C 81.734375 186.039062 81.214844 185.332031 80.695312 184.625 C 80.25 184 80.25 184 80 183.5 Z M 80 183.5 "/>
<path style=" stroke:none;fill-rule:nonzero;fill:rgb(34.117648%,61.56863%,84.313726%);fill-opacity:1;" d="M 91.5 170.25 C 90.984375 170.566406 90.46875 170.886719 89.953125 171.203125 C 89.808594 171.292969 89.664062 171.382812 89.515625 171.472656 C 88.679688 171.988281 87.84375 172.496094 87 173 C 87.324219 172.027344 87.765625 171.808594 88.59375 171.21875 C 88.839844 171.042969 89.082031 170.867188 89.335938 170.6875 C 90.191406 170.125 90.507812 169.917969 91.5 170.25 Z M 91.5 170.25 "/>
<path style=" stroke:none;fill-rule:nonzero;fill:rgb(33.333334%,60.000002%,83.137256%);fill-opacity:1;" d="M 60.5 183.5 C 60.570312 183.640625 60.640625 183.777344 60.710938 183.921875 C 60.90625 184.316406 61.105469 184.707031 61.304688 185.101562 C 61.464844 185.414062 61.464844 185.414062 61.625 185.734375 C 61.730469 185.941406 61.835938 186.152344 61.945312 186.367188 C 62.242188 186.984375 62.503906 187.609375 62.75 188.25 C 61.4375 187.121094 60.582031 185.742188 60.4375 183.984375 C 60.457031 183.824219 60.480469 183.664062 60.5 183.5 Z M 60.5 183.5 "/>
<path style=" stroke:none;fill-rule:nonzero;fill:rgb(36.470589%,63.921571%,87.058824%);fill-opacity:1;" d="M 192 183.75 C 192.246094 183.914062 192.496094 184.078125 192.75 184.25 C 192.867188 185.125 192.796875 185.644531 192.4375 186.453125 C 192 187 192 187 191.453125 187.203125 C 191.304688 187.21875 191.152344 187.234375 191 187.25 C 191.164062 187.089844 191.328125 186.929688 191.5 186.765625 C 192.171875 185.738281 192.09375 184.941406 192 183.75 Z M 192 183.75 "/>
<path style=" stroke:none;fill-rule:nonzero;fill:rgb(40.000001%,40.392157%,40.784314%);fill-opacity:1;" d="M 229.25 272.25 C 229.414062 272.414062 229.578125 272.578125 229.75 272.75 C 229.503906 272.667969 229.253906 272.585938 229 272.5 C 229.082031 272.417969 229.164062 272.335938 229.25 272.25 Z M 229.25 272.25 "/>
<path style=" stroke:none;fill-rule:nonzero;fill:rgb(40.000001%,40.392157%,40.784314%);fill-opacity:1;" d="M 231 272.5 C 231.75 272.75 231.75 272.75 231.75 272.75 Z M 231 272.5 "/>
<path style=" stroke:none;fill-rule:nonzero;fill:rgb(41.176471%,67.058825%,89.411765%);fill-opacity:1;" d="M 88 190.5 C 88.164062 190.664062 88.328125 190.828125 88.5 191 C 88.335938 191 88.171875 191 88 191 C 88 190.835938 88 190.671875 88 190.5 Z M 88 190.5 "/>
<path style=" stroke:none;fill-rule:nonzero;fill:rgb(42.352942%,68.235296%,89.803922%);fill-opacity:1;" d="M 172.5 175 C 173.25 175.25 173.25 175.25 173.25 175.25 Z M 172.5 175 "/>
<path style=" stroke:none;fill-rule:nonzero;fill:rgb(40.392157%,40.784314%,40.784314%);fill-opacity:1;" d="M 235.5 279.75 C 236 280 236 280 236 280 Z M 235.5 279.75 "/>
<path style=" stroke:none;fill-rule:nonzero;fill:rgb(39.607844%,40.392157%,40.392157%);fill-opacity:1;" d="M 201.5 279.75 C 202 280 202 280 202 280 Z M 201.5 279.75 "/>
<path style=" stroke:none;fill-rule:nonzero;fill:rgb(38.82353%,40.000001%,40.000001%);fill-opacity:1;" d="M 123.5 279.75 C 124 280 124 280 124 280 Z M 123.5 279.75 "/>
<path style=" stroke:none;fill-rule:nonzero;fill:rgb(40.000001%,40.784314%,40.392157%);fill-opacity:1;" d="M 218.5 279.25 C 219 279.5 219 279.5 219 279.5 Z M 218.5 279.25 "/>
<path style=" stroke:none;fill-rule:nonzero;fill:rgb(40.392157%,41.176471%,41.176471%);fill-opacity:1;" d="M 251 272.5 C 251.5 272.75 251.5 272.75 251.5 272.75 Z M 251 272.5 "/>
<path style=" stroke:none;fill-rule:nonzero;fill:rgb(40.000001%,41.176471%,40.784314%);fill-opacity:1;" d="M 239 272.5 C 239.5 272.75 239.5 272.75 239.5 272.75 Z M 239 272.5 "/>
<path style=" stroke:none;fill-rule:nonzero;fill:rgb(39.607844%,40.784314%,40.784314%);fill-opacity:1;" d="M 219 272.5 C 219.5 272.75 219.5 272.75 219.5 272.75 Z M 219 272.5 "/>
<path style=" stroke:none;fill-rule:nonzero;fill:rgb(38.431373%,39.607844%,39.215687%);fill-opacity:1;" d="M 141 272.5 C 141.5 272.75 141.5 272.75 141.5 272.75 Z M 141 272.5 "/>
<path style=" stroke:none;fill-rule:nonzero;fill:rgb(38.431373%,40.000001%,39.607844%);fill-opacity:1;" d="M 133 272.5 C 133.5 272.75 133.5 272.75 133.5 272.75 Z M 133 272.5 "/>
<path style=" stroke:none;fill-rule:nonzero;fill:rgb(38.82353%,40.000001%,40.392157%);fill-opacity:1;" d="M 77 272.5 C 77.5 272.75 77.5 272.75 77.5 272.75 Z M 77 272.5 "/>
<path style=" stroke:none;fill-rule:nonzero;fill:rgb(38.82353%,40.392157%,40.000001%);fill-opacity:1;" d="M 71 272.5 C 71.5 272.75 71.5 272.75 71.5 272.75 Z M 71 272.5 "/>
<path style=" stroke:none;fill-rule:nonzero;fill:rgb(41.960785%,66.666669%,87.450981%);fill-opacity:1;" d="M 95 193 C 95.5 193.25 95.5 193.25 95.5 193.25 Z M 95 193 "/>
<path style=" stroke:none;fill-rule:nonzero;fill:rgb(42.352942%,67.058825%,87.450981%);fill-opacity:1;" d="M 71 193 C 71.5 193.25 71.5 193.25 71.5 193.25 Z M 71 193 "/>
<path style=" stroke:none;fill-rule:nonzero;fill:rgb(42.352942%,67.058825%,87.450981%);fill-opacity:1;" d="M 146.25 192.75 C 146.75 193 146.75 193 146.75 193 Z M 146.25 192.75 "/>
<path style=" stroke:none;fill-rule:nonzero;fill:rgb(42.745098%,66.274512%,86.274511%);fill-opacity:1;" d="M 56.25 192.75 C 56.75 193 56.75 193 56.75 193 Z M 56.25 192.75 "/>
<path style=" stroke:none;fill-rule:nonzero;fill:rgb(41.568628%,67.450982%,88.627452%);fill-opacity:1;" d="M 89.75 191.75 C 90.25 192 90.25 192 90.25 192 Z M 89.75 191.75 "/>
<path style=" stroke:none;fill-rule:nonzero;fill:rgb(41.568628%,67.450982%,90.196079%);fill-opacity:1;" d="M 136.25 182 C 136.75 182.25 136.75 182.25 136.75 182.25 Z M 136.25 182 "/>
<path style=" stroke:none;fill-rule:nonzero;fill:rgb(41.960785%,68.627453%,91.37255%);fill-opacity:1;" d="M 124.5 175.25 C 125 175.5 125 175.5 125 175.5 Z M 124.5 175.25 "/>
<path style=" stroke:none;fill-rule:nonzero;fill:rgb(42.745098%,69.803923%,89.803922%);fill-opacity:1;" d="M 142.25 170 C 142.75 170.25 142.75 170.25 142.75 170.25 Z M 142.25 170 "/>
<path style=" stroke:none;fill-rule:nonzero;fill:rgb(42.352942%,68.235296%,89.019608%);fill-opacity:1;" d="M 202 165.75 C 202.5 166 202.5 166 202.5 166 Z M 202 165.75 "/>
</g>
</svg>
