<?xml version="1.0" encoding="UTF-8"?>
<svg xmlns="http://www.w3.org/2000/svg" xmlns:xlink="http://www.w3.org/1999/xlink" width="825px" height="247px" viewBox="0 0 825 247" version="1.1">
<g id="surface1">
<path style=" stroke:none;fill-rule:nonzero;fill:rgb(36.862746%,66.666669%,91.764706%);fill-opacity:1;" d="M 191.566406 97.03125 C 198.746094 104.054688 204.269531 112.09375 209.542969 120.609375 C 211.660156 123.9375 213.972656 127.058594 216.382812 130.1875 C 218.277344 132.703125 220.0625 135.292969 221.851562 137.890625 C 232.4375 153.804688 232.4375 153.804688 248.503906 163.109375 C 257.136719 164.558594 266.511719 164.054688 274.1875 159.582031 C 281.324219 154.339844 284.828125 147.878906 286.183594 139.152344 C 286.457031 131.746094 284.9375 125.101562 280.601562 119.03125 C 274.117188 112.09375 267.5625 109.632812 258.171875 108.945312 C 250.386719 109.011719 243.457031 111.453125 237.714844 116.769531 C 234.679688 120.648438 232.859375 125.109375 230.980469 129.636719 C 229.242188 132.441406 229.242188 132.441406 226.253906 133.398438 C 225.398438 133.453125 224.542969 133.503906 223.664062 133.5625 C 222.972656 132.683594 222.28125 131.808594 221.570312 130.90625 C 219.308594 128.007812 219.308594 128.007812 216.964844 125.738281 C 215.847656 123.753906 214.734375 121.773438 213.640625 119.78125 C 212.53125 117.773438 212.53125 117.773438 210.472656 116.097656 C 209.816406 115.335938 209.816406 115.335938 209.148438 114.5625 C 209.917969 106.375 216.1875 100.453125 222.089844 95.246094 C 235.765625 84.734375 250.347656 82.097656 267.207031 83.269531 C 281.957031 85.601562 294.613281 93.105469 303.847656 104.851562 C 312.203125 117.632812 314.996094 132.691406 312.246094 147.617188 C 310.011719 156.558594 306.640625 163.425781 300.699219 170.445312 C 300.089844 171.167969 299.476562 171.886719 298.847656 172.632812 C 290.730469 181.433594 280.996094 185.855469 269.4375 188.324219 C 268.355469 188.578125 267.273438 188.835938 266.160156 189.09375 C 249.5625 190.789062 234.691406 187.394531 221.121094 177.539062 C 209.652344 168.140625 201.664062 155.0625 193.324219 142.960938 C 180.339844 122.785156 180.339844 122.785156 161.015625 110.207031 C 150.367188 108.617188 142.125 108.851562 133 114.980469 C 127.726562 119.757812 124.859375 126.585938 124.035156 133.570312 C 123.75 141.585938 125.472656 148.761719 130.816406 154.929688 C 138.496094 162.027344 145.769531 163.203125 156.058594 163.046875 C 164.84375 162.101562 170.957031 157.8125 176.769531 151.445312 C 177.507812 151.445312 178.242188 151.445312 179.003906 151.445312 C 179.742188 149.96875 180.476562 148.492188 181.238281 146.972656 C 184.757812 146.503906 184.757812 146.503906 189.054688 146.972656 C 191.691406 149.078125 193.410156 151.644531 195.265625 154.449219 C 195.777344 155.148438 196.292969 155.84375 196.828125 156.566406 C 198.269531 158.652344 198.269531 158.652344 200.21875 162.621094 C 198.824219 170.015625 191.875 175.109375 186.074219 179.304688 C 169.796875 189.554688 153.59375 191.246094 135.113281 187.253906 C 122.203125 183.613281 111.648438 175.523438 104.554688 164.183594 C 97.503906 151.324219 95.21875 137.101562 98.828125 122.730469 C 103.652344 107.390625 112.078125 95.878906 126.425781 88.191406 C 149.058594 77.894531 172.042969 83.125 191.566406 97.03125 Z M 191.566406 97.03125 "/>
<path style=" stroke:none;fill-rule:nonzero;fill:rgb(36.862746%,66.666669%,91.37255%);fill-opacity:1;" d="M 411.828125 93.363281 C 422.625 101.980469 429.75 114.015625 432.167969 127.714844 C 433.84375 142.933594 430.621094 157.789062 421.226562 170.070312 C 416.378906 175.730469 411.382812 180.730469 404.53125 183.855469 C 403.792969 183.855469 403.058594 183.855469 402.296875 183.855469 C 401.929688 184.59375 401.558594 185.332031 401.183594 186.089844 C 384.890625 190.695312 371.144531 190.503906 356.191406 182.285156 C 353.175781 180.503906 353.175781 180.503906 352.058594 179.386719 C 352.042969 180.675781 352.023438 181.964844 352.007812 183.296875 C 351.941406 188.097656 351.855469 192.898438 351.761719 197.703125 C 351.726562 199.777344 351.695312 201.855469 351.667969 203.925781 C 351.628906 206.914062 351.574219 209.90625 351.511719 212.894531 C 351.5 214.28125 351.5 214.28125 351.492188 215.695312 C 351.328125 222.039062 350.089844 225.769531 345.777344 230.585938 C 341.59375 232.679688 337.648438 232.785156 333.074219 231.914062 C 329.652344 229.992188 327.042969 227.65625 325.261719 224.089844 C 323.648438 214.59375 323.960938 204.859375 323.957031 195.257812 C 323.953125 193.558594 323.949219 191.855469 323.945312 190.15625 C 323.941406 186.605469 323.9375 183.058594 323.9375 179.507812 C 323.9375 174.996094 323.925781 170.492188 323.902344 165.984375 C 323.890625 162.476562 323.886719 158.96875 323.890625 155.457031 C 323.886719 153.800781 323.882812 152.140625 323.875 150.484375 C 323.738281 122.460938 323.738281 122.460938 330.074219 110.648438 C 331.035156 108.800781 331.035156 108.800781 332.015625 106.914062 C 339.917969 94.101562 351.425781 87.296875 365.855469 83.734375 C 382.128906 81.15625 398.179688 83.878906 411.828125 93.363281 Z M 356.519531 116.796875 C 349.546875 125.175781 350.023438 135.488281 350.941406 145.855469 C 352.648438 152.953125 357.347656 157.4375 363.21875 161.503906 C 370.386719 165.574219 379.796875 165.59375 387.601562 163.492188 C 394.664062 160.941406 399.761719 157.292969 403.445312 150.664062 C 406.925781 142.414062 407.796875 134.15625 404.53125 125.738281 C 400.539062 117.597656 395.183594 112.351562 386.664062 108.972656 C 374.890625 106.519531 365.308594 108.378906 356.519531 116.796875 Z M 356.519531 116.796875 "/>
<path style=" stroke:none;fill-rule:nonzero;fill:rgb(36.862746%,66.666669%,91.37255%);fill-opacity:1;" d="M 522.664062 91.71875 C 535.03125 101.480469 541.066406 114.03125 542.902344 129.511719 C 543.148438 134.761719 543.277344 138.425781 539.621094 142.5 C 531.304688 146.324219 522.902344 146.230469 513.933594 145.9375 C 512.585938 145.910156 511.242188 145.878906 509.851562 145.847656 C 505.585938 145.753906 501.320312 145.628906 497.058594 145.507812 C 494.148438 145.4375 491.242188 145.367188 488.332031 145.296875 C 481.238281 145.128906 474.144531 144.945312 467.050781 144.738281 C 468.863281 151.410156 470.128906 155.757812 476.089844 159.695312 C 485.878906 165.128906 495.445312 165.804688 506.3125 163.613281 C 509.976562 162.464844 513.089844 160.820312 516.453125 158.988281 C 523.394531 155.316406 523.394531 155.316406 527.339844 156.195312 C 531.496094 158.621094 533.167969 160.464844 535.15625 164.855469 C 535.238281 169.660156 534.695312 171.871094 531.667969 175.613281 C 521.699219 183.855469 521.699219 183.855469 518.410156 183.855469 C 518.039062 184.59375 517.671875 185.332031 517.292969 186.089844 C 514.535156 186.777344 511.847656 187.347656 509.0625 187.835938 C 503.0625 188.921875 503.0625 188.921875 497.195312 190.5625 C 480.425781 189.160156 465.285156 184.832031 453.539062 172 C 443.042969 158.746094 439.179688 145.777344 440.257812 129.09375 C 442.046875 116.136719 448.050781 103.050781 458.324219 94.699219 C 477.339844 80.621094 502.566406 78.257812 522.664062 91.71875 Z M 470.960938 113.933594 C 468.679688 116.957031 466.835938 119.78125 465.933594 123.503906 C 466.257812 125.003906 466.628906 126.496094 467.050781 127.976562 C 472.191406 128 477.332031 128.019531 482.46875 128.03125 C 484.214844 128.039062 485.957031 128.050781 487.695312 128.058594 C 498.375 128.113281 508.886719 127.898438 519.523438 126.855469 C 516.367188 117.074219 512.304688 111.089844 503.058594 106.246094 C 491.433594 104.234375 479.339844 104.652344 470.960938 113.933594 Z M 470.960938 113.933594 "/>
<path style=" stroke:none;fill-rule:nonzero;fill:rgb(36.862746%,66.666669%,91.37255%);fill-opacity:1;" d="M 704.71875 93.257812 C 707.433594 95.894531 708.46875 97.464844 709.324219 101.148438 C 709.007812 105.667969 708.515625 109.625 705.976562 113.445312 C 702.625 115.679688 702.625 115.679688 699.953125 115.433594 C 696.957031 114.539062 694.535156 113.359375 691.808594 111.835938 C 681.851562 106.746094 669.460938 104.570312 658.480469 107.492188 C 656.410156 108.265625 654.386719 109.164062 652.382812 110.089844 C 652.015625 112.671875 651.644531 115.253906 651.269531 117.917969 C 658.941406 120.695312 667.066406 123.5625 675.316406 123.472656 C 679.898438 123.523438 683.835938 125.320312 688.113281 126.855469 C 689.136719 127.179688 690.160156 127.503906 691.214844 127.839844 C 699.496094 130.558594 705.125 133.8125 710.300781 140.894531 C 713.390625 150.339844 713.722656 159.554688 709.785156 168.761719 C 703.792969 179.390625 693.804688 184.355469 682.390625 187.558594 C 664.648438 190.875 646.441406 188.007812 631.171875 178.265625 C 627.257812 175.0625 624.085938 171.929688 622.695312 166.964844 C 622.359375 162.5 623.25 160.515625 626.078125 157.101562 C 627.023438 156.339844 627.964844 155.582031 628.9375 154.796875 C 629.488281 154.242188 629.488281 154.242188 630.054688 153.679688 C 633.753906 153.152344 636.632812 152.828125 639.824219 155.019531 C 640.492188 155.589844 641.160156 156.164062 641.847656 156.753906 C 650.046875 163.46875 661.449219 165.644531 671.867188 165.226562 C 677.453125 164.5 682.945312 163.320312 686.996094 159.269531 C 687.644531 155.402344 687.644531 155.402344 686.996094 151.445312 C 683.054688 148.445312 679.179688 147.335938 674.390625 146.296875 C 673.0625 146.003906 671.738281 145.710938 670.371094 145.414062 C 668.996094 145.121094 667.621094 144.828125 666.199219 144.53125 C 664.816406 144.226562 663.433594 143.917969 662.003906 143.605469 C 655.023438 141.980469 655.023438 141.980469 647.917969 141.382812 C 647.917969 140.644531 647.917969 139.910156 647.917969 139.152344 C 647 139.082031 646.074219 139.011719 645.125 138.941406 C 638.476562 137.394531 633.761719 134.339844 629.566406 128.953125 C 625.527344 121.507812 625.304688 112.804688 627.601562 104.691406 C 631.332031 96.332031 637.234375 91.152344 645.519531 87.421875 C 665.089844 80.03125 687.199219 81.4375 704.71875 93.257812 Z M 704.71875 93.257812 "/>
<path style=" stroke:none;fill-rule:nonzero;fill:rgb(36.862746%,67.058825%,92.156863%);fill-opacity:1;" d="M 59.542969 40.796875 C 63.328125 45.582031 63.363281 50.121094 63.320312 55.988281 C 63.328125 56.945312 63.332031 57.898438 63.339844 58.882812 C 63.351562 60.953125 63.351562 63.023438 63.351562 65.089844 C 63.34375 68.367188 63.359375 71.648438 63.382812 74.929688 C 63.421875 81.902344 63.4375 88.871094 63.453125 95.839844 C 63.464844 103.90625 63.488281 111.972656 63.542969 120.035156 C 63.554688 123.253906 63.550781 126.472656 63.546875 129.691406 C 63.554688 131.6875 63.566406 133.679688 63.578125 135.667969 C 63.570312 136.554688 63.566406 137.441406 63.558594 138.355469 C 63.640625 146.050781 65.1875 152.957031 69.789062 159.226562 C 73.828125 162.144531 77.152344 162.675781 82.011719 163.246094 C 90.164062 164.242188 90.164062 164.242188 92.964844 166.925781 C 95.171875 171.382812 96.054688 175.746094 94.574219 180.507812 C 92.824219 183.996094 91.335938 185.859375 87.746094 187.425781 C 77.160156 190.042969 67.242188 187.527344 57.925781 182.28125 C 48.707031 176.523438 42.941406 168.785156 39.027344 158.636719 C 36.820312 146.492188 37.011719 134.285156 36.988281 121.984375 C 36.984375 120.953125 36.980469 119.925781 36.976562 118.863281 C 36.960938 113.429688 36.953125 107.992188 36.949219 102.558594 C 36.9375 96.957031 36.910156 91.351562 36.882812 85.753906 C 36.863281 81.429688 36.851562 77.101562 36.851562 72.777344 C 36.847656 70.710938 36.839844 68.648438 36.824219 66.582031 C 36.808594 63.695312 36.808594 60.808594 36.816406 57.921875 C 36.804688 57.078125 36.796875 56.230469 36.785156 55.355469 C 36.832031 49.113281 38.128906 44.4375 42.519531 39.886719 C 48.773438 36.582031 53.746094 36.839844 59.542969 40.796875 Z M 59.542969 40.796875 "/>
<path style=" stroke:none;fill-rule:nonzero;fill:rgb(37.254903%,67.058825%,92.156863%);fill-opacity:1;" d="M 614.238281 87.652344 C 617.492188 90.773438 617.980469 92.570312 618.121094 96.957031 C 618.0625 102.117188 616.820312 105.066406 613.304688 108.972656 C 608.4375 110.820312 603.117188 110.0625 598 109.910156 C 591.457031 110.230469 586.746094 112.226562 582.046875 116.796875 C 580.875 120.183594 580.792969 123.355469 580.789062 126.921875 C 580.785156 128.039062 580.78125 129.164062 580.777344 130.320312 C 580.777344 131.527344 580.777344 132.734375 580.773438 133.976562 C 580.75 136.535156 580.730469 139.09375 580.710938 141.648438 C 580.675781 145.679688 580.652344 149.707031 580.652344 153.738281 C 580.648438 157.628906 580.609375 161.519531 580.5625 165.410156 C 580.570312 166.613281 580.578125 167.816406 580.585938 169.058594 C 580.453125 177.425781 580.453125 177.425781 577.132812 181.808594 C 572.832031 184.84375 569.367188 185.265625 564.183594 184.976562 C 559.523438 183.589844 558.003906 182.5625 555.652344 178.289062 C 553.542969 173.015625 553.675781 167.832031 553.730469 162.21875 C 553.730469 161.117188 553.730469 160.015625 553.730469 158.882812 C 553.730469 156.558594 553.742188 154.238281 553.757812 151.914062 C 553.789062 148.398438 553.785156 144.878906 553.777344 141.359375 C 553.785156 139.09375 553.792969 136.824219 553.800781 134.558594 C 553.800781 133.523438 553.796875 132.484375 553.796875 131.414062 C 553.9375 118.273438 555.824219 108.304688 564.460938 98.21875 C 576.488281 87.816406 599.121094 77.363281 614.238281 87.652344 Z M 614.238281 87.652344 "/>
<path style=" stroke:none;fill-rule:nonzero;fill:rgb(37.254903%,67.058825%,92.156863%);fill-opacity:1;" d="M 794.171875 48.621094 C 797.03125 50.761719 798.375 52.457031 799.757812 55.742188 C 799.757812 60.871094 796.847656 63.804688 793.433594 67.277344 C 784.160156 75.8125 768.332031 87.796875 755.390625 89.183594 C 751.570312 88.6875 749.863281 87.1875 747.28125 84.386719 C 746.585938 81.101562 746.585938 81.101562 747.28125 77.679688 C 751.390625 72.902344 756.03125 69.9375 761.378906 66.785156 C 768.257812 62.625 774.375 58.207031 780.410156 52.882812 C 784.617188 49.609375 788.820312 47.792969 794.171875 48.621094 Z M 794.171875 48.621094 "/>
<path style=" stroke:none;fill-rule:nonzero;fill:rgb(37.64706%,67.450982%,92.156863%);fill-opacity:1;" d="M 745.050781 20.679688 C 747.703125 22.007812 747.703125 22.007812 749.515625 24.03125 C 752.414062 34.085938 746.859375 44.535156 742.886719 53.648438 C 742.511719 54.519531 742.140625 55.386719 741.753906 56.28125 C 739.714844 60.792969 737.902344 64.539062 733.886719 67.621094 C 729.0625 68.410156 726.878906 68.125 722.71875 65.523438 C 719.984375 61.242188 719.964844 59.289062 720.734375 54.375 C 723.066406 44.960938 726.421875 35.746094 730.480469 26.941406 C 730.8125 26.21875 731.140625 25.5 731.480469 24.757812 C 734.785156 20.023438 739.714844 20.203125 745.050781 20.679688 Z M 745.050781 20.679688 "/>
<path style=" stroke:none;fill-rule:nonzero;fill:rgb(37.254903%,66.666669%,91.37255%);fill-opacity:1;" d="M 801.988281 95.5625 C 804.804688 98.507812 805.308594 99.726562 805.757812 103.875 C 805.320312 108.054688 804.519531 110.136719 801.988281 113.445312 C 794.644531 117.121094 784.652344 114.203125 777.007812 112.539062 C 775.714844 112.257812 775.714844 112.257812 774.394531 111.976562 C 769.703125 110.890625 765.660156 109.761719 761.800781 106.738281 C 760.683594 102.828125 760.683594 102.828125 760.683594 98.914062 C 763.679688 94.890625 767.191406 94.535156 771.910156 93.714844 C 781.519531 92.574219 792.78125 92.15625 801.988281 95.5625 Z M 801.988281 95.5625 "/>
<path style=" stroke:none;fill-rule:nonzero;fill:rgb(34.509805%,60.392159%,82.352942%);fill-opacity:1;" d="M 59.542969 40.796875 C 63.558594 45.796875 63.351562 50.335938 63.269531 56.457031 C 63.273438 57.964844 63.273438 57.964844 63.273438 59.5 C 63.269531 62.808594 63.246094 66.113281 63.222656 69.421875 C 63.214844 71.71875 63.210938 74.019531 63.207031 76.316406 C 63.191406 82.355469 63.160156 88.394531 63.121094 94.4375 C 63.089844 100.597656 63.074219 106.765625 63.058594 112.933594 C 63.019531 125.023438 62.964844 137.113281 62.894531 149.210938 C 62.523438 149.210938 62.152344 149.210938 61.777344 149.210938 C 61.765625 147.359375 61.765625 147.359375 61.746094 145.46875 C 61.660156 133.84375 61.5625 122.214844 61.457031 110.589844 C 61.398438 104.613281 61.347656 98.636719 61.304688 92.65625 C 61.261719 86.890625 61.214844 81.121094 61.152344 75.351562 C 61.132812 73.152344 61.117188 70.949219 61.101562 68.75 C 61.082031 65.667969 61.050781 62.585938 61.015625 59.503906 C 61.011719 58.59375 61.007812 57.683594 61.007812 56.746094 C 60.921875 50.964844 60.589844 46.394531 56.472656 42.125 C 53.121094 40.355469 51.007812 40.339844 47.261719 40.796875 C 43.117188 42.769531 43.117188 42.769531 40.5625 46.386719 C 40.441406 49.632812 40.386719 52.855469 40.382812 56.105469 C 40.378906 57.109375 40.371094 58.121094 40.367188 59.15625 C 40.351562 62.5 40.34375 65.847656 40.335938 69.195312 C 40.332031 71.515625 40.320312 73.839844 40.316406 76.167969 C 40.304688 81.054688 40.296875 85.941406 40.292969 90.828125 C 40.289062 97.066406 40.261719 103.308594 40.230469 109.546875 C 40.210938 114.355469 40.203125 119.167969 40.203125 123.976562 C 40.199219 126.277344 40.191406 128.574219 40.175781 130.875 C 40.152344 134.105469 40.15625 137.335938 40.167969 140.566406 C 40.152344 141.503906 40.144531 142.445312 40.132812 143.414062 C 40.195312 151.925781 42.042969 159.746094 46.421875 167.089844 C 47.070312 168.199219 47.714844 169.304688 48.375 170.445312 C 47.828125 171.550781 47.828125 171.550781 47.261719 172.679688 C 35.953125 156.980469 37.027344 140.582031 36.988281 121.984375 C 36.984375 120.953125 36.980469 119.925781 36.976562 118.863281 C 36.960938 113.429688 36.953125 107.992188 36.949219 102.558594 C 36.9375 96.957031 36.910156 91.351562 36.882812 85.753906 C 36.863281 81.429688 36.851562 77.101562 36.851562 72.777344 C 36.847656 70.710938 36.839844 68.648438 36.824219 66.582031 C 36.808594 63.695312 36.808594 60.808594 36.816406 57.921875 C 36.804688 57.078125 36.796875 56.230469 36.785156 55.355469 C 36.832031 49.113281 38.128906 44.4375 42.519531 39.886719 C 48.773438 36.582031 53.746094 36.839844 59.542969 40.796875 Z M 59.542969 40.796875 "/>
<path style=" stroke:none;fill-rule:nonzero;fill:rgb(32.549021%,60.000002%,83.529413%);fill-opacity:1;" d="M 555.253906 117.917969 C 555.617188 117.917969 555.988281 117.917969 556.371094 117.917969 C 556.371094 118.648438 556.371094 119.378906 556.375 120.132812 C 556.394531 127.75 556.457031 135.363281 556.539062 142.976562 C 556.5625 145.820312 556.578125 148.660156 556.585938 151.503906 C 556.597656 155.589844 556.644531 159.671875 556.695312 163.757812 C 556.691406 165.03125 556.6875 166.300781 556.683594 167.613281 C 556.644531 174.535156 556.644531 174.535156 560.179688 180.191406 C 565.164062 182.65625 569.253906 181.972656 574.722656 181.273438 C 575.582031 180.890625 575.582031 180.890625 576.464844 180.503906 C 577.5625 177.214844 577.75 174.96875 577.8125 171.535156 C 577.832031 170.394531 577.855469 169.253906 577.878906 168.078125 C 577.898438 166.847656 577.914062 165.621094 577.933594 164.351562 C 577.960938 163.089844 577.980469 161.832031 578.003906 160.535156 C 578.078125 156.5 578.144531 152.46875 578.210938 148.4375 C 578.257812 145.707031 578.304688 142.976562 578.355469 140.246094 C 578.476562 133.546875 578.589844 126.851562 578.699219 120.148438 C 579.066406 120.148438 579.433594 120.148438 579.816406 120.148438 C 579.953125 128.324219 580.054688 136.5 580.121094 144.671875 C 580.148438 147.453125 580.1875 150.238281 580.234375 153.015625 C 580.304688 157.015625 580.335938 161.011719 580.363281 165.007812 C 580.390625 166.253906 580.417969 167.492188 580.449219 168.773438 C 580.453125 177.417969 580.453125 177.417969 577.148438 181.835938 C 572.828125 184.832031 569.359375 185.265625 564.183594 184.976562 C 559.535156 183.59375 558.007812 182.5625 555.652344 178.3125 C 553.503906 172.949219 553.699219 167.644531 553.769531 161.941406 C 553.769531 160.824219 553.777344 159.703125 553.777344 158.550781 C 553.785156 156.199219 553.800781 153.839844 553.820312 151.488281 C 553.859375 147.878906 553.867188 144.273438 553.875 140.671875 C 553.886719 138.378906 553.894531 136.085938 553.910156 133.792969 C 553.914062 132.71875 553.917969 131.636719 553.921875 130.527344 C 553.9375 129.527344 553.945312 128.519531 553.957031 127.488281 C 553.964844 126.609375 553.972656 125.730469 553.980469 124.820312 C 554.136719 122.390625 554.585938 120.25 555.253906 117.917969 Z M 555.253906 117.917969 "/>
<path style=" stroke:none;fill-rule:nonzero;fill:rgb(35.294119%,62.7451%,85.882354%);fill-opacity:1;" d="M 167.09375 109.578125 C 174.644531 113.714844 179.800781 119.886719 184.867188 126.714844 C 185.480469 127.53125 186.097656 128.347656 186.730469 129.191406 C 192.972656 137.546875 198.871094 146.136719 204.683594 154.796875 C 204.132812 155.902344 204.132812 155.902344 203.566406 157.03125 C 202.265625 155.253906 200.957031 153.476562 199.652344 151.695312 C 198.53125 150.164062 197.40625 148.636719 196.28125 147.105469 C 193.777344 143.6875 191.285156 140.269531 188.835938 136.8125 C 176.125 118.773438 176.125 118.773438 156.964844 109.4375 C 148.308594 108.335938 140.003906 110.101562 132.808594 115.113281 C 129.808594 117.898438 128.269531 120.925781 126.527344 124.621094 C 125.792969 124.621094 125.054688 124.621094 124.296875 124.621094 C 127.0625 116.550781 131.347656 112.898438 138.675781 108.992188 C 147.867188 104.585938 157.828125 106.210938 167.09375 109.578125 Z M 167.09375 109.578125 "/>
<path style=" stroke:none;fill-rule:nonzero;fill:rgb(35.294119%,61.56863%,83.529413%);fill-opacity:1;" d="M 794.171875 48.621094 C 797.03125 50.761719 798.375 52.457031 799.757812 55.742188 C 799.757812 61.054688 796.28125 64.339844 792.777344 68.039062 C 792.132812 68.640625 791.488281 69.238281 790.828125 69.855469 C 790.089844 69.484375 789.355469 69.121094 788.59375 68.738281 C 789.675781 67.792969 790.757812 66.847656 791.875 65.871094 C 794.734375 63.023438 795.308594 61.960938 796.40625 57.839844 C 796.40625 56.640625 796.40625 55.445312 796.40625 54.207031 C 794.234375 51.511719 794.234375 51.511719 790.21875 51.929688 C 783.945312 52.902344 779.703125 56.636719 774.84375 60.492188 C 772.980469 61.921875 771.113281 63.351562 769.246094 64.773438 C 768.355469 65.457031 767.460938 66.144531 766.539062 66.847656 C 753.628906 76.5625 753.628906 76.5625 749.515625 76.5625 C 749.425781 79.964844 749.542969 82.230469 750.632812 85.5 C 754.320312 85.5 758 85.5 761.800781 85.5 C 758.449219 88.855469 758.449219 88.855469 755.796875 89.34375 C 751.792969 88.675781 750.023438 87.363281 747.28125 84.386719 C 746.585938 81.101562 746.585938 81.101562 747.28125 77.679688 C 751.390625 72.902344 756.03125 69.9375 761.378906 66.785156 C 768.257812 62.625 774.375 58.207031 780.410156 52.882812 C 784.617188 49.609375 788.820312 47.792969 794.171875 48.621094 Z M 794.171875 48.621094 "/>
<path style=" stroke:none;fill-rule:nonzero;fill:rgb(34.901962%,61.960787%,84.705883%);fill-opacity:1;" d="M 682.53125 85.5 C 692.167969 85.949219 700.046875 88.714844 707.09375 95.5625 C 709.863281 100.230469 709.339844 103.769531 708.207031 108.972656 C 706.789062 112.730469 706.113281 113.351562 702.625 115.679688 C 698.472656 115.292969 695.421875 113.851562 691.808594 111.835938 C 681.433594 106.53125 670.5625 106.246094 659.085938 105.621094 C 659.085938 105.25 659.085938 104.882812 659.085938 104.503906 C 673.589844 103.8125 684.226562 104.480469 697.285156 111.402344 C 699.269531 112.511719 699.269531 112.511719 701.648438 112.183594 C 703.851562 111.351562 703.851562 111.351562 705.136719 109.394531 C 706.359375 105.515625 706.601562 102.96875 705.976562 98.914062 C 701.898438 93.386719 695.875 90.953125 689.597656 88.699219 C 687.132812 87.789062 684.851562 86.722656 682.53125 85.5 Z M 682.53125 85.5 "/>
<path style=" stroke:none;fill-rule:nonzero;fill:rgb(36.470589%,62.352943%,85.09804%);fill-opacity:1;" d="M 538.503906 142.5 C 530.546875 145.871094 523.582031 146.238281 515.023438 145.9375 C 513.144531 145.894531 513.144531 145.894531 511.230469 145.847656 C 507.273438 145.753906 503.316406 145.628906 499.359375 145.507812 C 496.664062 145.4375 493.964844 145.367188 491.269531 145.296875 C 484.683594 145.128906 478.097656 144.945312 471.519531 144.738281 C 471.148438 144 470.777344 143.261719 470.402344 142.5 C 478.953125 142.328125 487.5 142.164062 496.050781 142.007812 C 500.019531 141.933594 503.992188 141.855469 507.960938 141.777344 C 512.519531 141.683594 517.082031 141.601562 521.644531 141.519531 C 523.074219 141.492188 524.503906 141.457031 525.972656 141.429688 C 527.296875 141.40625 528.613281 141.382812 529.972656 141.359375 C 531.140625 141.339844 532.300781 141.316406 533.503906 141.292969 C 536.269531 141.382812 536.269531 141.382812 538.503906 142.5 Z M 538.503906 142.5 "/>
<path style=" stroke:none;fill-rule:nonzero;fill:rgb(34.901962%,61.960787%,85.09804%);fill-opacity:1;" d="M 411.820312 93.34375 C 419.09375 99.191406 424.53125 105.867188 427.976562 114.5625 C 427.421875 116.21875 427.421875 116.21875 426.859375 117.917969 C 426.429688 117.089844 425.992188 116.269531 425.550781 115.421875 C 418.53125 102.257812 410.9375 94.015625 396.714844 88.855469 C 395.617188 88.449219 394.527344 88.042969 393.402344 87.625 C 387.234375 85.90625 380.792969 86.386719 374.457031 86.480469 C 372.511719 86.496094 372.511719 86.496094 370.527344 86.511719 C 367.347656 86.535156 364.167969 86.574219 360.988281 86.617188 C 372.394531 75.199219 401.117188 85.960938 411.820312 93.34375 Z M 411.820312 93.34375 "/>
<path style=" stroke:none;fill-rule:nonzero;fill:rgb(36.078432%,61.56863%,83.92157%);fill-opacity:1;" d="M 458.117188 174.914062 C 460.632812 176.160156 463.121094 177.4375 465.597656 178.753906 C 480.339844 186.46875 495.585938 188.882812 511.777344 184.132812 C 517.007812 182.324219 521.5 179.992188 526.226562 177.148438 C 526.960938 177.519531 527.699219 177.886719 528.457031 178.265625 C 527.207031 179.207031 525.949219 180.132812 524.691406 181.0625 C 523.992188 181.578125 523.289062 182.097656 522.570312 182.632812 C 520.640625 183.855469 520.640625 183.855469 518.410156 183.855469 C 518.039062 184.59375 517.671875 185.332031 517.292969 186.089844 C 514.535156 186.777344 511.847656 187.347656 509.0625 187.835938 C 503.0625 188.921875 503.0625 188.921875 497.195312 190.5625 C 484.214844 189.476562 472.421875 186.699219 461.46875 179.386719 C 459.371094 176.898438 459.371094 176.898438 458.117188 174.914062 Z M 458.117188 174.914062 "/>
<path style=" stroke:none;fill-rule:nonzero;fill:rgb(34.509805%,61.960787%,85.490197%);fill-opacity:1;" d="M 225.898438 145.855469 C 226.609375 146.59375 227.324219 147.328125 228.058594 148.089844 C 230.816406 150.832031 233.636719 153.496094 236.5 156.125 C 237.320312 156.878906 238.136719 157.628906 238.980469 158.40625 C 245.519531 163.488281 253.453125 164.152344 261.492188 163.460938 C 271.277344 161.953125 276.976562 158.203125 282.835938 150.328125 C 283.203125 149.21875 283.574219 148.113281 283.949219 146.972656 C 284.691406 146.972656 285.425781 146.972656 286.183594 146.972656 C 283.894531 155.1875 280.074219 159.421875 272.789062 163.734375 C 264.878906 167.640625 254.566406 167.003906 246.042969 165.320312 C 238.542969 162.738281 232.976562 157.644531 228.128906 151.445312 C 226.730469 148.332031 226.730469 148.332031 225.898438 145.855469 Z M 225.898438 145.855469 "/>
<path style=" stroke:none;fill-rule:nonzero;fill:rgb(36.078432%,61.960787%,84.705883%);fill-opacity:1;" d="M 801.988281 95.5625 C 804.917969 98.597656 805.316406 99.761719 805.6875 104.085938 C 805.339844 107.855469 805.339844 107.855469 803.105469 110.089844 C 803.144531 107.875 803.179688 105.652344 803.21875 103.429688 C 803.199219 100.921875 803.199219 100.921875 801.988281 97.796875 C 784.050781 96.027344 784.050781 96.027344 766.265625 97.796875 C 766.632812 96.691406 767 95.585938 767.378906 94.445312 C 778.238281 92.421875 791.496094 91.679688 801.988281 95.5625 Z M 801.988281 95.5625 "/>
<path style=" stroke:none;fill-rule:nonzero;fill:rgb(35.294119%,61.960787%,83.92157%);fill-opacity:1;" d="M 724.953125 44.148438 C 726.070312 47.503906 726.070312 47.503906 725.023438 50.433594 C 723.539062 55.160156 723.640625 59.363281 723.835938 64.265625 C 727.476562 65.320312 727.476562 65.320312 731.652344 65.382812 C 737.875 61.234375 740.054688 54.222656 742.816406 47.503906 C 743.933594 50.859375 743.933594 50.859375 742.695312 54 C 742.089844 55.171875 741.484375 56.351562 740.867188 57.5625 C 740.269531 58.738281 739.679688 59.914062 739.066406 61.125 C 737.496094 63.820312 736.34375 65.738281 733.886719 67.621094 C 729.109375 68.328125 726.84375 68.101562 722.71875 65.523438 C 719.890625 61.101562 720.160156 58.660156 720.9375 53.59375 C 721.785156 50.125 723.109375 47.199219 724.953125 44.148438 Z M 724.953125 44.148438 "/>
<path style=" stroke:none;fill-rule:nonzero;fill:rgb(34.901962%,60.784316%,82.352942%);fill-opacity:1;" d="M 745.050781 20.679688 C 748.25 22.28125 749.230469 23.269531 750.492188 26.617188 C 750.664062 30.289062 749.742188 32.933594 748.398438 36.328125 C 747.628906 33.710938 747.285156 31.667969 747.351562 28.921875 C 747.582031 26.054688 747.582031 26.054688 745.050781 24.03125 C 741.617188 23.585938 739.410156 23.316406 736.121094 24.03125 C 731.152344 29.140625 729.414062 36.371094 727.1875 43.03125 C 725.785156 38.8125 726.609375 37.203125 728.023438 33.042969 C 728.605469 31.296875 728.605469 31.296875 729.195312 29.519531 C 730.464844 26.441406 731.640625 24.238281 733.886719 21.796875 C 737.863281 20.46875 740.871094 20.386719 745.050781 20.679688 Z M 745.050781 20.679688 "/>
<path style=" stroke:none;fill-rule:nonzero;fill:rgb(33.725491%,60.784316%,83.529413%);fill-opacity:1;" d="M 359.871094 87.738281 C 358.914062 88.210938 357.957031 88.6875 356.972656 89.175781 C 342.8125 96.441406 334.34375 105.011719 328.613281 120.148438 C 327.390625 117.078125 327.402344 115.914062 328.652344 112.789062 C 333.960938 103.445312 346.671875 83.332031 359.871094 87.738281 Z M 359.871094 87.738281 "/>
<path style=" stroke:none;fill-rule:nonzero;fill:rgb(34.901962%,61.960787%,84.705883%);fill-opacity:1;" d="M 64.007812 153.679688 C 64.523438 154.136719 65.03125 154.597656 65.5625 155.070312 C 66.246094 155.667969 66.933594 156.273438 67.640625 156.890625 C 68.3125 157.488281 68.984375 158.085938 69.679688 158.699219 C 75.199219 163.039062 80.617188 163.277344 87.460938 164.007812 C 90.804688 164.855469 90.804688 164.855469 92.878906 166.871094 C 94.855469 170.679688 94.914062 174.011719 95.273438 178.265625 C 94.53125 178.636719 93.796875 179.003906 93.039062 179.386719 C 92.484375 173.851562 92.484375 173.851562 91.921875 168.207031 C 90.734375 168.042969 89.546875 167.878906 88.324219 167.710938 C 70.632812 165 70.632812 165 65.125 158.148438 C 64.355469 155.699219 64.355469 155.699219 64.007812 153.679688 Z M 64.007812 153.679688 "/>
<path style=" stroke:none;fill-rule:nonzero;fill:rgb(35.294119%,62.352943%,85.490197%);fill-opacity:1;" d="M 616.65625 94.445312 C 617.027344 94.445312 617.394531 94.445312 617.773438 94.445312 C 618.152344 99.152344 618.019531 101.796875 615.820312 106.039062 C 613.121094 109.191406 612.71875 109.519531 608.84375 110.089844 C 605.222656 110.125 601.617188 110.015625 598 109.910156 C 594.148438 110.097656 591.222656 110.964844 587.628906 112.324219 C 586.144531 112.71875 584.660156 113.101562 583.164062 113.445312 C 586.667969 109.238281 590.097656 107.472656 595.445312 106.738281 C 598.886719 106.640625 602.308594 106.667969 605.75 106.769531 C 609.664062 106.792969 609.664062 106.792969 613.304688 105.621094 C 614.582031 103.03125 614.582031 103.03125 615.261719 99.960938 C 615.53125 98.933594 615.800781 97.910156 616.082031 96.851562 C 616.269531 96.058594 616.464844 95.261719 616.65625 94.445312 Z M 616.65625 94.445312 "/>
<path style=" stroke:none;fill-rule:nonzero;fill:rgb(34.509805%,61.960787%,85.490197%);fill-opacity:1;" d="M 123.183594 144.738281 C 125.453125 146.785156 126.90625 148.6875 128.554688 151.304688 C 133.691406 158.648438 139.203125 161.683594 147.746094 163.734375 C 150.730469 164.25 153.652344 164.582031 156.675781 164.855469 C 156.675781 165.226562 156.675781 165.59375 156.675781 165.972656 C 146.886719 166.726562 139.535156 164.734375 131.207031 159.546875 C 127.164062 155.390625 123.183594 150.695312 123.183594 144.738281 Z M 123.183594 144.738281 "/>
<path style=" stroke:none;fill-rule:nonzero;fill:rgb(35.294119%,63.137257%,86.666667%);fill-opacity:1;" d="M 234.828125 116.796875 C 235.195312 117.535156 235.566406 118.273438 235.945312 119.03125 C 234.785156 122.144531 234.785156 122.144531 233.011719 125.808594 C 232.445312 127.019531 231.878906 128.230469 231.296875 129.476562 C 229.242188 132.441406 229.242188 132.441406 226.21875 133.417969 C 224.953125 133.488281 224.953125 133.488281 223.664062 133.5625 C 222.972656 132.683594 222.28125 131.808594 221.570312 130.90625 C 219.308594 128.007812 219.308594 128.007812 216.964844 125.738281 C 216.964844 124.632812 216.964844 123.523438 216.964844 122.382812 C 217.699219 122.382812 218.4375 122.382812 219.199219 122.382812 C 219.199219 123.492188 219.199219 124.597656 219.199219 125.738281 C 219.933594 125.738281 220.671875 125.738281 221.429688 125.738281 C 221.707031 126.453125 221.980469 127.167969 222.269531 127.90625 C 223.441406 130.421875 223.441406 130.421875 225.984375 130.910156 C 226.691406 131.046875 227.402344 131.1875 228.128906 131.324219 C 228.332031 130.652344 228.535156 129.980469 228.742188 129.285156 C 231.53125 120.414062 231.53125 120.414062 234.828125 116.796875 Z M 234.828125 116.796875 "/>
<path style=" stroke:none;fill-rule:nonzero;fill:rgb(34.509805%,61.56863%,84.705883%);fill-opacity:1;" d="M 292.882812 95.5625 C 300.371094 98.816406 305.460938 106.074219 308.835938 113.335938 C 310.207031 117.382812 310.550781 121.488281 310.746094 125.738281 C 309.179688 122.664062 307.769531 119.554688 306.417969 116.375 C 303.574219 109.9375 299.398438 101.058594 292.882812 97.796875 C 292.882812 97.058594 292.882812 96.320312 292.882812 95.5625 Z M 292.882812 95.5625 "/>
<path style=" stroke:none;fill-rule:nonzero;fill:rgb(34.509805%,60.784316%,82.745099%);fill-opacity:1;" d="M 555.253906 173.796875 C 555.917969 174.671875 556.585938 175.546875 557.277344 176.453125 C 559.617188 179.546875 559.617188 179.546875 563.066406 181.621094 C 569.902344 182.070312 569.902344 182.070312 576.464844 180.503906 C 576.835938 179.394531 577.199219 178.289062 577.582031 177.148438 C 578.316406 177.519531 579.054688 177.886719 579.816406 178.265625 C 576.660156 182.242188 574.257812 184.238281 569.277344 184.976562 C 564.53125 185.257812 561.472656 184.347656 557.488281 181.621094 C 555.253906 178.265625 555.253906 178.265625 555.253906 173.796875 Z M 555.253906 173.796875 "/>
<path style=" stroke:none;fill-rule:nonzero;fill:rgb(34.117648%,61.56863%,84.705883%);fill-opacity:1;" d="M 134.347656 87.738281 C 133.402344 88.210938 132.457031 88.6875 131.484375 89.175781 C 123.8125 93.144531 117.074219 97.242188 110.902344 103.386719 C 110.902344 100.03125 110.902344 100.03125 112.5 98.1875 C 127.484375 85.261719 127.484375 85.261719 134.347656 87.738281 Z M 134.347656 87.738281 "/>
<path style=" stroke:none;fill-rule:nonzero;fill:rgb(33.725491%,60.784316%,83.529413%);fill-opacity:1;" d="M 580.125 89.230469 C 580.757812 89.476562 581.390625 89.722656 582.046875 89.972656 C 580.992188 90.425781 580.992188 90.425781 579.917969 90.878906 C 570.316406 95.28125 562.605469 101.183594 558.601562 111.207031 C 558.234375 110.101562 557.863281 108.996094 557.488281 107.855469 C 561.246094 101.195312 571.308594 87.929688 580.125 89.230469 Z M 580.125 89.230469 "/>
<path style=" stroke:none;fill-rule:nonzero;fill:rgb(35.294119%,62.352943%,85.882354%);fill-opacity:1;" d="M 269.4375 108.972656 C 275.875 110.660156 280.65625 113.4375 284.289062 119.03125 C 285.480469 121.265625 286.566406 123.3125 287.300781 125.738281 C 286.929688 126.847656 286.566406 127.949219 286.183594 129.09375 C 285.871094 128.441406 285.558594 127.792969 285.238281 127.125 C 282.386719 121.5625 279.582031 117.605469 274.628906 113.765625 C 272.742188 112.292969 271.097656 110.695312 269.4375 108.972656 Z M 269.4375 108.972656 "/>
<path style=" stroke:none;fill-rule:nonzero;fill:rgb(34.509805%,62.352943%,85.490197%);fill-opacity:1;" d="M 176.769531 151.445312 C 177.507812 151.8125 178.242188 152.183594 179.003906 152.558594 C 174.671875 158.78125 169.515625 162.480469 162.257812 164.855469 C 159.679688 164.441406 159.679688 164.441406 157.792969 163.734375 C 158.695312 163.316406 159.597656 162.898438 160.523438 162.46875 C 169.566406 158.171875 169.566406 158.171875 176.769531 151.445312 Z M 176.769531 151.445312 "/>
<path style=" stroke:none;fill-rule:nonzero;fill:rgb(34.901962%,61.960787%,85.490197%);fill-opacity:1;" d="M 186.820312 148.089844 C 188.753906 148.242188 188.753906 148.242188 191.285156 149.210938 C 193.714844 152.132812 193.714844 152.132812 196.101562 155.773438 C 197.304688 157.570312 197.304688 157.570312 198.527344 159.394531 C 199.085938 160.460938 199.644531 161.523438 200.21875 162.621094 C 199.851562 163.726562 199.480469 164.832031 199.101562 165.972656 C 198.363281 164.863281 197.628906 163.761719 196.871094 162.621094 C 194.5625 159.445312 192.242188 156.28125 189.917969 153.113281 C 187.9375 150.328125 187.9375 150.328125 186.820312 148.089844 Z M 186.820312 148.089844 "/>
<path style=" stroke:none;fill-rule:nonzero;fill:rgb(34.117648%,61.56863%,84.313726%);fill-opacity:1;" d="M 238.175781 88.855469 C 235.875 90.277344 233.570312 91.695312 231.269531 93.117188 C 230.625 93.515625 229.980469 93.914062 229.3125 94.324219 C 225.582031 96.625 221.84375 98.902344 218.082031 101.148438 C 219.527344 96.804688 221.5 95.820312 225.199219 93.1875 C 226.289062 92.398438 227.378906 91.613281 228.503906 90.800781 C 232.332031 88.296875 233.75 87.378906 238.175781 88.855469 Z M 238.175781 88.855469 "/>
<path style=" stroke:none;fill-rule:nonzero;fill:rgb(33.333334%,60.000002%,83.137256%);fill-opacity:1;" d="M 99.734375 148.089844 C 100.046875 148.714844 100.359375 149.335938 100.679688 149.980469 C 101.558594 151.738281 102.4375 153.492188 103.332031 155.246094 C 104.035156 156.648438 104.035156 156.648438 104.757812 158.078125 C 105.230469 159.011719 105.703125 159.941406 106.191406 160.902344 C 107.519531 163.671875 108.679688 166.460938 109.785156 169.328125 C 103.921875 164.269531 100.097656 158.117188 99.453125 150.257812 C 99.550781 149.542969 99.640625 148.828125 99.734375 148.089844 Z M 99.734375 148.089844 "/>
<path style=" stroke:none;fill-rule:nonzero;fill:rgb(36.470589%,63.921571%,87.058824%);fill-opacity:1;" d="M 686.996094 149.210938 C 688.101562 149.945312 689.203125 150.683594 690.34375 151.445312 C 690.863281 155.355469 690.554688 157.675781 688.949219 161.292969 C 686.996094 163.734375 686.996094 163.734375 684.554688 164.648438 C 683.882812 164.714844 683.214844 164.78125 682.53125 164.855469 C 683.265625 164.140625 684.003906 163.429688 684.761719 162.6875 C 687.757812 158.097656 687.410156 154.535156 686.996094 149.210938 Z M 686.996094 149.210938 "/>
<path style=" stroke:none;fill-rule:nonzero;fill:rgb(41.176471%,67.058825%,89.411765%);fill-opacity:1;" d="M 222.546875 179.386719 C 223.28125 180.121094 224.023438 180.859375 224.78125 181.621094 C 224.042969 181.621094 223.308594 181.621094 222.546875 181.621094 C 222.546875 180.882812 222.546875 180.148438 222.546875 179.386719 Z M 222.546875 179.386719 "/>
<path style=" stroke:none;fill-rule:nonzero;fill:rgb(42.352942%,68.235296%,89.803922%);fill-opacity:1;" d="M 599.910156 110.089844 C 603.261719 111.207031 603.261719 111.207031 603.261719 111.207031 Z M 599.910156 110.089844 "/>
<path style=" stroke:none;fill-rule:nonzero;fill:rgb(41.960785%,66.666669%,87.450981%);fill-opacity:1;" d="M 253.804688 190.5625 C 256.039062 191.679688 256.039062 191.679688 256.039062 191.679688 Z M 253.804688 190.5625 "/>
<path style=" stroke:none;fill-rule:nonzero;fill:rgb(42.352942%,67.058825%,87.450981%);fill-opacity:1;" d="M 146.628906 190.5625 C 148.863281 191.679688 148.863281 191.679688 148.863281 191.679688 Z M 146.628906 190.5625 "/>
<path style=" stroke:none;fill-rule:nonzero;fill:rgb(42.352942%,67.058825%,87.450981%);fill-opacity:1;" d="M 482.683594 189.441406 C 484.914062 190.5625 484.914062 190.5625 484.914062 190.5625 Z M 482.683594 189.441406 "/>
<path style=" stroke:none;fill-rule:nonzero;fill:rgb(42.745098%,66.274512%,86.274511%);fill-opacity:1;" d="M 80.753906 189.441406 C 82.988281 190.5625 82.988281 190.5625 82.988281 190.5625 Z M 80.753906 189.441406 "/>
<path style=" stroke:none;fill-rule:nonzero;fill:rgb(41.568628%,67.450982%,88.627452%);fill-opacity:1;" d="M 230.359375 184.976562 C 232.59375 186.089844 232.59375 186.089844 232.59375 186.089844 Z M 230.359375 184.976562 "/>
<path style=" stroke:none;fill-rule:nonzero;fill:rgb(41.568628%,67.450982%,90.196079%);fill-opacity:1;" d="M 438.023438 141.382812 C 440.257812 142.5 440.257812 142.5 440.257812 142.5 Z M 438.023438 141.382812 "/>
<path style=" stroke:none;fill-rule:nonzero;fill:rgb(41.960785%,68.627453%,91.37255%);fill-opacity:1;" d="M 385.546875 111.207031 C 387.78125 112.324219 387.78125 112.324219 387.78125 112.324219 Z M 385.546875 111.207031 "/>
<path style=" stroke:none;fill-rule:nonzero;fill:rgb(42.745098%,69.803923%,89.803922%);fill-opacity:1;" d="M 464.816406 87.738281 C 467.050781 88.855469 467.050781 88.855469 467.050781 88.855469 Z M 464.816406 87.738281 "/>
<path style=" stroke:none;fill-rule:nonzero;fill:rgb(42.352942%,68.235296%,89.019608%);fill-opacity:1;" d="M 731.652344 68.738281 C 733.886719 69.855469 733.886719 69.855469 733.886719 69.855469 Z M 731.652344 68.738281 "/>
</g>
</svg>
